M48
; DRILL file KiCad 10.0.5 date 2026-07-25T21:44:05
; FORMAT={-:-/ absolute / metric / decimal}
; #@! TF.CreationDate,2026-07-25T21:44:05-05:00
; #@! TF.GenerationSoftware,Kicad,Pcbnew,10.0.5
; #@! TF.FileFunction,Plated,1,2,PTH
FMAT,2
METRIC
; #@! TA.AperFunction,Plated,PTH,ComponentDrill
T1C0.200
; #@! TA.AperFunction,Plated,PTH,ViaDrill
T2C0.300
; #@! TA.AperFunction,Plated,PTH,ComponentDrill
T3C0.890
; #@! TA.AperFunction,Plated,PTH,ComponentDrill
T4C1.000
; #@! TA.AperFunction,Plated,PTH,ComponentDrill
T5C1.020
; #@! TA.AperFunction,Plated,PTH,ComponentDrill
T6C1.600
%
G90
G05
T1
X154.5Y-88.938
X154.5Y-89.938
X154.5Y-90.938
X155.5Y-88.938
X155.5Y-89.938
X155.5Y-90.938
X156.5Y-88.938
X156.5Y-89.938
X156.5Y-90.938
T2
X135.75Y-94.5
X137.5Y-82.75
X138.75Y-99.25
X142.75Y-82.0
X145.25Y-86.0
X145.25Y-90.0
X145.5Y-94.5
X146.75Y-97.5
X147.25Y-99.5
X148.25Y-82.75
X149.0Y-97.15
X151.549Y-89.087
X151.75Y-82.75
X151.75Y-86.75
X152.5Y-87.5
X152.518Y-92.018
X152.75Y-93.25
X153.25Y-94.0
X153.75Y-94.75
X154.0Y-97.5
X155.5Y-84.25
X157.9Y-87.5
X158.5Y-95.0
X159.5Y-97.25
X162.0Y-86.4
X162.0Y-94.6
X162.25Y-83.0
X171.0Y-83.75
X180.0Y-89.25
X180.0Y-91.5
T3
X174.16Y-86.56
X174.16Y-89.1
X174.16Y-91.64
X174.16Y-94.18
X176.7Y-87.83
X176.7Y-90.37
X176.7Y-92.91
X176.7Y-95.45
T4
X122.295Y-84.795
X122.295Y-87.335
X122.295Y-89.875
X122.295Y-92.415
X122.295Y-94.955
X122.295Y-97.495
X124.835Y-84.795
X124.835Y-87.335
X124.835Y-89.875
X124.835Y-92.415
X124.835Y-94.955
X124.835Y-97.495
X130.5Y-83.0
X133.04Y-83.0
X142.75Y-98.75
T5
X187.11Y-84.375
X187.11Y-86.915
X187.11Y-95.095
X187.11Y-97.635
T6
X180.0Y-83.26
X180.0Y-98.75
M30
