%TF.GenerationSoftware,KiCad,Pcbnew,10.0.5*%
%TF.CreationDate,2026-07-25T21:44:09-05:00*%
%TF.ProjectId,biscotti,62697363-6f74-4746-992e-6b696361645f,rev?*%
%TF.SameCoordinates,Original*%
%TF.FileFunction,Copper,L2,Bot*%
%TF.FilePolarity,Positive*%
%FSLAX46Y46*%
G04 Gerber Fmt 4.6, Leading zero omitted, Abs format (unit mm)*
G04 Created by KiCad (PCBNEW 10.0.5) date 2026-07-25 21:44:09*
%MOMM*%
%LPD*%
G01*
G04 APERTURE LIST*
%TA.AperFunction,ComponentPad*%
%ADD10R,1.700000X1.700000*%
%TD*%
%TA.AperFunction,ComponentPad*%
%ADD11C,1.700000*%
%TD*%
%TA.AperFunction,ComponentPad*%
%ADD12R,1.800000X1.800000*%
%TD*%
%TA.AperFunction,ComponentPad*%
%ADD13C,1.800000*%
%TD*%
%TA.AperFunction,ComponentPad*%
%ADD14C,2.000000*%
%TD*%
%TA.AperFunction,ComponentPad*%
%ADD15C,3.000000*%
%TD*%
%TA.AperFunction,HeatsinkPad*%
%ADD16C,0.500000*%
%TD*%
%TA.AperFunction,HeatsinkPad*%
%ADD17R,2.500000X2.500000*%
%TD*%
%TA.AperFunction,ViaPad*%
%ADD18C,0.600000*%
%TD*%
%TA.AperFunction,Conductor*%
%ADD19C,0.200000*%
%TD*%
G04 APERTURE END LIST*
D10*
%TO.P,J1,1,Pin_1_1*%
%TO.N,/MDIO*%
X133040000Y-83000000D03*
D11*
%TO.P,J1,2,Pin_2_2*%
%TO.N,/MDC*%
X130500000Y-83000000D03*
%TD*%
D12*
%TO.P,J4,1,TD+_1*%
%TO.N,Net-(J4-TD+)*%
X176700000Y-95450000D03*
D13*
%TO.P,J4,2,TD-_2*%
%TO.N,Net-(J4-TD-)*%
X174160000Y-94180000D03*
%TO.P,J4,3,RD+_3*%
%TO.N,Net-(J4-RD+)*%
X176700000Y-92910000D03*
%TO.P,J4,4,TCT_4*%
%TO.N,VDDA*%
X174160000Y-91640000D03*
%TO.P,J4,5,RCT_5*%
X176700000Y-90370000D03*
%TO.P,J4,6,RD-_6*%
%TO.N,Net-(J4-RD-)*%
X174160000Y-89100000D03*
%TO.P,J4,7,NC_7*%
%TO.N,unconnected-(J4-NC-Pad7)*%
X176700000Y-87830000D03*
%TO.P,J4,8*%
%TO.N,EGND*%
X174160000Y-86560000D03*
D14*
%TO.P,J4,9*%
%TO.N,/LED1*%
X187110000Y-97635000D03*
%TO.P,J4,10*%
%TO.N,/Y-*%
X187110000Y-95095000D03*
%TO.P,J4,11*%
%TO.N,VDDA*%
X187110000Y-86915000D03*
%TO.P,J4,12*%
%TO.N,/G-*%
X187110000Y-84375000D03*
D15*
%TO.P,J4,SH*%
%TO.N,EGND*%
X180000000Y-98750000D03*
X180000000Y-83260000D03*
%TD*%
D16*
%TO.P,U1,25,VSS_25*%
%TO.N,GND*%
X156500000Y-88937500D03*
X155500000Y-88937500D03*
X154500000Y-88937500D03*
X156500000Y-89937500D03*
X155500000Y-89937500D03*
D17*
X155500000Y-89937500D03*
D16*
X154500000Y-89937500D03*
X156500000Y-90937500D03*
X155500000Y-90937500D03*
X154500000Y-90937500D03*
%TD*%
D10*
%TO.P,J3,1,Pin_1_1*%
%TO.N,/nINT*%
X142750000Y-98750000D03*
%TD*%
%TO.P,J2,1,Pin_1_1*%
%TO.N,/Clk*%
X122295000Y-84795000D03*
D11*
%TO.P,J2,2,Pin_2_2*%
%TO.N,/RXD[1]*%
X124835000Y-84795000D03*
%TO.P,J2,3,Pin_3_3*%
%TO.N,/RXD[0]*%
X122295000Y-87335000D03*
%TO.P,J2,4,Pin_4_4*%
%TO.N,/RXERR*%
X124835000Y-87335000D03*
%TO.P,J2,5,Pin_5_5*%
%TO.N,/RXV*%
X122295000Y-89875000D03*
%TO.P,J2,6,Pin_6_6*%
%TO.N,/TXV*%
X124835000Y-89875000D03*
%TO.P,J2,7,Pin_7_7*%
%TO.N,/TXD[1]*%
X122295000Y-92415000D03*
%TO.P,J2,8,Pin_8_8*%
%TO.N,/TXD[0]*%
X124835000Y-92415000D03*
%TO.P,J2,9,Pin_9_9*%
%TO.N,GND*%
X122295000Y-94955000D03*
%TO.P,J2,10,Pin_10_10*%
X124835000Y-94955000D03*
%TO.P,J2,11,Pin_11_11*%
%TO.N,VDD*%
X122295000Y-97495000D03*
%TO.P,J2,12,Pin_12_12*%
X124835000Y-97495000D03*
%TD*%
D18*
%TO.N,GND*%
X158500000Y-95000000D03*
%TO.N,VDDA*%
X162000000Y-86400000D03*
X157900000Y-87500000D03*
X138750000Y-99250000D03*
X162000000Y-94600000D03*
%TO.N,GND*%
X162250000Y-83000000D03*
X145500000Y-94500000D03*
X142750000Y-82000000D03*
X135750000Y-94500000D03*
X151750000Y-82750000D03*
%TO.N,VDD*%
X146750000Y-97500000D03*
X145250000Y-90000000D03*
X137500000Y-82750000D03*
X145250000Y-86000000D03*
X159500000Y-97250000D03*
%TO.N,/MDIO*%
X152518015Y-92018015D03*
%TO.N,EGND*%
X180000000Y-89250000D03*
X180000000Y-91500000D03*
%TO.N,/LED1*%
X155500000Y-84250000D03*
X171000000Y-83750000D03*
%TO.N,/VDDCR*%
X151750000Y-86750000D03*
X148250000Y-82750000D03*
%TO.N,Net-(U1-RXD1{slash}MODE1)*%
X152500000Y-87500000D03*
X151548717Y-89087500D03*
%TO.N,/MDC*%
X152750000Y-93250000D03*
%TO.N,/nINT*%
X147250000Y-99500000D03*
X153250000Y-94000000D03*
X149000000Y-97150000D03*
%TO.N,/nRST*%
X153750000Y-94750000D03*
X154000000Y-97500000D03*
%TD*%
%TO.N,GND*%
D19*
X155500000Y-92000000D02*
X158500000Y-95000000D01*
X155500000Y-89937500D02*
X155500000Y-92000000D01*
%TO.N,VDDA*%
X183495000Y-90190000D02*
X176540000Y-90190000D01*
X162000000Y-86400000D02*
X162000000Y-94600000D01*
X162000000Y-94600000D02*
X162000000Y-93750000D01*
X159750000Y-98750000D02*
X145250000Y-98750000D01*
X176540000Y-90190000D02*
X175270000Y-91460000D01*
X174000000Y-91460000D02*
X172460000Y-93000000D01*
X172460000Y-93000000D02*
X162750000Y-93000000D01*
X140550000Y-97450000D02*
X143950000Y-97450000D01*
X138750000Y-99250000D02*
X140550000Y-97450000D01*
X161750000Y-86750000D02*
X162000000Y-86500000D01*
X145250000Y-98750000D02*
X143950000Y-97450000D01*
X175270000Y-91460000D02*
X174000000Y-91460000D01*
X162000000Y-94600000D02*
X162000000Y-96500000D01*
X162000000Y-86500000D02*
X162000000Y-86400000D01*
X162000000Y-96500000D02*
X159750000Y-98750000D01*
X157900000Y-87500000D02*
X158650000Y-86750000D01*
X162000000Y-93750000D02*
X162750000Y-93000000D01*
X186950000Y-86735000D02*
X183495000Y-90190000D01*
X158650000Y-86750000D02*
X161750000Y-86750000D01*
%TO.N,GND*%
X155500000Y-86500000D02*
X151750000Y-82750000D01*
X151000000Y-82000000D02*
X151750000Y-82750000D01*
X155500000Y-89937500D02*
X155500000Y-86500000D01*
X151750000Y-82750000D02*
X162000000Y-82750000D01*
X142750000Y-82000000D02*
X151000000Y-82000000D01*
X162000000Y-82750000D02*
X162250000Y-83000000D01*
X135750000Y-94500000D02*
X145500000Y-94500000D01*
%TO.N,VDD*%
X159000000Y-98250000D02*
X159500000Y-97750000D01*
X144000000Y-82750000D02*
X137500000Y-82750000D01*
X146750000Y-97500000D02*
X147500000Y-98250000D01*
X159500000Y-97250000D02*
X152000000Y-89750000D01*
X145250000Y-86000000D02*
X145250000Y-84000000D01*
X145250000Y-86000000D02*
X145250000Y-90000000D01*
X152000000Y-89750000D02*
X145500000Y-89750000D01*
X145250000Y-84000000D02*
X144000000Y-82750000D01*
X145500000Y-89750000D02*
X145250000Y-90000000D01*
X159500000Y-97750000D02*
X159500000Y-97250000D01*
X147500000Y-98250000D02*
X159000000Y-98250000D01*
%TO.N,/MDIO*%
X152018015Y-92018015D02*
X152518015Y-92018015D01*
X151000000Y-91000000D02*
X152018015Y-92018015D01*
X133040000Y-83000000D02*
X141040000Y-91000000D01*
X141040000Y-91000000D02*
X151000000Y-91000000D01*
%TO.N,EGND*%
X180000000Y-83260000D02*
X180000000Y-89250000D01*
X177300000Y-83080000D02*
X179840000Y-83080000D01*
X174000000Y-86380000D02*
X177300000Y-83080000D01*
X180000000Y-91500000D02*
X180000000Y-98750000D01*
%TO.N,/LED1*%
X156000000Y-83750000D02*
X155500000Y-84250000D01*
X171000000Y-83750000D02*
X156000000Y-83750000D01*
%TO.N,/VDDCR*%
X148250000Y-82750000D02*
X151750000Y-86250000D01*
X151750000Y-86250000D02*
X151750000Y-86750000D01*
%TO.N,Net-(U1-RXD1{slash}MODE1)*%
X152500000Y-88136217D02*
X152500000Y-87500000D01*
X151548717Y-89087500D02*
X152500000Y-88136217D01*
%TO.N,/MDC*%
X152750000Y-93250000D02*
X140750000Y-93250000D01*
X140750000Y-93250000D02*
X130500000Y-83000000D01*
%TO.N,/nINT*%
X147125000Y-99375000D02*
X147250000Y-99500000D01*
X142750000Y-98750000D02*
X144000000Y-98750000D01*
X144625000Y-99375000D02*
X147125000Y-99375000D01*
X150100000Y-97150000D02*
X153250000Y-94000000D01*
X144000000Y-98750000D02*
X144625000Y-99375000D01*
X149000000Y-97150000D02*
X150100000Y-97150000D01*
%TO.N,/nRST*%
X153750000Y-97250000D02*
X154000000Y-97500000D01*
X153750000Y-94750000D02*
X153750000Y-97250000D01*
%TD*%
%TA.AperFunction,Conductor*%
%TO.N,EGND*%
G36*
X179304388Y-81172585D02*
G01*
X179350143Y-81225389D01*
X179360087Y-81294547D01*
X179331062Y-81358103D01*
X179284801Y-81391461D01*
X179113533Y-81462401D01*
X179113517Y-81462409D01*
X178886471Y-81593496D01*
X178773633Y-81680079D01*
X178773633Y-81680080D01*
X179637706Y-82544153D01*
X179621058Y-82551049D01*
X179490030Y-82638599D01*
X179378599Y-82750030D01*
X179291049Y-82881058D01*
X179284153Y-82897706D01*
X178420080Y-82033633D01*
X178420079Y-82033633D01*
X178333496Y-82146471D01*
X178202409Y-82373517D01*
X178202404Y-82373528D01*
X178102075Y-82615744D01*
X178034222Y-82868979D01*
X178034220Y-82868990D01*
X178000000Y-83128905D01*
X178000000Y-83391094D01*
X178034220Y-83651009D01*
X178034222Y-83651020D01*
X178102075Y-83904255D01*
X178202404Y-84146471D01*
X178202409Y-84146482D01*
X178333488Y-84373516D01*
X178333494Y-84373524D01*
X178420080Y-84486365D01*
X179284152Y-83622292D01*
X179291049Y-83638942D01*
X179378599Y-83769970D01*
X179490030Y-83881401D01*
X179621058Y-83968951D01*
X179637705Y-83975846D01*
X178773633Y-84839917D01*
X178773633Y-84839918D01*
X178886475Y-84926505D01*
X178886483Y-84926511D01*
X179113517Y-85057590D01*
X179113528Y-85057595D01*
X179355744Y-85157924D01*
X179608979Y-85225777D01*
X179608990Y-85225779D01*
X179868905Y-85259999D01*
X179868920Y-85260000D01*
X180131080Y-85260000D01*
X180131094Y-85259999D01*
X180391009Y-85225779D01*
X180391020Y-85225777D01*
X180644255Y-85157924D01*
X180886471Y-85057595D01*
X180886482Y-85057590D01*
X181113524Y-84926506D01*
X181117078Y-84923779D01*
X181182245Y-84898581D01*
X181250691Y-84912614D01*
X181300684Y-84961425D01*
X181316352Y-85029515D01*
X181315510Y-85038335D01*
X181297501Y-85175125D01*
X181297500Y-85175141D01*
X181297500Y-85404872D01*
X181315907Y-85544682D01*
X181327486Y-85632629D01*
X181386944Y-85854530D01*
X181386947Y-85854540D01*
X181474856Y-86066770D01*
X181474861Y-86066781D01*
X181589718Y-86265718D01*
X181589729Y-86265734D01*
X181729572Y-86447981D01*
X181729578Y-86447988D01*
X181892011Y-86610421D01*
X181892017Y-86610426D01*
X182074274Y-86750277D01*
X182074281Y-86750281D01*
X182273218Y-86865138D01*
X182273223Y-86865140D01*
X182273226Y-86865142D01*
X182485469Y-86953056D01*
X182707371Y-87012514D01*
X182935135Y-87042500D01*
X182935142Y-87042500D01*
X183164858Y-87042500D01*
X183164865Y-87042500D01*
X183392629Y-87012514D01*
X183614531Y-86953056D01*
X183826774Y-86865142D01*
X184025726Y-86750277D01*
X184207983Y-86610426D01*
X184370426Y-86447983D01*
X184510277Y-86265726D01*
X184625142Y-86066774D01*
X184713056Y-85854531D01*
X184772514Y-85632629D01*
X184802500Y-85404865D01*
X184802500Y-85175135D01*
X184772514Y-84947371D01*
X184713056Y-84725469D01*
X184625142Y-84513226D01*
X184625140Y-84513223D01*
X184625138Y-84513218D01*
X184510281Y-84314281D01*
X184510277Y-84314274D01*
X184446010Y-84230520D01*
X184370427Y-84132018D01*
X184370421Y-84132011D01*
X184207988Y-83969578D01*
X184207981Y-83969572D01*
X184025734Y-83829729D01*
X184025732Y-83829727D01*
X184025726Y-83829723D01*
X184025721Y-83829720D01*
X184025718Y-83829718D01*
X183826781Y-83714861D01*
X183826770Y-83714856D01*
X183614540Y-83626947D01*
X183614533Y-83626945D01*
X183614531Y-83626944D01*
X183392629Y-83567486D01*
X183354564Y-83562474D01*
X183164872Y-83537500D01*
X183164865Y-83537500D01*
X182935135Y-83537500D01*
X182935127Y-83537500D01*
X182718335Y-83566042D01*
X182707371Y-83567486D01*
X182628699Y-83588566D01*
X182485469Y-83626944D01*
X182485459Y-83626947D01*
X182273229Y-83714856D01*
X182273218Y-83714861D01*
X182148530Y-83786850D01*
X182080629Y-83803323D01*
X182014603Y-83780470D01*
X181971412Y-83725549D01*
X181964771Y-83655995D01*
X181965001Y-83654997D01*
X181964987Y-83654995D01*
X181965779Y-83651009D01*
X181999999Y-83391094D01*
X182000000Y-83391080D01*
X182000000Y-83128919D01*
X181999999Y-83128905D01*
X181965779Y-82868990D01*
X181965777Y-82868979D01*
X181897924Y-82615744D01*
X181797595Y-82373528D01*
X181797590Y-82373517D01*
X181666511Y-82146483D01*
X181666505Y-82146475D01*
X181579918Y-82033633D01*
X181579917Y-82033633D01*
X180715846Y-82897705D01*
X180708951Y-82881058D01*
X180621401Y-82750030D01*
X180509970Y-82638599D01*
X180378942Y-82551049D01*
X180362292Y-82544152D01*
X181226365Y-81680080D01*
X181113524Y-81593494D01*
X181113516Y-81593488D01*
X180886482Y-81462409D01*
X180886466Y-81462401D01*
X180715199Y-81391461D01*
X180660795Y-81347620D01*
X180638730Y-81281326D01*
X180656009Y-81213627D01*
X180707146Y-81166016D01*
X180762651Y-81152900D01*
X194473100Y-81152900D01*
X194540139Y-81172585D01*
X194585894Y-81225389D01*
X194597100Y-81276900D01*
X194597100Y-100723100D01*
X194577415Y-100790139D01*
X194524611Y-100835894D01*
X194473100Y-100847100D01*
X180786794Y-100847100D01*
X180719755Y-100827415D01*
X180674000Y-100774611D01*
X180664056Y-100705453D01*
X180693081Y-100641897D01*
X180739341Y-100608539D01*
X180886471Y-100547595D01*
X180886482Y-100547590D01*
X181113516Y-100416511D01*
X181113534Y-100416499D01*
X181226365Y-100329919D01*
X181226365Y-100329917D01*
X180362294Y-99465846D01*
X180378942Y-99458951D01*
X180509970Y-99371401D01*
X180621401Y-99259970D01*
X180708951Y-99128942D01*
X180715846Y-99112293D01*
X181579917Y-99976365D01*
X181579919Y-99976365D01*
X181666499Y-99863534D01*
X181666511Y-99863516D01*
X181797590Y-99636482D01*
X181797595Y-99636471D01*
X181897924Y-99394255D01*
X181965777Y-99141020D01*
X181965779Y-99141009D01*
X181999999Y-98881094D01*
X182000000Y-98881080D01*
X182000000Y-98618919D01*
X181999999Y-98618905D01*
X181965779Y-98358990D01*
X181964987Y-98355005D01*
X181966999Y-98354604D01*
X181968343Y-98293014D01*
X182007391Y-98235074D01*
X182071565Y-98207442D01*
X182140490Y-98218892D01*
X182148530Y-98223149D01*
X182273218Y-98295138D01*
X182273223Y-98295140D01*
X182273226Y-98295142D01*
X182407060Y-98350578D01*
X182427368Y-98358990D01*
X182485469Y-98383056D01*
X182707371Y-98442514D01*
X182935135Y-98472500D01*
X182935142Y-98472500D01*
X183164858Y-98472500D01*
X183164865Y-98472500D01*
X183392629Y-98442514D01*
X183614531Y-98383056D01*
X183826774Y-98295142D01*
X184025726Y-98180277D01*
X184207983Y-98040426D01*
X184370426Y-97877983D01*
X184510277Y-97695726D01*
X184625142Y-97496774D01*
X184713056Y-97284531D01*
X184772514Y-97062629D01*
X184802500Y-96834865D01*
X184802500Y-96605135D01*
X184772514Y-96377371D01*
X184713056Y-96155469D01*
X184625142Y-95943226D01*
X184625140Y-95943223D01*
X184625138Y-95943218D01*
X184510281Y-95744281D01*
X184510277Y-95744274D01*
X184370426Y-95562017D01*
X184370421Y-95562011D01*
X184207988Y-95399578D01*
X184207981Y-95399572D01*
X184025734Y-95259729D01*
X184025732Y-95259727D01*
X184025726Y-95259723D01*
X184025721Y-95259720D01*
X184025718Y-95259718D01*
X183826781Y-95144861D01*
X183826770Y-95144856D01*
X183686120Y-95086597D01*
X183614540Y-95056947D01*
X183614533Y-95056945D01*
X183614531Y-95056944D01*
X183392629Y-94997486D01*
X183354564Y-94992474D01*
X183236286Y-94976902D01*
X185609500Y-94976902D01*
X185609500Y-95213097D01*
X185646446Y-95446368D01*
X185719433Y-95670996D01*
X185826657Y-95881433D01*
X185965483Y-96072510D01*
X186132490Y-96239517D01*
X186167127Y-96264683D01*
X186209792Y-96320013D01*
X186215771Y-96389626D01*
X186183165Y-96451421D01*
X186167130Y-96465315D01*
X186149365Y-96478222D01*
X186132488Y-96490484D01*
X185965485Y-96657487D01*
X185965485Y-96657488D01*
X185965483Y-96657490D01*
X185905862Y-96739550D01*
X185826657Y-96848566D01*
X185719433Y-97059003D01*
X185646446Y-97283631D01*
X185609500Y-97516902D01*
X185609500Y-97753097D01*
X185646446Y-97986368D01*
X185719433Y-98210996D01*
X185807101Y-98383052D01*
X185826657Y-98421433D01*
X185965483Y-98612510D01*
X186132490Y-98779517D01*
X186323567Y-98918343D01*
X186422991Y-98969002D01*
X186534003Y-99025566D01*
X186534005Y-99025566D01*
X186534008Y-99025568D01*
X186654412Y-99064689D01*
X186758631Y-99098553D01*
X186991903Y-99135500D01*
X186991908Y-99135500D01*
X187228097Y-99135500D01*
X187461368Y-99098553D01*
X187685992Y-99025568D01*
X187896433Y-98918343D01*
X188087510Y-98779517D01*
X188254517Y-98612510D01*
X188393343Y-98421433D01*
X188500568Y-98210992D01*
X188573553Y-97986368D01*
X188590719Y-97877988D01*
X188610500Y-97753097D01*
X188610500Y-97516902D01*
X188573553Y-97283631D01*
X188511598Y-97092955D01*
X188500568Y-97059008D01*
X188500566Y-97059005D01*
X188500566Y-97059003D01*
X188395130Y-96852075D01*
X188393343Y-96848567D01*
X188254517Y-96657490D01*
X188087510Y-96490483D01*
X188052872Y-96465317D01*
X188010207Y-96409989D01*
X188004228Y-96340375D01*
X188036833Y-96278580D01*
X188052873Y-96264682D01*
X188087510Y-96239517D01*
X188254517Y-96072510D01*
X188393343Y-95881433D01*
X188500568Y-95670992D01*
X188573553Y-95446368D01*
X188580964Y-95399578D01*
X188610500Y-95213097D01*
X188610500Y-94976902D01*
X188573553Y-94743631D01*
X188500566Y-94519003D01*
X188393342Y-94308566D01*
X188392692Y-94307671D01*
X188254517Y-94117490D01*
X188087510Y-93950483D01*
X187896433Y-93811657D01*
X187685996Y-93704433D01*
X187461368Y-93631446D01*
X187228097Y-93594500D01*
X187228092Y-93594500D01*
X186991908Y-93594500D01*
X186991903Y-93594500D01*
X186758631Y-93631446D01*
X186534003Y-93704433D01*
X186323566Y-93811657D01*
X186267972Y-93852049D01*
X186132490Y-93950483D01*
X186132488Y-93950485D01*
X186132487Y-93950485D01*
X185965485Y-94117487D01*
X185965485Y-94117488D01*
X185965483Y-94117490D01*
X185911020Y-94192452D01*
X185826657Y-94308566D01*
X185719433Y-94519003D01*
X185646446Y-94743631D01*
X185609500Y-94976902D01*
X183236286Y-94976902D01*
X183164872Y-94967500D01*
X183164865Y-94967500D01*
X182935135Y-94967500D01*
X182935127Y-94967500D01*
X182718335Y-94996042D01*
X182707371Y-94997486D01*
X182485469Y-95056944D01*
X182485459Y-95056947D01*
X182273229Y-95144856D01*
X182273218Y-95144861D01*
X182074281Y-95259718D01*
X182074265Y-95259729D01*
X181892018Y-95399572D01*
X181892011Y-95399578D01*
X181729578Y-95562011D01*
X181729572Y-95562018D01*
X181589729Y-95744265D01*
X181589718Y-95744281D01*
X181474861Y-95943218D01*
X181474856Y-95943229D01*
X181386947Y-96155459D01*
X181386944Y-96155469D01*
X181327487Y-96377368D01*
X181327485Y-96377379D01*
X181297500Y-96605127D01*
X181297500Y-96834872D01*
X181315510Y-96971663D01*
X181304745Y-97040699D01*
X181258365Y-97092955D01*
X181191096Y-97111840D01*
X181124295Y-97091359D01*
X181117087Y-97086227D01*
X181113526Y-97083494D01*
X180886482Y-96952409D01*
X180886471Y-96952404D01*
X180644255Y-96852075D01*
X180391020Y-96784222D01*
X180391009Y-96784220D01*
X180131094Y-96750000D01*
X179868905Y-96750000D01*
X179608990Y-96784220D01*
X179608979Y-96784222D01*
X179355744Y-96852075D01*
X179113528Y-96952404D01*
X179113517Y-96952409D01*
X178886471Y-97083496D01*
X178773633Y-97170079D01*
X178773633Y-97170080D01*
X179637706Y-98034152D01*
X179621058Y-98041049D01*
X179490030Y-98128599D01*
X179378599Y-98240030D01*
X179291049Y-98371058D01*
X179284153Y-98387706D01*
X178420080Y-97523633D01*
X178420079Y-97523633D01*
X178333496Y-97636471D01*
X178202409Y-97863517D01*
X178202404Y-97863528D01*
X178102075Y-98105744D01*
X178034222Y-98358979D01*
X178034220Y-98358990D01*
X178000000Y-98618905D01*
X178000000Y-98881094D01*
X178034220Y-99141009D01*
X178034222Y-99141020D01*
X178102075Y-99394255D01*
X178202404Y-99636471D01*
X178202409Y-99636482D01*
X178333488Y-99863516D01*
X178333494Y-99863524D01*
X178420080Y-99976365D01*
X179284152Y-99112292D01*
X179291049Y-99128942D01*
X179378599Y-99259970D01*
X179490030Y-99371401D01*
X179621058Y-99458951D01*
X179637705Y-99465846D01*
X178773633Y-100329917D01*
X178773633Y-100329918D01*
X178886475Y-100416505D01*
X178886483Y-100416511D01*
X179113517Y-100547590D01*
X179113528Y-100547595D01*
X179260659Y-100608539D01*
X179315062Y-100652380D01*
X179337127Y-100718674D01*
X179319848Y-100786373D01*
X179268711Y-100833984D01*
X179213206Y-100847100D01*
X171124000Y-100847100D01*
X171056961Y-100827415D01*
X171011206Y-100774611D01*
X171000000Y-100723100D01*
X171000000Y-93724500D01*
X171019685Y-93657461D01*
X171072489Y-93611706D01*
X171124000Y-93600500D01*
X172373331Y-93600500D01*
X172373347Y-93600501D01*
X172380943Y-93600501D01*
X172539054Y-93600501D01*
X172539057Y-93600501D01*
X172687227Y-93560798D01*
X172757074Y-93562461D01*
X172814936Y-93601623D01*
X172842441Y-93665851D01*
X172837249Y-93718890D01*
X172793985Y-93852045D01*
X172778394Y-93950485D01*
X172759500Y-94069778D01*
X172759500Y-94290222D01*
X172762406Y-94308567D01*
X172793985Y-94507952D01*
X172862103Y-94717603D01*
X172862104Y-94717606D01*
X172962187Y-94914025D01*
X173091752Y-95092358D01*
X173091756Y-95092363D01*
X173247636Y-95248243D01*
X173247641Y-95248247D01*
X173334866Y-95311619D01*
X173425978Y-95377815D01*
X173554375Y-95443237D01*
X173622393Y-95477895D01*
X173622396Y-95477896D01*
X173727221Y-95511955D01*
X173832049Y-95546015D01*
X174049778Y-95580500D01*
X174049779Y-95580500D01*
X174270221Y-95580500D01*
X174270222Y-95580500D01*
X174487951Y-95546015D01*
X174697606Y-95477895D01*
X174894022Y-95377815D01*
X175072365Y-95248242D01*
X175087820Y-95232786D01*
X175149139Y-95199302D01*
X175218830Y-95204285D01*
X175274765Y-95246155D01*
X175299184Y-95311619D01*
X175299500Y-95320468D01*
X175299500Y-96397870D01*
X175299501Y-96397876D01*
X175305908Y-96457483D01*
X175356202Y-96592328D01*
X175356206Y-96592335D01*
X175442452Y-96707544D01*
X175442455Y-96707547D01*
X175557664Y-96793793D01*
X175557671Y-96793797D01*
X175692517Y-96844091D01*
X175692516Y-96844091D01*
X175699444Y-96844835D01*
X175752127Y-96850500D01*
X177647872Y-96850499D01*
X177707483Y-96844091D01*
X177842331Y-96793796D01*
X177957546Y-96707546D01*
X178043796Y-96592331D01*
X178094091Y-96457483D01*
X178100500Y-96397873D01*
X178100499Y-94502128D01*
X178094091Y-94442517D01*
X178043796Y-94307669D01*
X178043795Y-94307668D01*
X178043793Y-94307664D01*
X177957547Y-94192455D01*
X177957544Y-94192452D01*
X177842335Y-94106206D01*
X177842328Y-94106202D01*
X177762419Y-94076398D01*
X177706485Y-94034527D01*
X177682068Y-93969062D01*
X177696920Y-93900789D01*
X177718069Y-93872537D01*
X177768242Y-93822365D01*
X177897815Y-93644022D01*
X177997895Y-93447606D01*
X178066015Y-93237951D01*
X178100500Y-93020222D01*
X178100500Y-92799778D01*
X178066015Y-92582049D01*
X178006702Y-92399500D01*
X177997896Y-92372396D01*
X177997895Y-92372393D01*
X177963237Y-92304375D01*
X177897815Y-92175978D01*
X177780334Y-92014278D01*
X177768247Y-91997641D01*
X177768243Y-91997636D01*
X177612363Y-91841756D01*
X177612358Y-91841752D01*
X177472745Y-91740318D01*
X177430079Y-91684989D01*
X177424100Y-91615375D01*
X177456705Y-91553580D01*
X177472745Y-91539682D01*
X177612358Y-91438247D01*
X177612356Y-91438247D01*
X177612365Y-91438242D01*
X177768242Y-91282365D01*
X177897815Y-91104022D01*
X177997895Y-90907606D01*
X178008104Y-90876183D01*
X178047541Y-90818508D01*
X178111899Y-90791308D01*
X178126036Y-90790500D01*
X183408331Y-90790500D01*
X183408347Y-90790501D01*
X183415943Y-90790501D01*
X183574054Y-90790501D01*
X183574057Y-90790501D01*
X183726785Y-90749577D01*
X183776904Y-90720639D01*
X183863716Y-90670520D01*
X183975520Y-90558716D01*
X183975520Y-90558714D01*
X183985728Y-90548507D01*
X183985730Y-90548504D01*
X186268028Y-88266205D01*
X186329349Y-88232722D01*
X186399041Y-88237706D01*
X186412002Y-88243403D01*
X186534003Y-88305566D01*
X186534005Y-88305566D01*
X186534008Y-88305568D01*
X186654412Y-88344689D01*
X186758631Y-88378553D01*
X186991903Y-88415500D01*
X186991908Y-88415500D01*
X187228097Y-88415500D01*
X187461368Y-88378553D01*
X187495059Y-88367606D01*
X187685992Y-88305568D01*
X187896433Y-88198343D01*
X188087510Y-88059517D01*
X188254517Y-87892510D01*
X188393343Y-87701433D01*
X188500568Y-87490992D01*
X188573553Y-87266368D01*
X188593972Y-87137448D01*
X188610500Y-87033097D01*
X188610500Y-86796902D01*
X188573553Y-86563631D01*
X188500566Y-86339003D01*
X188393342Y-86128566D01*
X188383486Y-86115000D01*
X188254517Y-85937490D01*
X188087510Y-85770483D01*
X188052872Y-85745317D01*
X188010207Y-85689989D01*
X188004228Y-85620375D01*
X188036833Y-85558580D01*
X188052873Y-85544682D01*
X188087510Y-85519517D01*
X188254517Y-85352510D01*
X188393343Y-85161433D01*
X188500568Y-84950992D01*
X188573553Y-84726368D01*
X188601408Y-84550500D01*
X188610500Y-84493097D01*
X188610500Y-84256902D01*
X188573553Y-84023631D01*
X188510546Y-83829718D01*
X188500568Y-83799008D01*
X188500566Y-83799005D01*
X188500566Y-83799003D01*
X188419010Y-83638942D01*
X188393343Y-83588567D01*
X188254517Y-83397490D01*
X188087510Y-83230483D01*
X187896433Y-83091657D01*
X187685996Y-82984433D01*
X187461368Y-82911446D01*
X187228097Y-82874500D01*
X187228092Y-82874500D01*
X186991908Y-82874500D01*
X186991903Y-82874500D01*
X186758631Y-82911446D01*
X186534003Y-82984433D01*
X186323566Y-83091657D01*
X186272280Y-83128919D01*
X186132490Y-83230483D01*
X186132488Y-83230485D01*
X186132487Y-83230485D01*
X185965485Y-83397487D01*
X185965485Y-83397488D01*
X185965483Y-83397490D01*
X185905862Y-83479550D01*
X185826657Y-83588566D01*
X185719433Y-83799003D01*
X185646446Y-84023631D01*
X185609500Y-84256902D01*
X185609500Y-84493097D01*
X185646446Y-84726368D01*
X185719433Y-84950996D01*
X185824869Y-85157924D01*
X185826657Y-85161433D01*
X185965483Y-85352510D01*
X186132490Y-85519517D01*
X186167127Y-85544683D01*
X186209792Y-85600013D01*
X186215771Y-85669626D01*
X186183165Y-85731421D01*
X186167130Y-85745315D01*
X186149365Y-85758222D01*
X186132488Y-85770484D01*
X185965485Y-85937487D01*
X185965485Y-85937488D01*
X185965483Y-85937490D01*
X185905862Y-86019550D01*
X185826657Y-86128566D01*
X185719433Y-86339003D01*
X185646446Y-86563631D01*
X185609500Y-86796902D01*
X185609500Y-87033097D01*
X185626028Y-87137448D01*
X185617074Y-87206741D01*
X185591236Y-87244527D01*
X183282584Y-89553181D01*
X183221261Y-89586666D01*
X183194903Y-89589500D01*
X177927228Y-89589500D01*
X177860189Y-89569815D01*
X177826909Y-89538384D01*
X177768245Y-89457638D01*
X177612363Y-89301756D01*
X177612358Y-89301752D01*
X177472745Y-89200318D01*
X177430079Y-89144989D01*
X177424100Y-89075375D01*
X177456705Y-89013580D01*
X177472745Y-88999682D01*
X177612358Y-88898247D01*
X177612356Y-88898247D01*
X177612365Y-88898242D01*
X177768242Y-88742365D01*
X177897815Y-88564022D01*
X177997895Y-88367606D01*
X178066015Y-88157951D01*
X178100500Y-87940222D01*
X178100500Y-87719778D01*
X178066015Y-87502049D01*
X178019053Y-87357513D01*
X177997896Y-87292396D01*
X177997895Y-87292393D01*
X177918945Y-87137448D01*
X177897815Y-87095978D01*
X177858961Y-87042500D01*
X177768247Y-86917641D01*
X177768243Y-86917636D01*
X177612363Y-86761756D01*
X177612358Y-86761752D01*
X177434025Y-86632187D01*
X177434024Y-86632186D01*
X177434022Y-86632185D01*
X177371096Y-86600122D01*
X177237606Y-86532104D01*
X177237603Y-86532103D01*
X177027952Y-86463985D01*
X176919086Y-86446742D01*
X176810222Y-86429500D01*
X176589778Y-86429500D01*
X176517201Y-86440995D01*
X176372047Y-86463985D01*
X176162396Y-86532103D01*
X176162393Y-86532104D01*
X175965974Y-86632187D01*
X175787641Y-86761752D01*
X175787635Y-86761757D01*
X175769779Y-86779613D01*
X175708455Y-86813097D01*
X175638764Y-86808111D01*
X175582831Y-86766238D01*
X175558416Y-86700773D01*
X175559628Y-86672521D01*
X175560000Y-86670173D01*
X175560000Y-86449818D01*
X175525526Y-86232164D01*
X175457432Y-86022589D01*
X175357388Y-85826243D01*
X175311066Y-85762485D01*
X175311065Y-85762485D01*
X174598055Y-86475496D01*
X174574674Y-86388236D01*
X174516089Y-86286764D01*
X174433236Y-86203911D01*
X174331764Y-86145326D01*
X174244500Y-86121944D01*
X174957513Y-85408932D01*
X174893756Y-85362611D01*
X174697410Y-85262567D01*
X174487835Y-85194473D01*
X174270181Y-85160000D01*
X174049819Y-85160000D01*
X173832164Y-85194473D01*
X173622589Y-85262567D01*
X173426233Y-85362616D01*
X173362485Y-85408931D01*
X173362485Y-85408932D01*
X174075497Y-86121944D01*
X173988236Y-86145326D01*
X173886764Y-86203911D01*
X173803911Y-86286764D01*
X173745326Y-86388236D01*
X173721944Y-86475497D01*
X173008932Y-85762485D01*
X173008931Y-85762485D01*
X172962616Y-85826233D01*
X172862567Y-86022589D01*
X172794473Y-86232164D01*
X172760000Y-86449818D01*
X172760000Y-86670181D01*
X172794473Y-86887835D01*
X172862567Y-87097410D01*
X172962611Y-87293756D01*
X173008932Y-87357513D01*
X173721944Y-86644501D01*
X173745326Y-86731764D01*
X173803911Y-86833236D01*
X173886764Y-86916089D01*
X173988236Y-86974674D01*
X174075497Y-86998055D01*
X173362485Y-87711065D01*
X173362485Y-87711066D01*
X173387680Y-87729371D01*
X173430346Y-87784701D01*
X173436325Y-87854314D01*
X173403720Y-87916110D01*
X173387681Y-87930008D01*
X173247636Y-88031756D01*
X173091756Y-88187636D01*
X173091752Y-88187641D01*
X172962187Y-88365974D01*
X172862104Y-88562393D01*
X172862103Y-88562396D01*
X172793985Y-88772047D01*
X172779515Y-88863407D01*
X172759500Y-88989778D01*
X172759500Y-89210222D01*
X172773997Y-89301752D01*
X172793985Y-89427952D01*
X172862103Y-89637603D01*
X172862104Y-89637606D01*
X172930122Y-89771096D01*
X172961355Y-89832394D01*
X172962187Y-89834025D01*
X173091752Y-90012358D01*
X173091756Y-90012363D01*
X173247636Y-90168243D01*
X173247641Y-90168247D01*
X173387254Y-90269682D01*
X173429920Y-90325012D01*
X173435899Y-90394625D01*
X173403293Y-90456420D01*
X173387254Y-90470318D01*
X173247641Y-90571752D01*
X173247636Y-90571756D01*
X173091756Y-90727636D01*
X173091752Y-90727641D01*
X172962187Y-90905974D01*
X172862104Y-91102393D01*
X172862103Y-91102396D01*
X172793985Y-91312047D01*
X172759500Y-91529778D01*
X172759500Y-91750226D01*
X172763431Y-91775045D01*
X172754477Y-91844338D01*
X172728639Y-91882124D01*
X172247584Y-92363181D01*
X172186261Y-92396666D01*
X172159903Y-92399500D01*
X171124000Y-92399500D01*
X171056961Y-92379815D01*
X171011206Y-92327011D01*
X171000000Y-92275500D01*
X171000000Y-84667947D01*
X171019685Y-84600908D01*
X171072489Y-84555153D01*
X171099809Y-84546330D01*
X171168435Y-84532678D01*
X171233497Y-84519737D01*
X171379179Y-84459394D01*
X171510289Y-84371789D01*
X171621789Y-84260289D01*
X171709394Y-84129179D01*
X171769737Y-83983497D01*
X171800500Y-83828842D01*
X171800500Y-83671158D01*
X171800500Y-83671155D01*
X171800499Y-83671153D01*
X171791705Y-83626944D01*
X171769737Y-83516503D01*
X171720440Y-83397488D01*
X171709397Y-83370827D01*
X171709390Y-83370814D01*
X171621789Y-83239711D01*
X171621786Y-83239707D01*
X171510292Y-83128213D01*
X171510288Y-83128210D01*
X171379185Y-83040609D01*
X171379172Y-83040602D01*
X171233501Y-82980264D01*
X171233491Y-82980261D01*
X171099808Y-82953669D01*
X171037897Y-82921284D01*
X171003323Y-82860568D01*
X171000000Y-82832052D01*
X171000000Y-81276900D01*
X171019685Y-81209861D01*
X171072489Y-81164106D01*
X171124000Y-81152900D01*
X179237349Y-81152900D01*
X179304388Y-81172585D01*
G37*
%TD.AperFunction*%
%TA.AperFunction,Conductor*%
G36*
X175310078Y-87356526D02*
G01*
X175343563Y-87417849D01*
X175340329Y-87482523D01*
X175333984Y-87502049D01*
X175299500Y-87719778D01*
X175299500Y-87940224D01*
X175299772Y-87941942D01*
X175299687Y-87942598D01*
X175299882Y-87945073D01*
X175299361Y-87945113D01*
X175290810Y-88011235D01*
X175245809Y-88064682D01*
X175179055Y-88085316D01*
X175111743Y-88066584D01*
X175089616Y-88049009D01*
X175072363Y-88031756D01*
X175072358Y-88031752D01*
X174932319Y-87930008D01*
X174889653Y-87874678D01*
X174883674Y-87805065D01*
X174916279Y-87743270D01*
X174932319Y-87729372D01*
X174957513Y-87711066D01*
X174957514Y-87711066D01*
X174244502Y-86998055D01*
X174331764Y-86974674D01*
X174433236Y-86916089D01*
X174516089Y-86833236D01*
X174574674Y-86731764D01*
X174598055Y-86644502D01*
X175310078Y-87356526D01*
G37*
%TD.AperFunction*%
%TD*%
%TA.AperFunction,Conductor*%
%TO.N,GND*%
G36*
X122893671Y-95201358D02*
G01*
X122904702Y-95211149D01*
X123410269Y-95716717D01*
X123410269Y-95716716D01*
X123410270Y-95716717D01*
X123410270Y-95716716D01*
X123423738Y-95711137D01*
X123429955Y-95689967D01*
X123433941Y-95684135D01*
X123449622Y-95662554D01*
X123449626Y-95662544D01*
X123450605Y-95660949D01*
X123466172Y-95640609D01*
X123475648Y-95630575D01*
X123535984Y-95595355D01*
X123605790Y-95598345D01*
X123659507Y-95634514D01*
X123665577Y-95641519D01*
X123677207Y-95658770D01*
X123677826Y-95658391D01*
X123680373Y-95662548D01*
X123719727Y-95716715D01*
X123719728Y-95716716D01*
X124225297Y-95211147D01*
X124286619Y-95177663D01*
X124356311Y-95182647D01*
X124412244Y-95224519D01*
X124420363Y-95236828D01*
X124434896Y-95262000D01*
X124434899Y-95262004D01*
X124434901Y-95262007D01*
X124527993Y-95355099D01*
X124553169Y-95369634D01*
X124601384Y-95420202D01*
X124614606Y-95488809D01*
X124588638Y-95553673D01*
X124578849Y-95564702D01*
X124073282Y-96070268D01*
X124073281Y-96070269D01*
X124081373Y-96086149D01*
X124120612Y-96106142D01*
X124149450Y-96126469D01*
X124158868Y-96135363D01*
X124194092Y-96195700D01*
X124191104Y-96265505D01*
X124154932Y-96319229D01*
X124147929Y-96325297D01*
X124130944Y-96336776D01*
X124131331Y-96337407D01*
X124127172Y-96339955D01*
X123955216Y-96464886D01*
X123804892Y-96615210D01*
X123787091Y-96639711D01*
X123679949Y-96787182D01*
X123679948Y-96787183D01*
X123679945Y-96787188D01*
X123679634Y-96787696D01*
X123678499Y-96789177D01*
X123677085Y-96791125D01*
X123677036Y-96791089D01*
X123664060Y-96808041D01*
X123654353Y-96818319D01*
X123594011Y-96853542D01*
X123524205Y-96850550D01*
X123470488Y-96814378D01*
X123464285Y-96807219D01*
X123452274Y-96790811D01*
X123450053Y-96787187D01*
X123450051Y-96787184D01*
X123450050Y-96787182D01*
X123325109Y-96615213D01*
X123174786Y-96464890D01*
X123002817Y-96339949D01*
X123002812Y-96339946D01*
X123001584Y-96339194D01*
X122981242Y-96323624D01*
X122971127Y-96314071D01*
X122935906Y-96253734D01*
X122938896Y-96183929D01*
X122975066Y-96130210D01*
X122982122Y-96124096D01*
X122998537Y-96112083D01*
X123002542Y-96109628D01*
X123002555Y-96109622D01*
X123024119Y-96093953D01*
X123050858Y-96084412D01*
X123056717Y-96070269D01*
X122551149Y-95564702D01*
X122517664Y-95503379D01*
X122522648Y-95433688D01*
X122564519Y-95377754D01*
X122576822Y-95369639D01*
X122602007Y-95355099D01*
X122695099Y-95262007D01*
X122709634Y-95236830D01*
X122760199Y-95188616D01*
X122828805Y-95175391D01*
X122893671Y-95201358D01*
G37*
%TD.AperFunction*%
%TA.AperFunction,Conductor*%
G36*
X123605791Y-93059447D02*
G01*
X123659503Y-93095612D01*
X123665707Y-93102771D01*
X123666509Y-93104527D01*
X123677729Y-93119193D01*
X123679948Y-93122815D01*
X123679951Y-93122820D01*
X123804890Y-93294786D01*
X123804892Y-93294788D01*
X123955216Y-93445112D01*
X124127900Y-93570573D01*
X124129387Y-93571520D01*
X124130225Y-93572079D01*
X124130142Y-93572202D01*
X124131311Y-93573051D01*
X124131195Y-93573209D01*
X124148741Y-93586361D01*
X124158865Y-93595921D01*
X124194091Y-93656259D01*
X124191105Y-93726065D01*
X124154938Y-93779785D01*
X124147614Y-93786132D01*
X124129059Y-93799432D01*
X124127440Y-93800379D01*
X124073282Y-93839726D01*
X124073281Y-93839727D01*
X124578850Y-94345296D01*
X124612335Y-94406619D01*
X124607351Y-94476311D01*
X124565479Y-94532244D01*
X124553173Y-94540362D01*
X124527996Y-94554898D01*
X124527990Y-94554903D01*
X124434903Y-94647990D01*
X124434898Y-94647996D01*
X124420362Y-94673173D01*
X124369793Y-94721387D01*
X124301185Y-94734607D01*
X124236322Y-94708637D01*
X124225296Y-94698850D01*
X123719728Y-94193282D01*
X123719727Y-94193282D01*
X123680378Y-94247442D01*
X123679386Y-94249060D01*
X123663810Y-94269408D01*
X123654350Y-94279424D01*
X123594007Y-94314646D01*
X123524201Y-94311652D01*
X123470492Y-94275486D01*
X123464415Y-94268472D01*
X123452814Y-94251216D01*
X123452174Y-94251609D01*
X123449630Y-94247458D01*
X123449623Y-94247449D01*
X123410270Y-94193282D01*
X123410268Y-94193282D01*
X122904702Y-94698849D01*
X122843379Y-94732334D01*
X122773687Y-94727350D01*
X122717754Y-94685478D01*
X122709634Y-94673169D01*
X122708473Y-94671158D01*
X122695099Y-94647993D01*
X122602007Y-94554901D01*
X122602004Y-94554899D01*
X122602000Y-94554896D01*
X122576828Y-94540363D01*
X122528613Y-94489796D01*
X122515391Y-94421189D01*
X122541359Y-94356324D01*
X122551135Y-94345310D01*
X123056716Y-93839728D01*
X123056713Y-93839726D01*
X123022501Y-93814870D01*
X123016998Y-93807734D01*
X123009388Y-93803857D01*
X122980539Y-93783521D01*
X122976583Y-93779785D01*
X122971128Y-93774633D01*
X122935905Y-93714292D01*
X122938897Y-93644487D01*
X122975070Y-93590767D01*
X122982084Y-93584690D01*
X122999083Y-93573282D01*
X122998663Y-93572596D01*
X123002814Y-93570052D01*
X123002813Y-93570052D01*
X123002816Y-93570051D01*
X123082007Y-93512515D01*
X123174786Y-93445109D01*
X123174787Y-93445107D01*
X123174846Y-93445064D01*
X123175605Y-93444290D01*
X123324290Y-93295605D01*
X123325065Y-93294845D01*
X123325124Y-93294765D01*
X123328144Y-93290609D01*
X123385752Y-93211317D01*
X123444315Y-93130712D01*
X123444321Y-93130704D01*
X123455782Y-93114928D01*
X123458062Y-93111789D01*
X123468229Y-93099531D01*
X123475647Y-93091678D01*
X123535985Y-93056457D01*
X123605791Y-93059447D01*
G37*
%TD.AperFunction*%
%TA.AperFunction,Conductor*%
G36*
X170437539Y-81172585D02*
G01*
X170483294Y-81225389D01*
X170494500Y-81276900D01*
X170494500Y-82832064D01*
X170497896Y-82890542D01*
X170497900Y-82890592D01*
X170501066Y-82917752D01*
X170501221Y-82919079D01*
X170511371Y-82976817D01*
X170511371Y-82976819D01*
X170511372Y-82976820D01*
X170512664Y-82980103D01*
X170512835Y-82982015D01*
X170513060Y-82982814D01*
X170512910Y-82982856D01*
X170518890Y-83049695D01*
X170486503Y-83111605D01*
X170425786Y-83146177D01*
X170397273Y-83149500D01*
X156088621Y-83149500D01*
X156088558Y-83149499D01*
X156086654Y-83149499D01*
X156079058Y-83149499D01*
X155920943Y-83149499D01*
X155844578Y-83169960D01*
X155844579Y-83169961D01*
X155768217Y-83190422D01*
X155768215Y-83190422D01*
X155768214Y-83190423D01*
X155768212Y-83190423D01*
X155768143Y-83190453D01*
X155767334Y-83190930D01*
X155631298Y-83269470D01*
X155631280Y-83269482D01*
X155497945Y-83402818D01*
X155469689Y-83423970D01*
X155440593Y-83439857D01*
X155405360Y-83452641D01*
X155266513Y-83480259D01*
X155266504Y-83480262D01*
X155266498Y-83480264D01*
X155266493Y-83480265D01*
X155266475Y-83480272D01*
X155120833Y-83540598D01*
X155120824Y-83540603D01*
X155120807Y-83540613D01*
X154989708Y-83628211D01*
X154989707Y-83628212D01*
X154989701Y-83628217D01*
X154878217Y-83739701D01*
X154878212Y-83739707D01*
X154878211Y-83739708D01*
X154790613Y-83870807D01*
X154790603Y-83870824D01*
X154790598Y-83870833D01*
X154730264Y-84016496D01*
X154730257Y-84016527D01*
X154699500Y-84171150D01*
X154699500Y-84171153D01*
X154699500Y-84328846D01*
X154699500Y-84328848D01*
X154699499Y-84328848D01*
X154730257Y-84483471D01*
X154730263Y-84483497D01*
X154730263Y-84483500D01*
X154790596Y-84629158D01*
X154790604Y-84629176D01*
X154790613Y-84629191D01*
X154878211Y-84760290D01*
X154878212Y-84760291D01*
X154878217Y-84760297D01*
X154989701Y-84871781D01*
X154989707Y-84871786D01*
X154989711Y-84871789D01*
X155120814Y-84959390D01*
X155120827Y-84959397D01*
X155266498Y-85019735D01*
X155266503Y-85019737D01*
X155413513Y-85048979D01*
X155416247Y-85049703D01*
X155421155Y-85050500D01*
X155578844Y-85050500D01*
X155582964Y-85050500D01*
X155590814Y-85048118D01*
X155733497Y-85019737D01*
X155879179Y-84959394D01*
X156010289Y-84871789D01*
X156121789Y-84760289D01*
X156209394Y-84629179D01*
X156269737Y-84483497D01*
X156272860Y-84467796D01*
X156284602Y-84434512D01*
X156291849Y-84420658D01*
X156340362Y-84370381D01*
X156346757Y-84366739D01*
X156408107Y-84350500D01*
X170400725Y-84350500D01*
X170467764Y-84370185D01*
X170513519Y-84422989D01*
X170523463Y-84492147D01*
X170519701Y-84509438D01*
X170514977Y-84525524D01*
X170494500Y-84667948D01*
X170494500Y-92275500D01*
X170474815Y-92342539D01*
X170422011Y-92388294D01*
X170370500Y-92399500D01*
X162742330Y-92399500D01*
X162707389Y-92394475D01*
X162692390Y-92390070D01*
X162633644Y-92352327D01*
X162632457Y-92350958D01*
X162604977Y-92296083D01*
X162603332Y-92288521D01*
X162600500Y-92262168D01*
X162600500Y-86997594D01*
X162605521Y-86962664D01*
X162614864Y-86930845D01*
X162630736Y-86896898D01*
X162643222Y-86878213D01*
X162709394Y-86779179D01*
X162769737Y-86633497D01*
X162796910Y-86496891D01*
X162800500Y-86478843D01*
X162800500Y-86320971D01*
X162800064Y-86318966D01*
X162790221Y-86269481D01*
X162769739Y-86166511D01*
X162769738Y-86166509D01*
X162769737Y-86166503D01*
X162769735Y-86166498D01*
X162709397Y-86020827D01*
X162709390Y-86020814D01*
X162621789Y-85889711D01*
X162621786Y-85889707D01*
X162621781Y-85889701D01*
X162510297Y-85778217D01*
X162510291Y-85778212D01*
X162510290Y-85778211D01*
X162379191Y-85690613D01*
X162379190Y-85690612D01*
X162379185Y-85690609D01*
X162379172Y-85690602D01*
X162379165Y-85690598D01*
X162233502Y-85630264D01*
X162233471Y-85630257D01*
X162078847Y-85599500D01*
X162078845Y-85599500D01*
X162078842Y-85599500D01*
X161921158Y-85599500D01*
X161921155Y-85599500D01*
X161921153Y-85599500D01*
X161766527Y-85630257D01*
X161766496Y-85630264D01*
X161620833Y-85690598D01*
X161620824Y-85690603D01*
X161620807Y-85690613D01*
X161489708Y-85778211D01*
X161489707Y-85778212D01*
X161489701Y-85778217D01*
X161378217Y-85889701D01*
X161378212Y-85889707D01*
X161378211Y-85889708D01*
X161290606Y-86020816D01*
X161289908Y-86022242D01*
X161288923Y-86024883D01*
X161275834Y-86056482D01*
X161257828Y-86086830D01*
X161248020Y-86099002D01*
X161190631Y-86138852D01*
X161177714Y-86143152D01*
X161138548Y-86149500D01*
X158570943Y-86149500D01*
X158418215Y-86190423D01*
X158418205Y-86190427D01*
X158281288Y-86269476D01*
X158281285Y-86269477D01*
X158281285Y-86269478D01*
X157897946Y-86652817D01*
X157869693Y-86673967D01*
X157840599Y-86689854D01*
X157805363Y-86702640D01*
X157666515Y-86730259D01*
X157666509Y-86730260D01*
X157666508Y-86730261D01*
X157666498Y-86730264D01*
X157666493Y-86730265D01*
X157666475Y-86730272D01*
X157520833Y-86790598D01*
X157520824Y-86790603D01*
X157520807Y-86790613D01*
X157389714Y-86878208D01*
X157389707Y-86878212D01*
X157389705Y-86878214D01*
X157278217Y-86989701D01*
X157278212Y-86989707D01*
X157278211Y-86989708D01*
X157190613Y-87120807D01*
X157190603Y-87120824D01*
X157190598Y-87120833D01*
X157130264Y-87266496D01*
X157130257Y-87266527D01*
X157099500Y-87421150D01*
X157099500Y-87421153D01*
X157099500Y-87578846D01*
X157099500Y-87578848D01*
X157099499Y-87578848D01*
X157130257Y-87733471D01*
X157130261Y-87733489D01*
X157130264Y-87733500D01*
X157130263Y-87733500D01*
X157190598Y-87879165D01*
X157190602Y-87879172D01*
X157190607Y-87879182D01*
X157190613Y-87879191D01*
X157278211Y-88010290D01*
X157278212Y-88010291D01*
X157278217Y-88010297D01*
X157389701Y-88121781D01*
X157389707Y-88121786D01*
X157389711Y-88121789D01*
X157520814Y-88209390D01*
X157520827Y-88209397D01*
X157520829Y-88209397D01*
X157520833Y-88209400D01*
X157625914Y-88252925D01*
X157642802Y-88259920D01*
X157646537Y-88261467D01*
X157666500Y-88269736D01*
X157666505Y-88269738D01*
X157769075Y-88290140D01*
X157813513Y-88298979D01*
X157816247Y-88299703D01*
X157821155Y-88300500D01*
X157978844Y-88300500D01*
X157982964Y-88300500D01*
X157990814Y-88298118D01*
X158133497Y-88269737D01*
X158266147Y-88214792D01*
X158272620Y-88212110D01*
X158275413Y-88211137D01*
X158276871Y-88210462D01*
X158281532Y-88208419D01*
X158290790Y-88204584D01*
X158299675Y-88195698D01*
X158410289Y-88121789D01*
X158521789Y-88010289D01*
X158609394Y-87879179D01*
X158616920Y-87861010D01*
X158669736Y-87733500D01*
X158669738Y-87733491D01*
X158689899Y-87632138D01*
X158697160Y-87595631D01*
X158708901Y-87562354D01*
X158724268Y-87532977D01*
X158746459Y-87502774D01*
X158849811Y-87399422D01*
X158878066Y-87378272D01*
X158901154Y-87365666D01*
X158960577Y-87350500D01*
X161257670Y-87350500D01*
X161292606Y-87355523D01*
X161307604Y-87359927D01*
X161366355Y-87397672D01*
X161367542Y-87399041D01*
X161395018Y-87453902D01*
X161396663Y-87461460D01*
X161399500Y-87487831D01*
X161399500Y-93661590D01*
X161399499Y-93661664D01*
X161399499Y-93841400D01*
X161399500Y-93841451D01*
X161399500Y-94002404D01*
X161394476Y-94037341D01*
X161385136Y-94069148D01*
X161369262Y-94103102D01*
X161290613Y-94220807D01*
X161290603Y-94220824D01*
X161290598Y-94220833D01*
X161230264Y-94366496D01*
X161230257Y-94366527D01*
X161199500Y-94521150D01*
X161199500Y-94521153D01*
X161199500Y-94678846D01*
X161199500Y-94678848D01*
X161199499Y-94678848D01*
X161230257Y-94833471D01*
X161230264Y-94833502D01*
X161290598Y-94979165D01*
X161290602Y-94979172D01*
X161290609Y-94979185D01*
X161368697Y-95096050D01*
X161383928Y-95127886D01*
X161393834Y-95159522D01*
X161399500Y-95196575D01*
X161399500Y-96182071D01*
X161394476Y-96217008D01*
X161387064Y-96242249D01*
X161355769Y-96294993D01*
X160506862Y-97143899D01*
X160478609Y-97165050D01*
X160466656Y-97171577D01*
X160398383Y-97186429D01*
X160332919Y-97162013D01*
X160293978Y-97113247D01*
X160290613Y-97105701D01*
X160282246Y-97079391D01*
X160280607Y-97071153D01*
X160270395Y-97019815D01*
X160269994Y-97017467D01*
X160269738Y-97016508D01*
X160269737Y-97016506D01*
X160269737Y-97016503D01*
X160269735Y-97016498D01*
X160209397Y-96870827D01*
X160209390Y-96870814D01*
X160121789Y-96739711D01*
X160121786Y-96739707D01*
X160121781Y-96739701D01*
X160010297Y-96628217D01*
X160010291Y-96628212D01*
X160010290Y-96628211D01*
X159879191Y-96540613D01*
X159879190Y-96540612D01*
X159879185Y-96540609D01*
X159879172Y-96540602D01*
X159879165Y-96540598D01*
X159733523Y-96480272D01*
X159733509Y-96480267D01*
X159733501Y-96480264D01*
X159733491Y-96480261D01*
X159733488Y-96480260D01*
X159733484Y-96480259D01*
X159595638Y-96452840D01*
X159562353Y-96441098D01*
X159532980Y-96425733D01*
X159502775Y-96403539D01*
X157186509Y-94087273D01*
X156032648Y-92933412D01*
X154865292Y-91766057D01*
X154858618Y-91753834D01*
X154844143Y-91737805D01*
X154842272Y-91734378D01*
X154834088Y-91719391D01*
X154818925Y-91661075D01*
X154818865Y-91654340D01*
X154821242Y-91629058D01*
X154824023Y-91615077D01*
X155175975Y-91615077D01*
X155281236Y-91658678D01*
X155281240Y-91658679D01*
X155418494Y-91685980D01*
X155421221Y-91686703D01*
X155426128Y-91687500D01*
X155573871Y-91687500D01*
X155574052Y-91687500D01*
X155576049Y-91687066D01*
X155718760Y-91658679D01*
X155718775Y-91658675D01*
X155824024Y-91615078D01*
X155824024Y-91615077D01*
X156175975Y-91615077D01*
X156281236Y-91658678D01*
X156281240Y-91658679D01*
X156418494Y-91685980D01*
X156421221Y-91686703D01*
X156426128Y-91687500D01*
X156573871Y-91687500D01*
X156574052Y-91687500D01*
X156576049Y-91687066D01*
X156718760Y-91658679D01*
X156718775Y-91658675D01*
X156824024Y-91615078D01*
X156824024Y-91615077D01*
X156500001Y-91291054D01*
X156500000Y-91291054D01*
X156175975Y-91615077D01*
X155824024Y-91615077D01*
X155500001Y-91291054D01*
X155500000Y-91291054D01*
X155175975Y-91615077D01*
X154824023Y-91615077D01*
X154820661Y-91611715D01*
X154820661Y-91611714D01*
X154455853Y-91246907D01*
X154422368Y-91185584D01*
X154427352Y-91115893D01*
X154469223Y-91059959D01*
X154508685Y-91042362D01*
X154508607Y-91042174D01*
X154515659Y-91039252D01*
X154519348Y-91037608D01*
X154519890Y-91037500D01*
X154519891Y-91037500D01*
X154556645Y-91022276D01*
X154584776Y-90994145D01*
X154600000Y-90957391D01*
X154600000Y-90937500D01*
X154853554Y-90937500D01*
X155000000Y-91083946D01*
X155146446Y-90937500D01*
X155126553Y-90917607D01*
X155400000Y-90917607D01*
X155400000Y-90957392D01*
X155409395Y-90980072D01*
X155415224Y-90994145D01*
X155443355Y-91022276D01*
X155480109Y-91037500D01*
X155519889Y-91037500D01*
X155519891Y-91037500D01*
X155556645Y-91022276D01*
X155584776Y-90994145D01*
X155600000Y-90957391D01*
X155600000Y-90937500D01*
X155853554Y-90937500D01*
X156000000Y-91083946D01*
X156146446Y-90937500D01*
X156126553Y-90917607D01*
X156400000Y-90917607D01*
X156400000Y-90957392D01*
X156409395Y-90980072D01*
X156415224Y-90994145D01*
X156443355Y-91022276D01*
X156480109Y-91037500D01*
X156519889Y-91037500D01*
X156519891Y-91037500D01*
X156556645Y-91022276D01*
X156584776Y-90994145D01*
X156600000Y-90957391D01*
X156600000Y-90937498D01*
X156853554Y-90937498D01*
X156853554Y-90937499D01*
X156853554Y-90937501D01*
X157177577Y-91261524D01*
X157177578Y-91261524D01*
X157221175Y-91156275D01*
X157221179Y-91156260D01*
X157249566Y-91013549D01*
X157250000Y-91011552D01*
X157250000Y-90863446D01*
X157249565Y-90861444D01*
X157221184Y-90718765D01*
X157221183Y-90718764D01*
X157221179Y-90718740D01*
X157221178Y-90718736D01*
X157177577Y-90613475D01*
X157177576Y-90613475D01*
X157177576Y-90613474D01*
X156853554Y-90937498D01*
X156600000Y-90937498D01*
X156600000Y-90917609D01*
X156584776Y-90880855D01*
X156556645Y-90852724D01*
X156519892Y-90837500D01*
X156519891Y-90837500D01*
X156480109Y-90837500D01*
X156480107Y-90837500D01*
X156443354Y-90852724D01*
X156415224Y-90880854D01*
X156400000Y-90917607D01*
X156126553Y-90917607D01*
X156000000Y-90791054D01*
X155853554Y-90937500D01*
X155600000Y-90937500D01*
X155600000Y-90917609D01*
X155584776Y-90880855D01*
X155556645Y-90852724D01*
X155519892Y-90837500D01*
X155519891Y-90837500D01*
X155480109Y-90837500D01*
X155480107Y-90837500D01*
X155443354Y-90852724D01*
X155415224Y-90880854D01*
X155400000Y-90917607D01*
X155126553Y-90917607D01*
X155000000Y-90791054D01*
X154853554Y-90937500D01*
X154600000Y-90937500D01*
X154600000Y-90917609D01*
X154584776Y-90880855D01*
X154556645Y-90852724D01*
X154519892Y-90837500D01*
X154519891Y-90837500D01*
X154480109Y-90837500D01*
X154480107Y-90837500D01*
X154443354Y-90852724D01*
X154415224Y-90880854D01*
X154399998Y-90917613D01*
X154399889Y-90918162D01*
X154399322Y-90919245D01*
X154395326Y-90928893D01*
X154394462Y-90928535D01*
X154367501Y-90980072D01*
X154306784Y-91014643D01*
X154237014Y-91010900D01*
X154190592Y-90981646D01*
X154182765Y-90973819D01*
X153822420Y-90613473D01*
X153813404Y-90615267D01*
X153801750Y-90614224D01*
X153778162Y-90617157D01*
X153757263Y-90615287D01*
X153700342Y-90595490D01*
X153694721Y-90591806D01*
X153675012Y-90575777D01*
X153536735Y-90437500D01*
X154353554Y-90437500D01*
X154500000Y-90583946D01*
X154646446Y-90437500D01*
X155353554Y-90437500D01*
X155500000Y-90583946D01*
X155646446Y-90437500D01*
X156353554Y-90437500D01*
X156500000Y-90583946D01*
X156646446Y-90437500D01*
X156500000Y-90291054D01*
X156353554Y-90437500D01*
X155646446Y-90437500D01*
X155500000Y-90291054D01*
X155353554Y-90437500D01*
X154646446Y-90437500D01*
X154500000Y-90291054D01*
X154353554Y-90437500D01*
X153536735Y-90437500D01*
X153110610Y-90011375D01*
X153749999Y-90011375D01*
X153778816Y-90156240D01*
X153778820Y-90156259D01*
X153778822Y-90156267D01*
X153822421Y-90261524D01*
X154146446Y-89937500D01*
X154146446Y-89937499D01*
X154126554Y-89917607D01*
X154400000Y-89917607D01*
X154400000Y-89957392D01*
X154409898Y-89981287D01*
X154415224Y-89994145D01*
X154443355Y-90022276D01*
X154480109Y-90037500D01*
X154519889Y-90037500D01*
X154519891Y-90037500D01*
X154556645Y-90022276D01*
X154584776Y-89994145D01*
X154600000Y-89957391D01*
X154600000Y-89937500D01*
X154853554Y-89937500D01*
X155000000Y-90083946D01*
X155146446Y-89937500D01*
X155126553Y-89917607D01*
X155400000Y-89917607D01*
X155400000Y-89957392D01*
X155409898Y-89981287D01*
X155415224Y-89994145D01*
X155443355Y-90022276D01*
X155480109Y-90037500D01*
X155519889Y-90037500D01*
X155519891Y-90037500D01*
X155556645Y-90022276D01*
X155584776Y-89994145D01*
X155600000Y-89957391D01*
X155600000Y-89937500D01*
X155853554Y-89937500D01*
X156000000Y-90083946D01*
X156146446Y-89937500D01*
X156126553Y-89917607D01*
X156400000Y-89917607D01*
X156400000Y-89957392D01*
X156409898Y-89981287D01*
X156415224Y-89994145D01*
X156443355Y-90022276D01*
X156480109Y-90037500D01*
X156519889Y-90037500D01*
X156519891Y-90037500D01*
X156556645Y-90022276D01*
X156584776Y-89994145D01*
X156600000Y-89957391D01*
X156600000Y-89937498D01*
X156853554Y-89937498D01*
X156853554Y-89937499D01*
X156853554Y-89937501D01*
X157177577Y-90261524D01*
X157177578Y-90261524D01*
X157221175Y-90156275D01*
X157221179Y-90156260D01*
X157249566Y-90013549D01*
X157250000Y-90011552D01*
X157250000Y-89863446D01*
X157249565Y-89861444D01*
X157221184Y-89718765D01*
X157221182Y-89718757D01*
X157221179Y-89718740D01*
X157221178Y-89718736D01*
X157177577Y-89613475D01*
X157177576Y-89613475D01*
X157177576Y-89613474D01*
X156853554Y-89937498D01*
X156600000Y-89937498D01*
X156600000Y-89917609D01*
X156584776Y-89880855D01*
X156556645Y-89852724D01*
X156519892Y-89837500D01*
X156519891Y-89837500D01*
X156480109Y-89837500D01*
X156480107Y-89837500D01*
X156443354Y-89852724D01*
X156415224Y-89880854D01*
X156400000Y-89917607D01*
X156126553Y-89917607D01*
X156000000Y-89791054D01*
X155853554Y-89937500D01*
X155600000Y-89937500D01*
X155600000Y-89917609D01*
X155584776Y-89880855D01*
X155556645Y-89852724D01*
X155519892Y-89837500D01*
X155519891Y-89837500D01*
X155480109Y-89837500D01*
X155480107Y-89837500D01*
X155443354Y-89852724D01*
X155415224Y-89880854D01*
X155400000Y-89917607D01*
X155126553Y-89917607D01*
X155000000Y-89791054D01*
X154853554Y-89937500D01*
X154600000Y-89937500D01*
X154600000Y-89917609D01*
X154584776Y-89880855D01*
X154556645Y-89852724D01*
X154519892Y-89837500D01*
X154519891Y-89837500D01*
X154480109Y-89837500D01*
X154480107Y-89837500D01*
X154443354Y-89852724D01*
X154415224Y-89880854D01*
X154400000Y-89917607D01*
X154126554Y-89917607D01*
X153822421Y-89613474D01*
X153822420Y-89613474D01*
X153778823Y-89718726D01*
X153778816Y-89718757D01*
X153750000Y-89863623D01*
X153750000Y-89863626D01*
X153750000Y-90011373D01*
X153750000Y-90011375D01*
X153749999Y-90011375D01*
X153110610Y-90011375D01*
X152536735Y-89437500D01*
X154353554Y-89437500D01*
X154500000Y-89583946D01*
X154646446Y-89437500D01*
X155353554Y-89437500D01*
X155500000Y-89583946D01*
X155646446Y-89437500D01*
X156353554Y-89437500D01*
X156500000Y-89583946D01*
X156646446Y-89437500D01*
X156500000Y-89291054D01*
X156353554Y-89437500D01*
X155646446Y-89437500D01*
X155500000Y-89291054D01*
X155353554Y-89437500D01*
X154646446Y-89437500D01*
X154500000Y-89291054D01*
X154353554Y-89437500D01*
X152536735Y-89437500D01*
X152491928Y-89392693D01*
X152491908Y-89392671D01*
X152394814Y-89295577D01*
X152373665Y-89267327D01*
X152365851Y-89253018D01*
X152350997Y-89184746D01*
X152364804Y-89136114D01*
X152372987Y-89120471D01*
X152395175Y-89090275D01*
X152474075Y-89011375D01*
X153749999Y-89011375D01*
X153778816Y-89156240D01*
X153778820Y-89156259D01*
X153778822Y-89156267D01*
X153822421Y-89261524D01*
X154146446Y-88937500D01*
X154146446Y-88937499D01*
X154126554Y-88917607D01*
X154400000Y-88917607D01*
X154400000Y-88917608D01*
X154400000Y-88917609D01*
X154400000Y-88957391D01*
X154415224Y-88994145D01*
X154443355Y-89022276D01*
X154480109Y-89037500D01*
X154519889Y-89037500D01*
X154519891Y-89037500D01*
X154556645Y-89022276D01*
X154584776Y-88994145D01*
X154600000Y-88957391D01*
X154600000Y-88937500D01*
X154853554Y-88937500D01*
X155000000Y-89083946D01*
X155146446Y-88937500D01*
X155126553Y-88917607D01*
X155400000Y-88917607D01*
X155400000Y-88917608D01*
X155400000Y-88917609D01*
X155400000Y-88957391D01*
X155415224Y-88994145D01*
X155443355Y-89022276D01*
X155480109Y-89037500D01*
X155519889Y-89037500D01*
X155519891Y-89037500D01*
X155556645Y-89022276D01*
X155584776Y-88994145D01*
X155600000Y-88957391D01*
X155600000Y-88937500D01*
X155853554Y-88937500D01*
X156000000Y-89083946D01*
X156146446Y-88937500D01*
X156126553Y-88917607D01*
X156400000Y-88917607D01*
X156400000Y-88917608D01*
X156400000Y-88917609D01*
X156400000Y-88957391D01*
X156415224Y-88994145D01*
X156443355Y-89022276D01*
X156480109Y-89037500D01*
X156519889Y-89037500D01*
X156519891Y-89037500D01*
X156556645Y-89022276D01*
X156584776Y-88994145D01*
X156600000Y-88957391D01*
X156600000Y-88937498D01*
X156853554Y-88937498D01*
X156853554Y-88937499D01*
X156853554Y-88937501D01*
X157177577Y-89261524D01*
X157177578Y-89261524D01*
X157221175Y-89156275D01*
X157221179Y-89156260D01*
X157249566Y-89013549D01*
X157250000Y-89011552D01*
X157250000Y-88863446D01*
X157249565Y-88861444D01*
X157221184Y-88718765D01*
X157221182Y-88718757D01*
X157221179Y-88718740D01*
X157221178Y-88718736D01*
X157177577Y-88613475D01*
X157177576Y-88613475D01*
X157177576Y-88613474D01*
X156853554Y-88937498D01*
X156600000Y-88937498D01*
X156600000Y-88917609D01*
X156584776Y-88880855D01*
X156556645Y-88852724D01*
X156537737Y-88844892D01*
X156519892Y-88837500D01*
X156519891Y-88837500D01*
X156480109Y-88837500D01*
X156480107Y-88837500D01*
X156443354Y-88852724D01*
X156415224Y-88880854D01*
X156400000Y-88917607D01*
X156126553Y-88917607D01*
X156000000Y-88791054D01*
X155853554Y-88937500D01*
X155600000Y-88937500D01*
X155600000Y-88917609D01*
X155584776Y-88880855D01*
X155556645Y-88852724D01*
X155537737Y-88844892D01*
X155519892Y-88837500D01*
X155519891Y-88837500D01*
X155480109Y-88837500D01*
X155480107Y-88837500D01*
X155443354Y-88852724D01*
X155415224Y-88880854D01*
X155400000Y-88917607D01*
X155126553Y-88917607D01*
X155000000Y-88791054D01*
X154853554Y-88937500D01*
X154600000Y-88937500D01*
X154600000Y-88917609D01*
X154584776Y-88880855D01*
X154556645Y-88852724D01*
X154537737Y-88844892D01*
X154519892Y-88837500D01*
X154519891Y-88837500D01*
X154480109Y-88837500D01*
X154480107Y-88837500D01*
X154443354Y-88852724D01*
X154415224Y-88880854D01*
X154400000Y-88917607D01*
X154126554Y-88917607D01*
X153822421Y-88613474D01*
X153822420Y-88613474D01*
X153778823Y-88718726D01*
X153778816Y-88718757D01*
X153750000Y-88863623D01*
X153750000Y-88863626D01*
X153750000Y-89011373D01*
X153750000Y-89011375D01*
X153749999Y-89011375D01*
X152474075Y-89011375D01*
X152851272Y-88634177D01*
X152851279Y-88634173D01*
X152868715Y-88616737D01*
X152868716Y-88616737D01*
X152980520Y-88504933D01*
X153053743Y-88378106D01*
X153059577Y-88368002D01*
X153088538Y-88259919D01*
X154175974Y-88259919D01*
X154175974Y-88259920D01*
X154175974Y-88259921D01*
X154500000Y-88583946D01*
X154500001Y-88583946D01*
X154824024Y-88259921D01*
X154824022Y-88259920D01*
X154824023Y-88259920D01*
X155175973Y-88259920D01*
X155175974Y-88259921D01*
X155500000Y-88583946D01*
X155500001Y-88583946D01*
X155824024Y-88259921D01*
X155824022Y-88259920D01*
X155824023Y-88259920D01*
X155824021Y-88259919D01*
X156175974Y-88259919D01*
X156175974Y-88259920D01*
X156175974Y-88259921D01*
X156500000Y-88583946D01*
X156500001Y-88583946D01*
X156824024Y-88259921D01*
X156824022Y-88259920D01*
X156824023Y-88259920D01*
X156762365Y-88234380D01*
X156718767Y-88216322D01*
X156718759Y-88216320D01*
X156718751Y-88216318D01*
X156718741Y-88216316D01*
X156573874Y-88187500D01*
X156573872Y-88187500D01*
X156426128Y-88187500D01*
X156426126Y-88187500D01*
X156281257Y-88216316D01*
X156281226Y-88216323D01*
X156175974Y-88259919D01*
X155824021Y-88259919D01*
X155762365Y-88234380D01*
X155718767Y-88216322D01*
X155718759Y-88216320D01*
X155718751Y-88216318D01*
X155718741Y-88216316D01*
X155573874Y-88187500D01*
X155573872Y-88187500D01*
X155426128Y-88187500D01*
X155426126Y-88187500D01*
X155281257Y-88216316D01*
X155281226Y-88216323D01*
X155175974Y-88259919D01*
X155175973Y-88259920D01*
X154824023Y-88259920D01*
X154762365Y-88234380D01*
X154718767Y-88216322D01*
X154718759Y-88216320D01*
X154718751Y-88216318D01*
X154718741Y-88216316D01*
X154573874Y-88187500D01*
X154573872Y-88187500D01*
X154426128Y-88187500D01*
X154426126Y-88187500D01*
X154281257Y-88216316D01*
X154281226Y-88216323D01*
X154175974Y-88259919D01*
X153088538Y-88259919D01*
X153100500Y-88215275D01*
X153100500Y-88093679D01*
X153108856Y-88048931D01*
X153109655Y-88046863D01*
X153111746Y-88041462D01*
X153114861Y-88030852D01*
X153130742Y-87996890D01*
X153136021Y-87988991D01*
X153166788Y-87942943D01*
X153209394Y-87879179D01*
X153243419Y-87797033D01*
X153269736Y-87733500D01*
X153269738Y-87733491D01*
X153300500Y-87578842D01*
X153300500Y-87421158D01*
X153300500Y-87421155D01*
X153300500Y-87420973D01*
X153300065Y-87418972D01*
X153296177Y-87399425D01*
X153270395Y-87269815D01*
X153269983Y-87267403D01*
X153269737Y-87266504D01*
X153267163Y-87260290D01*
X153254084Y-87228713D01*
X153209397Y-87120827D01*
X153209390Y-87120814D01*
X153121789Y-86989711D01*
X153121786Y-86989707D01*
X153121781Y-86989701D01*
X153010294Y-86878214D01*
X153010285Y-86878208D01*
X152879191Y-86790613D01*
X152879190Y-86790612D01*
X152879185Y-86790609D01*
X152879172Y-86790602D01*
X152879165Y-86790598D01*
X152733523Y-86730272D01*
X152733509Y-86730267D01*
X152733501Y-86730264D01*
X152733491Y-86730261D01*
X152733486Y-86730259D01*
X152653950Y-86714439D01*
X152620666Y-86702697D01*
X152606812Y-86695450D01*
X152556537Y-86646940D01*
X152549797Y-86635103D01*
X152535936Y-86597941D01*
X152531880Y-86577551D01*
X152519737Y-86516503D01*
X152504138Y-86478844D01*
X152504137Y-86478842D01*
X152462854Y-86379174D01*
X152459397Y-86370827D01*
X152459390Y-86370814D01*
X152381301Y-86253945D01*
X152366070Y-86222109D01*
X152355441Y-86188161D01*
X152349776Y-86151111D01*
X152349776Y-86147673D01*
X152343959Y-86140799D01*
X152337575Y-86122708D01*
X152329887Y-86094017D01*
X152325879Y-86079057D01*
X152309577Y-86018216D01*
X152309576Y-86018214D01*
X152309575Y-86018210D01*
X152232376Y-85884497D01*
X152230956Y-85881858D01*
X152230572Y-85881336D01*
X152113363Y-85764127D01*
X152113320Y-85764085D01*
X149097181Y-82747946D01*
X149076031Y-82719693D01*
X149060144Y-82690599D01*
X149047359Y-82655366D01*
X149020395Y-82519815D01*
X149019983Y-82517403D01*
X149019738Y-82516507D01*
X149019737Y-82516505D01*
X149019737Y-82516503D01*
X148963728Y-82381284D01*
X148959397Y-82370827D01*
X148959390Y-82370814D01*
X148871789Y-82239711D01*
X148871786Y-82239707D01*
X148871781Y-82239701D01*
X148760297Y-82128217D01*
X148760291Y-82128212D01*
X148760290Y-82128211D01*
X148629191Y-82040613D01*
X148629190Y-82040612D01*
X148629185Y-82040609D01*
X148629172Y-82040602D01*
X148629165Y-82040598D01*
X148483502Y-81980264D01*
X148483471Y-81980257D01*
X148328847Y-81949500D01*
X148328845Y-81949500D01*
X148328842Y-81949500D01*
X148171158Y-81949500D01*
X148171155Y-81949500D01*
X148171153Y-81949500D01*
X148016527Y-81980257D01*
X148016496Y-81980264D01*
X147870833Y-82040598D01*
X147870824Y-82040603D01*
X147870807Y-82040613D01*
X147739708Y-82128211D01*
X147739707Y-82128212D01*
X147739701Y-82128217D01*
X147628217Y-82239701D01*
X147628212Y-82239707D01*
X147628211Y-82239708D01*
X147540613Y-82370807D01*
X147540603Y-82370824D01*
X147540598Y-82370833D01*
X147480264Y-82516496D01*
X147480257Y-82516527D01*
X147449500Y-82671150D01*
X147449500Y-82828846D01*
X147480257Y-82983471D01*
X147480264Y-82983502D01*
X147540598Y-83129165D01*
X147540603Y-83129174D01*
X147540613Y-83129191D01*
X147628211Y-83260290D01*
X147628212Y-83260291D01*
X147628217Y-83260297D01*
X147739701Y-83371781D01*
X147739707Y-83371786D01*
X147739711Y-83371789D01*
X147870814Y-83459390D01*
X147870827Y-83459397D01*
X148016498Y-83519735D01*
X148016503Y-83519737D01*
X148043474Y-83525101D01*
X148081099Y-83532586D01*
X148081123Y-83532590D01*
X148081147Y-83532595D01*
X148154364Y-83547159D01*
X148187644Y-83558901D01*
X148217021Y-83574268D01*
X148247227Y-83596462D01*
X150963840Y-86313075D01*
X150984992Y-86341331D01*
X150992484Y-86355052D01*
X151007335Y-86423321D01*
X151006364Y-86436901D01*
X150997243Y-86475506D01*
X150980263Y-86516500D01*
X150980258Y-86516515D01*
X150980256Y-86516523D01*
X150949500Y-86671148D01*
X150949500Y-86671153D01*
X150949500Y-86828846D01*
X150949500Y-86828848D01*
X150949499Y-86828848D01*
X150980257Y-86983471D01*
X150980264Y-86983502D01*
X151040598Y-87129165D01*
X151040602Y-87129172D01*
X151040609Y-87129185D01*
X151040612Y-87129190D01*
X151040613Y-87129191D01*
X151128211Y-87260290D01*
X151128212Y-87260291D01*
X151128217Y-87260297D01*
X151239701Y-87371781D01*
X151239707Y-87371786D01*
X151239711Y-87371789D01*
X151370814Y-87459390D01*
X151370827Y-87459397D01*
X151508058Y-87516239D01*
X151516503Y-87519737D01*
X151565788Y-87529540D01*
X151596051Y-87535560D01*
X151629329Y-87547299D01*
X151643183Y-87554546D01*
X151693460Y-87603057D01*
X151700203Y-87614898D01*
X151714063Y-87652061D01*
X151730259Y-87733485D01*
X151730262Y-87733495D01*
X151730264Y-87733500D01*
X151783080Y-87861010D01*
X151789934Y-87883277D01*
X151794915Y-87907289D01*
X151789258Y-87976928D01*
X151785740Y-87986089D01*
X151757663Y-88029317D01*
X151546663Y-88240317D01*
X151518410Y-88261467D01*
X151489316Y-88277354D01*
X151454080Y-88290140D01*
X151315232Y-88317759D01*
X151315226Y-88317760D01*
X151315225Y-88317761D01*
X151315215Y-88317764D01*
X151315210Y-88317765D01*
X151315192Y-88317772D01*
X151169550Y-88378098D01*
X151169541Y-88378103D01*
X151169524Y-88378113D01*
X151038425Y-88465711D01*
X151038424Y-88465712D01*
X151038418Y-88465717D01*
X150926934Y-88577201D01*
X150926929Y-88577207D01*
X150926928Y-88577208D01*
X150839330Y-88708307D01*
X150839320Y-88708324D01*
X150839315Y-88708333D01*
X150778981Y-88853996D01*
X150778974Y-88854027D01*
X150748216Y-89008650D01*
X150747620Y-89014713D01*
X150747210Y-89014672D01*
X150743192Y-89042614D01*
X150738787Y-89057612D01*
X150701044Y-89116355D01*
X150699675Y-89117542D01*
X150644814Y-89145018D01*
X150637256Y-89146663D01*
X150610885Y-89149500D01*
X145992330Y-89149500D01*
X145957389Y-89144475D01*
X145942390Y-89140070D01*
X145883644Y-89102327D01*
X145882457Y-89100958D01*
X145854977Y-89046083D01*
X145853332Y-89038521D01*
X145850500Y-89012168D01*
X145850500Y-86597594D01*
X145855521Y-86562664D01*
X145864864Y-86530845D01*
X145880736Y-86496897D01*
X145892799Y-86478846D01*
X145959394Y-86379179D01*
X145962854Y-86370827D01*
X145983429Y-86321153D01*
X146004832Y-86269482D01*
X146019735Y-86233501D01*
X146019737Y-86233497D01*
X146050500Y-86078842D01*
X146050500Y-85921158D01*
X146050500Y-85921155D01*
X146050500Y-85921154D01*
X146050500Y-85920971D01*
X146050064Y-85918966D01*
X146042569Y-85881286D01*
X146019739Y-85766510D01*
X146019736Y-85766501D01*
X145989239Y-85692873D01*
X145959397Y-85620827D01*
X145959390Y-85620814D01*
X145959379Y-85620797D01*
X145881304Y-85503949D01*
X145866071Y-85472111D01*
X145856165Y-85440474D01*
X145850500Y-85403422D01*
X145850500Y-84091451D01*
X145850501Y-84091400D01*
X145850501Y-83920945D01*
X145850501Y-83920943D01*
X145809577Y-83768215D01*
X145753541Y-83671158D01*
X145730520Y-83631284D01*
X145618716Y-83519480D01*
X145614385Y-83515149D01*
X145613363Y-83514127D01*
X145613320Y-83514085D01*
X144491928Y-82392693D01*
X144491919Y-82392683D01*
X144470043Y-82370807D01*
X144368717Y-82269481D01*
X144368716Y-82269480D01*
X144368715Y-82269479D01*
X144368712Y-82269477D01*
X144302797Y-82231421D01*
X144289430Y-82219798D01*
X144266842Y-82210663D01*
X144231786Y-82190423D01*
X144193603Y-82180192D01*
X144079057Y-82149499D01*
X144079054Y-82149499D01*
X143911443Y-82149499D01*
X143911380Y-82149500D01*
X138097596Y-82149500D01*
X138062661Y-82144477D01*
X138030852Y-82135137D01*
X137996898Y-82119263D01*
X137879185Y-82040609D01*
X137879172Y-82040602D01*
X137879165Y-82040598D01*
X137733502Y-81980264D01*
X137733471Y-81980257D01*
X137578847Y-81949500D01*
X137578845Y-81949500D01*
X137578842Y-81949500D01*
X137421158Y-81949500D01*
X137421155Y-81949500D01*
X137421153Y-81949500D01*
X137266527Y-81980257D01*
X137266496Y-81980264D01*
X137120833Y-82040598D01*
X137120824Y-82040603D01*
X137120807Y-82040613D01*
X136989708Y-82128211D01*
X136989707Y-82128212D01*
X136989701Y-82128217D01*
X136878217Y-82239701D01*
X136878212Y-82239707D01*
X136878211Y-82239708D01*
X136790613Y-82370807D01*
X136790603Y-82370824D01*
X136790598Y-82370833D01*
X136730264Y-82516496D01*
X136730257Y-82516527D01*
X136699500Y-82671150D01*
X136699500Y-82828846D01*
X136730257Y-82983471D01*
X136730264Y-82983502D01*
X136790598Y-83129165D01*
X136790603Y-83129174D01*
X136790613Y-83129191D01*
X136878211Y-83260290D01*
X136878212Y-83260291D01*
X136878217Y-83260297D01*
X136989701Y-83371781D01*
X136989707Y-83371786D01*
X136989711Y-83371789D01*
X137120814Y-83459390D01*
X137120827Y-83459397D01*
X137266498Y-83519735D01*
X137266503Y-83519737D01*
X137413513Y-83548979D01*
X137416247Y-83549703D01*
X137421155Y-83550500D01*
X137578844Y-83550500D01*
X137582964Y-83550500D01*
X137590814Y-83548118D01*
X137733497Y-83519737D01*
X137879179Y-83459394D01*
X137889934Y-83452208D01*
X137893384Y-83449903D01*
X137976704Y-83394230D01*
X137996050Y-83381303D01*
X138027889Y-83366071D01*
X138059527Y-83356165D01*
X138096578Y-83350500D01*
X143682073Y-83350500D01*
X143717005Y-83355521D01*
X143742249Y-83362934D01*
X143794995Y-83394230D01*
X144600573Y-84199808D01*
X144621723Y-84228060D01*
X144634331Y-84251149D01*
X144649500Y-84310578D01*
X144649500Y-85402404D01*
X144644476Y-85437341D01*
X144635136Y-85469148D01*
X144619262Y-85503102D01*
X144540613Y-85620807D01*
X144540603Y-85620824D01*
X144540598Y-85620833D01*
X144480264Y-85766496D01*
X144480257Y-85766527D01*
X144449500Y-85921150D01*
X144449500Y-85921151D01*
X144449500Y-85921153D01*
X144449500Y-86078846D01*
X144449500Y-86078848D01*
X144449499Y-86078848D01*
X144480257Y-86233471D01*
X144480264Y-86233502D01*
X144540598Y-86379165D01*
X144540602Y-86379172D01*
X144540609Y-86379185D01*
X144618697Y-86496050D01*
X144633928Y-86527886D01*
X144643834Y-86559522D01*
X144649500Y-86596575D01*
X144649500Y-89402404D01*
X144644476Y-89437341D01*
X144635136Y-89469148D01*
X144619262Y-89503102D01*
X144540613Y-89620807D01*
X144540603Y-89620824D01*
X144540598Y-89620833D01*
X144480264Y-89766496D01*
X144480257Y-89766527D01*
X144449500Y-89921150D01*
X144449500Y-89921153D01*
X144449500Y-90078846D01*
X144449500Y-90078848D01*
X144449499Y-90078848D01*
X144475426Y-90209185D01*
X144477081Y-90219964D01*
X144481374Y-90259420D01*
X144469057Y-90328196D01*
X144421532Y-90379382D01*
X144418497Y-90381188D01*
X144417050Y-90382049D01*
X144353622Y-90399500D01*
X141357927Y-90399500D01*
X141322991Y-90394477D01*
X141297749Y-90387065D01*
X141245004Y-90355769D01*
X134439425Y-83550190D01*
X134418273Y-83521934D01*
X134405666Y-83498845D01*
X134390499Y-83439420D01*
X134390499Y-82102122D01*
X134390339Y-82100197D01*
X134390113Y-82098543D01*
X134384091Y-82042516D01*
X134382811Y-82039083D01*
X134333797Y-81907671D01*
X134333793Y-81907664D01*
X134247547Y-81792455D01*
X134247544Y-81792452D01*
X134247542Y-81792450D01*
X134180649Y-81742374D01*
X134132335Y-81706206D01*
X134132332Y-81706204D01*
X134132330Y-81706203D01*
X134132328Y-81706202D01*
X134082844Y-81687746D01*
X134047497Y-81661284D01*
X133945583Y-81650328D01*
X133940742Y-81649500D01*
X133937881Y-81649500D01*
X133937873Y-81649500D01*
X133937864Y-81649500D01*
X132142129Y-81649500D01*
X132142123Y-81649500D01*
X132140192Y-81649659D01*
X132138545Y-81649885D01*
X132082516Y-81655908D01*
X131997152Y-81687747D01*
X131947666Y-81706204D01*
X131947665Y-81706205D01*
X131832456Y-81792450D01*
X131832450Y-81792456D01*
X131746208Y-81907661D01*
X131746200Y-81907673D01*
X131703419Y-82022377D01*
X131686503Y-82053355D01*
X131678186Y-82064465D01*
X131622252Y-82106336D01*
X131552568Y-82111321D01*
X131548085Y-82110346D01*
X131486760Y-82076864D01*
X131379788Y-81969892D01*
X131379786Y-81969890D01*
X131207820Y-81844951D01*
X131035911Y-81757359D01*
X131030571Y-81753479D01*
X131006254Y-81743406D01*
X130999734Y-81742374D01*
X130938726Y-81722551D01*
X130825074Y-81685623D01*
X130820552Y-81683770D01*
X130811362Y-81681600D01*
X130806599Y-81681226D01*
X130654957Y-81657208D01*
X130635489Y-81654124D01*
X130606290Y-81649500D01*
X130606287Y-81649500D01*
X130393713Y-81649500D01*
X130393709Y-81649500D01*
X130354776Y-81655666D01*
X130345042Y-81657208D01*
X130319308Y-81661284D01*
X130183763Y-81682752D01*
X129981582Y-81748445D01*
X129792182Y-81844949D01*
X129620210Y-81969892D01*
X129469892Y-82120210D01*
X129344949Y-82292182D01*
X129248445Y-82481580D01*
X129182752Y-82683759D01*
X129182752Y-82683760D01*
X129159774Y-82828845D01*
X129159774Y-82828846D01*
X129149500Y-82893713D01*
X129149500Y-83106287D01*
X129153034Y-83128604D01*
X129153033Y-83128604D01*
X129173892Y-83260297D01*
X129175346Y-83269475D01*
X129182754Y-83316243D01*
X129226183Y-83449903D01*
X129242870Y-83501261D01*
X129248441Y-83518406D01*
X129248446Y-83518418D01*
X129264635Y-83550190D01*
X129344951Y-83707820D01*
X129469890Y-83879786D01*
X129469892Y-83879788D01*
X129620216Y-84030112D01*
X129792183Y-84155052D01*
X129792471Y-84155197D01*
X129981588Y-84251557D01*
X130183757Y-84317246D01*
X130393713Y-84350500D01*
X130393714Y-84350500D01*
X130606286Y-84350500D01*
X130606287Y-84350500D01*
X130816243Y-84317246D01*
X130841568Y-84309016D01*
X130876346Y-84302997D01*
X130893407Y-84302510D01*
X130958686Y-84318922D01*
X130970236Y-84325554D01*
X130996171Y-84345406D01*
X140264085Y-93613320D01*
X140264106Y-93613342D01*
X140381284Y-93730520D01*
X140443610Y-93766503D01*
X140461054Y-93776574D01*
X140461062Y-93776579D01*
X140468096Y-93780640D01*
X140468097Y-93780641D01*
X140494284Y-93795760D01*
X140518215Y-93809577D01*
X140670943Y-93850501D01*
X140670946Y-93850501D01*
X140836653Y-93850501D01*
X140838557Y-93850501D01*
X140838620Y-93850500D01*
X152152404Y-93850500D01*
X152187340Y-93855523D01*
X152219148Y-93864863D01*
X152253099Y-93880736D01*
X152272655Y-93893802D01*
X152298914Y-93917388D01*
X152302062Y-93921155D01*
X152307813Y-93928036D01*
X152335698Y-93992099D01*
X152324525Y-94061061D01*
X152319773Y-94070995D01*
X152295594Y-94105167D01*
X149900191Y-96500573D01*
X149893071Y-96504460D01*
X149871940Y-96521722D01*
X149848852Y-96534330D01*
X149789422Y-96549500D01*
X149597596Y-96549500D01*
X149562661Y-96544477D01*
X149530852Y-96535137D01*
X149503204Y-96522211D01*
X149500135Y-96521354D01*
X149499254Y-96520364D01*
X149496898Y-96519263D01*
X149379185Y-96440609D01*
X149379172Y-96440602D01*
X149379165Y-96440598D01*
X149233502Y-96380264D01*
X149233471Y-96380257D01*
X149078847Y-96349500D01*
X149078845Y-96349500D01*
X149078842Y-96349500D01*
X148921158Y-96349500D01*
X148921155Y-96349500D01*
X148921153Y-96349500D01*
X148766527Y-96380257D01*
X148766496Y-96380264D01*
X148620833Y-96440598D01*
X148620824Y-96440603D01*
X148620807Y-96440613D01*
X148489708Y-96528211D01*
X148489707Y-96528212D01*
X148489701Y-96528217D01*
X148378217Y-96639701D01*
X148378212Y-96639707D01*
X148378211Y-96639708D01*
X148290613Y-96770807D01*
X148290603Y-96770824D01*
X148290598Y-96770833D01*
X148230264Y-96916496D01*
X148230257Y-96916527D01*
X148199500Y-97071150D01*
X148199500Y-97228845D01*
X148199499Y-97228848D01*
X148230257Y-97383471D01*
X148230261Y-97383489D01*
X148230263Y-97383497D01*
X148258333Y-97451265D01*
X148258333Y-97451266D01*
X148262604Y-97461576D01*
X148271332Y-97495773D01*
X148272632Y-97507853D01*
X148272817Y-97509574D01*
X148260410Y-97578333D01*
X148212802Y-97629468D01*
X148208297Y-97632141D01*
X148145022Y-97649500D01*
X147817927Y-97649500D01*
X147782991Y-97644477D01*
X147757749Y-97637065D01*
X147705004Y-97605769D01*
X147597181Y-97497946D01*
X147576031Y-97469693D01*
X147560144Y-97440599D01*
X147547359Y-97405366D01*
X147520395Y-97269815D01*
X147519983Y-97267403D01*
X147519737Y-97266504D01*
X147518973Y-97264660D01*
X147504139Y-97228846D01*
X147488045Y-97189992D01*
X147474176Y-97156507D01*
X147459397Y-97120827D01*
X147459390Y-97120814D01*
X147371789Y-96989711D01*
X147371786Y-96989707D01*
X147371781Y-96989701D01*
X147260297Y-96878217D01*
X147260291Y-96878212D01*
X147260290Y-96878211D01*
X147129191Y-96790613D01*
X147129190Y-96790612D01*
X147129185Y-96790609D01*
X147129172Y-96790602D01*
X147129165Y-96790598D01*
X146983502Y-96730264D01*
X146983471Y-96730257D01*
X146828847Y-96699500D01*
X146828845Y-96699500D01*
X146828842Y-96699500D01*
X146671158Y-96699500D01*
X146671155Y-96699500D01*
X146671153Y-96699500D01*
X146516527Y-96730257D01*
X146516496Y-96730264D01*
X146370833Y-96790598D01*
X146370824Y-96790603D01*
X146370807Y-96790613D01*
X146239708Y-96878211D01*
X146239707Y-96878212D01*
X146239701Y-96878217D01*
X146128217Y-96989701D01*
X146128212Y-96989707D01*
X146128211Y-96989708D01*
X146040613Y-97120807D01*
X146040603Y-97120824D01*
X146040598Y-97120833D01*
X145980264Y-97266496D01*
X145980257Y-97266527D01*
X145949500Y-97421150D01*
X145949500Y-97421153D01*
X145949500Y-97578846D01*
X145949500Y-97578848D01*
X145949499Y-97578848D01*
X145980257Y-97733471D01*
X145980264Y-97733502D01*
X146040596Y-97879160D01*
X146040600Y-97879168D01*
X146040602Y-97879172D01*
X146040609Y-97879184D01*
X146082437Y-97941783D01*
X146097672Y-97973629D01*
X146101741Y-97986627D01*
X146102984Y-98056485D01*
X146066260Y-98115926D01*
X146010853Y-98144596D01*
X146008358Y-98145162D01*
X146002795Y-98146424D01*
X145975351Y-98149500D01*
X145567928Y-98149500D01*
X145532992Y-98144477D01*
X145507750Y-98137065D01*
X145455005Y-98105769D01*
X144441928Y-97092693D01*
X144441919Y-97092683D01*
X144382583Y-97033347D01*
X144318717Y-96969481D01*
X144318716Y-96969480D01*
X144318715Y-96969479D01*
X144318712Y-96969477D01*
X144274008Y-96943668D01*
X144233996Y-96920567D01*
X144233984Y-96920559D01*
X144181789Y-96890425D01*
X144181785Y-96890423D01*
X144181783Y-96890422D01*
X144181781Y-96890421D01*
X144181778Y-96890420D01*
X144125882Y-96875442D01*
X144125882Y-96875443D01*
X144077469Y-96862471D01*
X144029057Y-96849499D01*
X144029056Y-96849499D01*
X143861443Y-96849499D01*
X143861380Y-96849500D01*
X140470933Y-96849500D01*
X140372999Y-96875740D01*
X140372985Y-96875747D01*
X140318217Y-96890422D01*
X140318215Y-96890422D01*
X140318214Y-96890423D01*
X140318212Y-96890423D01*
X140318143Y-96890453D01*
X140317334Y-96890930D01*
X140181298Y-96969470D01*
X140181293Y-96969472D01*
X140181290Y-96969475D01*
X140181287Y-96969477D01*
X140181277Y-96969484D01*
X138747946Y-98402817D01*
X138719693Y-98423967D01*
X138690599Y-98439854D01*
X138655363Y-98452640D01*
X138516515Y-98480259D01*
X138516509Y-98480260D01*
X138516508Y-98480261D01*
X138516498Y-98480264D01*
X138516493Y-98480265D01*
X138516475Y-98480272D01*
X138370833Y-98540598D01*
X138370824Y-98540603D01*
X138370807Y-98540613D01*
X138239712Y-98628209D01*
X138239709Y-98628211D01*
X138239701Y-98628217D01*
X138128217Y-98739701D01*
X138128212Y-98739707D01*
X138128211Y-98739708D01*
X138040613Y-98870807D01*
X138040603Y-98870824D01*
X138040598Y-98870833D01*
X137980264Y-99016496D01*
X137980257Y-99016527D01*
X137949500Y-99171150D01*
X137949500Y-99171153D01*
X137949500Y-99328846D01*
X137949500Y-99328848D01*
X137949499Y-99328848D01*
X137980257Y-99483471D01*
X137980264Y-99483502D01*
X138040598Y-99629165D01*
X138040603Y-99629174D01*
X138040613Y-99629191D01*
X138128211Y-99760290D01*
X138128212Y-99760291D01*
X138128217Y-99760297D01*
X138239701Y-99871781D01*
X138239707Y-99871786D01*
X138239711Y-99871789D01*
X138370814Y-99959390D01*
X138370827Y-99959397D01*
X138497387Y-100011819D01*
X138516503Y-100019737D01*
X138516510Y-100019738D01*
X138516510Y-100019739D01*
X138637440Y-100043793D01*
X138663512Y-100048979D01*
X138666247Y-100049703D01*
X138671155Y-100050500D01*
X138828844Y-100050500D01*
X138832964Y-100050500D01*
X138840814Y-100048118D01*
X138983497Y-100019737D01*
X139129179Y-99959394D01*
X139260289Y-99871789D01*
X139371789Y-99760289D01*
X139459394Y-99629179D01*
X139519737Y-99483497D01*
X139546192Y-99350500D01*
X139547157Y-99345644D01*
X139558900Y-99312355D01*
X139574266Y-99282979D01*
X139596458Y-99252775D01*
X140749811Y-98099423D01*
X140778061Y-98078275D01*
X140801153Y-98065667D01*
X140860578Y-98050500D01*
X141257670Y-98050500D01*
X141292606Y-98055523D01*
X141307604Y-98059927D01*
X141366355Y-98097672D01*
X141367542Y-98099041D01*
X141395018Y-98153902D01*
X141396663Y-98161460D01*
X141399500Y-98187831D01*
X141399500Y-99647876D01*
X141399659Y-99649806D01*
X141399885Y-99651454D01*
X141405907Y-99707482D01*
X141425606Y-99760297D01*
X141456202Y-99842328D01*
X141456206Y-99842335D01*
X141483788Y-99879179D01*
X141542450Y-99957542D01*
X141542456Y-99957548D01*
X141600708Y-100001155D01*
X141657664Y-100043793D01*
X141657671Y-100043797D01*
X141707155Y-100062253D01*
X141742513Y-100088721D01*
X141799444Y-100094835D01*
X141799443Y-100094839D01*
X141799458Y-100094836D01*
X141852127Y-100100500D01*
X143647872Y-100100499D01*
X143707483Y-100094091D01*
X143842331Y-100043796D01*
X143957546Y-99957546D01*
X143957548Y-99957544D01*
X143974742Y-99934575D01*
X144032677Y-99857181D01*
X144057634Y-99832225D01*
X144068747Y-99823906D01*
X144134213Y-99799494D01*
X144202476Y-99814346D01*
X144214664Y-99821001D01*
X144242914Y-99842150D01*
X144256336Y-99855572D01*
X144256855Y-99855953D01*
X144259493Y-99857373D01*
X144297269Y-99879183D01*
X144297270Y-99879183D01*
X144297273Y-99879185D01*
X144393213Y-99934575D01*
X144393212Y-99934575D01*
X144393216Y-99934577D01*
X144505019Y-99964534D01*
X144545942Y-99975500D01*
X144545943Y-99975500D01*
X146524229Y-99975500D01*
X146559161Y-99980521D01*
X146584405Y-99987934D01*
X146637149Y-100019228D01*
X146739707Y-100121786D01*
X146739711Y-100121789D01*
X146870814Y-100209390D01*
X146870827Y-100209397D01*
X147016498Y-100269735D01*
X147016503Y-100269737D01*
X147163513Y-100298979D01*
X147166247Y-100299703D01*
X147171155Y-100300500D01*
X147328844Y-100300500D01*
X147332964Y-100300500D01*
X147340814Y-100298118D01*
X147483497Y-100269737D01*
X147629179Y-100209394D01*
X147760289Y-100121789D01*
X147871789Y-100010289D01*
X147959394Y-99879179D01*
X148019737Y-99733497D01*
X148050500Y-99578842D01*
X148050500Y-99492329D01*
X148055523Y-99457393D01*
X148059927Y-99442395D01*
X148097672Y-99383644D01*
X148099041Y-99382457D01*
X148153920Y-99354977D01*
X148161479Y-99353333D01*
X148187832Y-99350500D01*
X159661380Y-99350500D01*
X159661443Y-99350501D01*
X159663347Y-99350501D01*
X159670943Y-99350501D01*
X159829054Y-99350501D01*
X159829057Y-99350501D01*
X159981785Y-99309577D01*
X160056391Y-99266503D01*
X160118716Y-99230520D01*
X160230520Y-99118716D01*
X160230520Y-99118715D01*
X160247956Y-99101279D01*
X160247960Y-99101272D01*
X162480520Y-96868716D01*
X162559577Y-96731784D01*
X162600501Y-96579057D01*
X162600501Y-96420942D01*
X162600501Y-96413347D01*
X162600501Y-96411663D01*
X162600500Y-96411589D01*
X162600500Y-95197594D01*
X162605523Y-95162659D01*
X162609829Y-95147993D01*
X162614862Y-95130851D01*
X162630738Y-95096896D01*
X162654560Y-95061245D01*
X162709387Y-94979189D01*
X162709394Y-94979179D01*
X162769737Y-94833497D01*
X162800500Y-94678842D01*
X162800500Y-94521158D01*
X162800500Y-94521155D01*
X162800500Y-94520971D01*
X162800064Y-94518966D01*
X162770597Y-94370826D01*
X162769737Y-94366503D01*
X162720420Y-94247440D01*
X162709397Y-94220827D01*
X162709390Y-94220814D01*
X162690994Y-94193282D01*
X162643265Y-94121850D01*
X162628032Y-94090012D01*
X162623360Y-94075091D01*
X162622111Y-94005242D01*
X162624054Y-93998157D01*
X162655954Y-93943279D01*
X162949811Y-93649423D01*
X162978061Y-93628275D01*
X163001153Y-93615667D01*
X163060578Y-93600500D01*
X170370500Y-93600500D01*
X170437539Y-93620185D01*
X170483294Y-93672989D01*
X170494500Y-93724500D01*
X170494500Y-100723100D01*
X170474815Y-100790139D01*
X170422011Y-100835894D01*
X170370500Y-100847100D01*
X120294730Y-100847100D01*
X120259789Y-100842075D01*
X120244790Y-100837670D01*
X120186044Y-100799927D01*
X120184857Y-100798558D01*
X120157377Y-100743683D01*
X120155732Y-100736121D01*
X120152900Y-100709768D01*
X120152900Y-83897139D01*
X120944500Y-83897139D01*
X120944500Y-85692872D01*
X120944659Y-85694806D01*
X120944885Y-85696454D01*
X120950907Y-85752482D01*
X120960506Y-85778217D01*
X121001202Y-85887328D01*
X121001206Y-85887335D01*
X121026523Y-85921154D01*
X121087450Y-86002542D01*
X121087456Y-86002548D01*
X121108378Y-86018210D01*
X121202664Y-86088793D01*
X121202671Y-86088797D01*
X121313657Y-86130192D01*
X121317376Y-86131579D01*
X121348350Y-86148491D01*
X121359461Y-86156808D01*
X121401334Y-86212740D01*
X121406321Y-86282432D01*
X121406318Y-86282445D01*
X121405342Y-86286930D01*
X121371860Y-86348244D01*
X121264886Y-86455218D01*
X121139949Y-86627182D01*
X121043445Y-86816580D01*
X120977754Y-87018755D01*
X120977752Y-87018762D01*
X120960266Y-87129171D01*
X120960266Y-87129172D01*
X120944500Y-87228713D01*
X120944500Y-87441291D01*
X120954534Y-87504644D01*
X120965111Y-87571422D01*
X120977754Y-87651244D01*
X120991117Y-87692372D01*
X121004471Y-87733471D01*
X121004481Y-87733500D01*
X121043445Y-87853418D01*
X121135486Y-88034056D01*
X121139951Y-88042820D01*
X121264890Y-88214786D01*
X121415213Y-88365109D01*
X121587182Y-88490050D01*
X121587190Y-88490054D01*
X121587693Y-88490363D01*
X121589174Y-88491496D01*
X121591122Y-88492912D01*
X121591086Y-88492960D01*
X121608034Y-88505934D01*
X121618315Y-88515643D01*
X121653541Y-88575983D01*
X121650552Y-88645789D01*
X121614383Y-88699507D01*
X121607227Y-88705708D01*
X121590814Y-88717723D01*
X121587190Y-88719943D01*
X121415210Y-88844892D01*
X121264892Y-88995210D01*
X121245228Y-89022276D01*
X121152796Y-89149500D01*
X121139949Y-89167182D01*
X121043445Y-89356580D01*
X120977752Y-89558759D01*
X120944500Y-89768707D01*
X120944500Y-89981291D01*
X120959952Y-90078848D01*
X120972215Y-90156275D01*
X120977754Y-90191243D01*
X121038818Y-90379179D01*
X121043444Y-90393414D01*
X121139951Y-90582820D01*
X121264890Y-90754786D01*
X121415213Y-90905109D01*
X121587182Y-91030050D01*
X121587190Y-91030054D01*
X121587693Y-91030363D01*
X121589174Y-91031496D01*
X121591122Y-91032912D01*
X121591086Y-91032960D01*
X121608034Y-91045934D01*
X121618315Y-91055643D01*
X121653541Y-91115983D01*
X121650552Y-91185789D01*
X121614383Y-91239507D01*
X121607227Y-91245708D01*
X121590814Y-91257723D01*
X121587190Y-91259943D01*
X121415210Y-91384892D01*
X121319583Y-91480520D01*
X121264890Y-91535213D01*
X121150885Y-91692130D01*
X121139949Y-91707182D01*
X121043445Y-91896580D01*
X120977754Y-92098755D01*
X120977752Y-92098761D01*
X120965678Y-92174997D01*
X120944500Y-92308712D01*
X120944500Y-92521286D01*
X120947482Y-92540114D01*
X120947482Y-92540115D01*
X120961435Y-92628213D01*
X120977753Y-92731243D01*
X120989767Y-92768215D01*
X121043445Y-92933418D01*
X121135486Y-93114056D01*
X121139951Y-93122820D01*
X121264890Y-93294786D01*
X121264892Y-93294788D01*
X121415216Y-93445112D01*
X121587900Y-93570573D01*
X121589387Y-93571520D01*
X121590225Y-93572079D01*
X121590142Y-93572202D01*
X121591311Y-93573051D01*
X121591195Y-93573209D01*
X121608741Y-93586361D01*
X121618865Y-93595921D01*
X121654091Y-93656259D01*
X121651105Y-93726065D01*
X121614938Y-93779785D01*
X121607614Y-93786132D01*
X121589059Y-93799432D01*
X121587440Y-93800379D01*
X121533282Y-93839726D01*
X121533281Y-93839727D01*
X122038850Y-94345296D01*
X122072335Y-94406619D01*
X122067351Y-94476311D01*
X122025479Y-94532244D01*
X122013173Y-94540362D01*
X121987996Y-94554898D01*
X121987990Y-94554903D01*
X121894903Y-94647990D01*
X121894898Y-94647996D01*
X121880362Y-94673173D01*
X121829793Y-94721387D01*
X121761185Y-94734607D01*
X121696322Y-94708637D01*
X121685296Y-94698850D01*
X121179728Y-94193282D01*
X121179727Y-94193282D01*
X121140380Y-94247438D01*
X121043903Y-94436784D01*
X120978242Y-94638865D01*
X120976798Y-94647990D01*
X120945000Y-94848753D01*
X120945000Y-95061246D01*
X120968959Y-95212516D01*
X120976715Y-95261485D01*
X120976716Y-95261493D01*
X120978242Y-95271133D01*
X121012886Y-95377754D01*
X121043904Y-95473217D01*
X121101045Y-95585361D01*
X121140374Y-95662548D01*
X121140375Y-95662550D01*
X121175674Y-95711137D01*
X121179728Y-95716716D01*
X121685297Y-95211147D01*
X121746619Y-95177663D01*
X121816311Y-95182647D01*
X121872244Y-95224519D01*
X121880363Y-95236828D01*
X121894896Y-95262000D01*
X121894899Y-95262004D01*
X121894901Y-95262007D01*
X121987993Y-95355099D01*
X122013169Y-95369634D01*
X122061384Y-95420202D01*
X122074606Y-95488809D01*
X122048638Y-95553673D01*
X122038849Y-95564702D01*
X121533282Y-96070268D01*
X121533282Y-96070269D01*
X121533282Y-96070270D01*
X121541373Y-96086149D01*
X121580612Y-96106142D01*
X121609450Y-96126469D01*
X121618868Y-96135363D01*
X121654092Y-96195700D01*
X121651104Y-96265505D01*
X121614932Y-96319229D01*
X121607929Y-96325297D01*
X121590944Y-96336776D01*
X121591331Y-96337407D01*
X121587172Y-96339955D01*
X121415216Y-96464886D01*
X121264892Y-96615210D01*
X121247091Y-96639711D01*
X121146268Y-96778485D01*
X121139949Y-96787182D01*
X121043417Y-96976637D01*
X121042946Y-96977578D01*
X121041864Y-96981445D01*
X121030475Y-97016498D01*
X121025000Y-97033349D01*
X121005721Y-97092683D01*
X120977753Y-97178759D01*
X120954092Y-97328149D01*
X120944500Y-97388708D01*
X120944500Y-97388713D01*
X120944500Y-97601287D01*
X120949372Y-97632049D01*
X120977754Y-97811244D01*
X120977754Y-97811247D01*
X121042419Y-98010264D01*
X121043441Y-98013409D01*
X121043442Y-98013411D01*
X121087073Y-98099041D01*
X121139951Y-98202820D01*
X121264890Y-98374786D01*
X121264892Y-98374788D01*
X121415216Y-98525112D01*
X121587183Y-98650052D01*
X121587471Y-98650197D01*
X121776588Y-98746557D01*
X121978757Y-98812246D01*
X122188713Y-98845500D01*
X122188714Y-98845500D01*
X122401286Y-98845500D01*
X122401287Y-98845500D01*
X122611243Y-98812246D01*
X122813412Y-98746557D01*
X123002816Y-98650051D01*
X123025733Y-98633400D01*
X123032880Y-98628209D01*
X123058537Y-98609567D01*
X123174786Y-98525109D01*
X123174788Y-98525106D01*
X123174792Y-98525104D01*
X123174797Y-98525098D01*
X123174849Y-98525061D01*
X123175592Y-98524303D01*
X123324290Y-98375605D01*
X123325065Y-98374845D01*
X123325124Y-98374765D01*
X123444315Y-98210712D01*
X123444321Y-98210704D01*
X123455782Y-98194928D01*
X123458062Y-98191789D01*
X123468229Y-98179531D01*
X123475647Y-98171678D01*
X123535985Y-98136457D01*
X123605791Y-98139447D01*
X123659503Y-98175612D01*
X123665707Y-98182771D01*
X123677729Y-98199193D01*
X123679949Y-98202817D01*
X123679951Y-98202820D01*
X123804890Y-98374786D01*
X123804892Y-98374788D01*
X123955216Y-98525112D01*
X124127183Y-98650052D01*
X124127471Y-98650197D01*
X124316588Y-98746557D01*
X124518757Y-98812246D01*
X124728713Y-98845500D01*
X124728714Y-98845500D01*
X124941286Y-98845500D01*
X124941287Y-98845500D01*
X125151243Y-98812246D01*
X125353412Y-98746557D01*
X125542816Y-98650051D01*
X125565733Y-98633400D01*
X125572880Y-98628209D01*
X125598537Y-98609567D01*
X125714786Y-98525109D01*
X125714788Y-98525106D01*
X125714792Y-98525104D01*
X125714797Y-98525098D01*
X125714849Y-98525061D01*
X125715592Y-98524303D01*
X125864290Y-98375605D01*
X125865065Y-98374845D01*
X125865124Y-98374765D01*
X125990048Y-98202820D01*
X125990047Y-98202820D01*
X125990051Y-98202816D01*
X125990053Y-98202810D01*
X126010445Y-98174744D01*
X126018730Y-98146529D01*
X126086557Y-98013412D01*
X126152246Y-97811243D01*
X126185500Y-97601287D01*
X126185500Y-97388713D01*
X126152246Y-97178757D01*
X126086557Y-96976588D01*
X125990197Y-96787471D01*
X125990052Y-96787183D01*
X125865112Y-96615216D01*
X125714788Y-96464892D01*
X125714786Y-96464890D01*
X125542817Y-96339949D01*
X125542812Y-96339946D01*
X125541584Y-96339194D01*
X125521242Y-96323624D01*
X125511127Y-96314071D01*
X125475906Y-96253734D01*
X125478896Y-96183929D01*
X125515066Y-96130210D01*
X125522122Y-96124096D01*
X125538537Y-96112083D01*
X125542542Y-96109628D01*
X125542555Y-96109622D01*
X125564119Y-96093953D01*
X125590858Y-96084412D01*
X125596717Y-96070269D01*
X125091149Y-95564702D01*
X125057664Y-95503379D01*
X125062648Y-95433688D01*
X125104519Y-95377754D01*
X125116822Y-95369639D01*
X125142007Y-95355099D01*
X125235099Y-95262007D01*
X125249634Y-95236830D01*
X125300199Y-95188616D01*
X125368805Y-95175391D01*
X125433671Y-95201358D01*
X125444702Y-95211149D01*
X125950269Y-95716717D01*
X125950269Y-95716716D01*
X125950270Y-95716717D01*
X125950270Y-95716716D01*
X125963738Y-95711137D01*
X125969955Y-95689967D01*
X125973947Y-95684128D01*
X125989622Y-95662554D01*
X126086095Y-95473217D01*
X126151757Y-95271130D01*
X126151757Y-95271127D01*
X126185000Y-95061246D01*
X126185000Y-94848753D01*
X126171260Y-94762007D01*
X126153284Y-94648511D01*
X126153283Y-94648505D01*
X126153283Y-94648506D01*
X126151756Y-94638865D01*
X126124473Y-94554898D01*
X126086095Y-94436782D01*
X125989624Y-94247449D01*
X125950270Y-94193282D01*
X125950269Y-94193282D01*
X125950268Y-94193282D01*
X125444702Y-94698849D01*
X125383379Y-94732334D01*
X125313687Y-94727350D01*
X125257754Y-94685478D01*
X125249634Y-94673169D01*
X125248473Y-94671158D01*
X125235099Y-94647993D01*
X125142007Y-94554901D01*
X125142004Y-94554899D01*
X125142000Y-94554896D01*
X125116828Y-94540363D01*
X125068613Y-94489796D01*
X125055391Y-94421189D01*
X125081359Y-94356324D01*
X125091135Y-94345310D01*
X125596716Y-93839728D01*
X125596713Y-93839726D01*
X125562501Y-93814870D01*
X125556998Y-93807734D01*
X125549388Y-93803857D01*
X125520539Y-93783521D01*
X125516583Y-93779785D01*
X125511128Y-93774633D01*
X125475905Y-93714292D01*
X125478897Y-93644487D01*
X125515070Y-93590767D01*
X125522084Y-93584690D01*
X125539083Y-93573282D01*
X125538663Y-93572596D01*
X125542814Y-93570052D01*
X125542813Y-93570052D01*
X125542816Y-93570051D01*
X125622007Y-93512515D01*
X125714786Y-93445109D01*
X125714787Y-93445107D01*
X125714846Y-93445064D01*
X125715605Y-93444290D01*
X125864290Y-93295605D01*
X125865065Y-93294845D01*
X125865124Y-93294765D01*
X125990048Y-93122820D01*
X125990047Y-93122820D01*
X125990051Y-93122816D01*
X125990053Y-93122810D01*
X126010445Y-93094744D01*
X126018730Y-93066529D01*
X126086557Y-92933412D01*
X126152246Y-92731243D01*
X126185500Y-92521287D01*
X126185500Y-92308713D01*
X126152246Y-92098757D01*
X126086557Y-91896588D01*
X125990197Y-91707471D01*
X125990052Y-91707183D01*
X125865112Y-91535216D01*
X125714782Y-91384886D01*
X125542824Y-91259953D01*
X125542258Y-91259606D01*
X125542089Y-91259419D01*
X125538901Y-91257103D01*
X125539388Y-91256431D01*
X125538725Y-91255698D01*
X125521960Y-91244062D01*
X125511683Y-91234357D01*
X125497543Y-91210136D01*
X125495406Y-91207772D01*
X125495107Y-91205963D01*
X125476457Y-91174017D01*
X125479445Y-91104212D01*
X125515612Y-91050495D01*
X125522783Y-91044281D01*
X125539194Y-91032269D01*
X125542797Y-91030060D01*
X125542816Y-91030051D01*
X125592237Y-90994145D01*
X125714786Y-90905109D01*
X125714788Y-90905106D01*
X125714792Y-90905104D01*
X125714794Y-90905101D01*
X125714845Y-90905065D01*
X125715592Y-90904303D01*
X125864290Y-90755605D01*
X125865065Y-90754845D01*
X125865124Y-90754765D01*
X125891279Y-90718765D01*
X125990048Y-90582820D01*
X125990047Y-90582820D01*
X125990051Y-90582816D01*
X125990053Y-90582810D01*
X126010445Y-90554744D01*
X126018730Y-90526529D01*
X126086557Y-90393412D01*
X126152246Y-90191243D01*
X126185500Y-89981287D01*
X126185500Y-89768713D01*
X126152246Y-89558757D01*
X126086557Y-89356588D01*
X125990197Y-89167471D01*
X125990052Y-89167183D01*
X125865112Y-88995216D01*
X125714788Y-88844892D01*
X125714786Y-88844890D01*
X125542820Y-88719951D01*
X125542815Y-88719948D01*
X125542809Y-88719944D01*
X125542310Y-88719638D01*
X125542160Y-88719472D01*
X125538877Y-88717087D01*
X125539378Y-88716397D01*
X125538707Y-88715656D01*
X125521961Y-88704064D01*
X125511680Y-88694354D01*
X125497576Y-88670194D01*
X125495434Y-88667827D01*
X125495132Y-88666009D01*
X125476456Y-88634017D01*
X125479445Y-88564211D01*
X125515612Y-88510495D01*
X125522783Y-88504281D01*
X125539194Y-88492269D01*
X125542794Y-88490062D01*
X125542816Y-88490051D01*
X125681141Y-88389553D01*
X125714786Y-88365109D01*
X125714788Y-88365106D01*
X125714792Y-88365104D01*
X125714794Y-88365101D01*
X125714847Y-88365063D01*
X125715605Y-88364290D01*
X125864290Y-88215605D01*
X125865065Y-88214845D01*
X125865124Y-88214765D01*
X125990048Y-88042820D01*
X125990047Y-88042820D01*
X125990051Y-88042816D01*
X125990053Y-88042810D01*
X126010445Y-88014744D01*
X126018730Y-87986529D01*
X126086557Y-87853412D01*
X126152246Y-87651243D01*
X126185500Y-87441287D01*
X126185500Y-87228713D01*
X126152246Y-87018757D01*
X126086557Y-86816588D01*
X125990197Y-86627471D01*
X125990052Y-86627183D01*
X125865112Y-86455216D01*
X125714788Y-86304892D01*
X125714786Y-86304890D01*
X125542820Y-86179951D01*
X125542811Y-86179946D01*
X125542302Y-86179634D01*
X125542147Y-86179462D01*
X125538877Y-86177087D01*
X125539376Y-86176399D01*
X125538696Y-86175648D01*
X125521960Y-86164063D01*
X125517136Y-86159507D01*
X125511680Y-86154354D01*
X125497575Y-86130192D01*
X125495429Y-86127820D01*
X125495127Y-86125999D01*
X125476457Y-86094017D01*
X125479445Y-86024211D01*
X125515612Y-85970495D01*
X125522783Y-85964281D01*
X125539201Y-85952266D01*
X125542808Y-85950055D01*
X125542807Y-85950055D01*
X125542816Y-85950051D01*
X125582591Y-85921153D01*
X125629151Y-85887326D01*
X125714771Y-85825120D01*
X125714844Y-85825066D01*
X125715605Y-85824290D01*
X125864290Y-85675605D01*
X125865065Y-85674845D01*
X125865124Y-85674765D01*
X125990048Y-85502820D01*
X125990047Y-85502820D01*
X125990051Y-85502816D01*
X125990053Y-85502810D01*
X126010445Y-85474744D01*
X126018730Y-85446529D01*
X126086557Y-85313412D01*
X126152246Y-85111243D01*
X126185500Y-84901287D01*
X126185500Y-84688713D01*
X126152246Y-84478757D01*
X126086557Y-84276588D01*
X125990197Y-84087471D01*
X125990052Y-84087183D01*
X125865112Y-83915216D01*
X125714788Y-83764892D01*
X125714786Y-83764890D01*
X125542820Y-83639951D01*
X125370911Y-83552359D01*
X125365571Y-83548479D01*
X125341254Y-83538406D01*
X125334734Y-83537374D01*
X125273726Y-83517551D01*
X125160074Y-83480623D01*
X125155552Y-83478770D01*
X125146362Y-83476600D01*
X125141599Y-83476226D01*
X124989957Y-83452208D01*
X124969139Y-83448911D01*
X124941290Y-83444500D01*
X124941287Y-83444500D01*
X124728713Y-83444500D01*
X124728709Y-83444500D01*
X124689776Y-83450666D01*
X124680042Y-83452208D01*
X124654308Y-83456284D01*
X124518763Y-83477752D01*
X124316582Y-83543445D01*
X124127182Y-83639949D01*
X123955218Y-83764886D01*
X123854281Y-83865823D01*
X123826024Y-83886975D01*
X123813841Y-83893627D01*
X123745568Y-83908477D01*
X123680104Y-83884058D01*
X123680105Y-83884058D01*
X123678412Y-83882791D01*
X123676414Y-83881295D01*
X123634563Y-83825376D01*
X123613243Y-83768215D01*
X123588797Y-83702671D01*
X123588793Y-83702664D01*
X123502547Y-83587455D01*
X123502544Y-83587452D01*
X123502542Y-83587450D01*
X123412089Y-83519737D01*
X123387335Y-83501206D01*
X123387332Y-83501204D01*
X123387330Y-83501203D01*
X123387328Y-83501202D01*
X123337844Y-83482746D01*
X123302497Y-83456284D01*
X123200583Y-83445328D01*
X123195742Y-83444500D01*
X123192881Y-83444500D01*
X123192873Y-83444500D01*
X123192864Y-83444500D01*
X121397129Y-83444500D01*
X121397123Y-83444500D01*
X121395192Y-83444659D01*
X121393545Y-83444885D01*
X121337516Y-83450908D01*
X121208991Y-83498845D01*
X121202666Y-83501204D01*
X121202665Y-83501205D01*
X121087456Y-83587450D01*
X121087450Y-83587456D01*
X121001205Y-83702665D01*
X121001203Y-83702668D01*
X120950907Y-83837516D01*
X120944501Y-83897116D01*
X120944500Y-83897139D01*
X120152900Y-83897139D01*
X120152900Y-81294729D01*
X120157923Y-81259793D01*
X120162327Y-81244795D01*
X120200072Y-81186044D01*
X120201441Y-81184857D01*
X120256320Y-81157377D01*
X120263879Y-81155733D01*
X120290232Y-81152900D01*
X170370500Y-81152900D01*
X170437539Y-81172585D01*
G37*
%TD.AperFunction*%
%TD*%
M02*
