%TF.GenerationSoftware,KiCad,Pcbnew,10.0.5*%
%TF.CreationDate,2026-07-25T21:44:09-05:00*%
%TF.ProjectId,biscotti,62697363-6f74-4746-992e-6b696361645f,rev?*%
%TF.SameCoordinates,Original*%
%TF.FileFunction,Copper,L1,Top*%
%TF.FilePolarity,Positive*%
%FSLAX46Y46*%
G04 Gerber Fmt 4.6, Leading zero omitted, Abs format (unit mm)*
G04 Created by KiCad (PCBNEW 10.0.5) date 2026-07-25 21:44:09*
%MOMM*%
%LPD*%
G01*
G04 APERTURE LIST*
G04 Aperture macros list*
%AMRoundRect*
0 Rectangle with rounded corners*
0 $1 Rounding radius*
0 $2 $3 $4 $5 $6 $7 $8 $9 X,Y pos of 4 corners*
0 Add a 4 corners polygon primitive as box body*
4,1,4,$2,$3,$4,$5,$6,$7,$8,$9,$2,$3,0*
0 Add four circle primitives for the rounded corners*
1,1,$1+$1,$2,$3*
1,1,$1+$1,$4,$5*
1,1,$1+$1,$6,$7*
1,1,$1+$1,$8,$9*
0 Add four rect primitives between the rounded corners*
20,1,$1+$1,$2,$3,$4,$5,0*
20,1,$1+$1,$4,$5,$6,$7,0*
20,1,$1+$1,$6,$7,$8,$9,0*
20,1,$1+$1,$8,$9,$2,$3,0*%
G04 Aperture macros list end*
%TA.AperFunction,SMDPad,CuDef*%
%ADD10RoundRect,0.250000X0.650000X-0.412500X0.650000X0.412500X-0.650000X0.412500X-0.650000X-0.412500X0*%
%TD*%
%TA.AperFunction,SMDPad,CuDef*%
%ADD11RoundRect,0.250000X-0.650000X0.412500X-0.650000X-0.412500X0.650000X-0.412500X0.650000X0.412500X0*%
%TD*%
%TA.AperFunction,SMDPad,CuDef*%
%ADD12RoundRect,0.250000X0.400000X0.625000X-0.400000X0.625000X-0.400000X-0.625000X0.400000X-0.625000X0*%
%TD*%
%TA.AperFunction,ComponentPad*%
%ADD13R,1.700000X1.700000*%
%TD*%
%TA.AperFunction,ComponentPad*%
%ADD14C,1.700000*%
%TD*%
%TA.AperFunction,ComponentPad*%
%ADD15R,1.800000X1.800000*%
%TD*%
%TA.AperFunction,ComponentPad*%
%ADD16C,1.800000*%
%TD*%
%TA.AperFunction,ComponentPad*%
%ADD17C,2.000000*%
%TD*%
%TA.AperFunction,ComponentPad*%
%ADD18C,3.000000*%
%TD*%
%TA.AperFunction,SMDPad,CuDef*%
%ADD19RoundRect,0.250000X-0.625000X0.400000X-0.625000X-0.400000X0.625000X-0.400000X0.625000X0.400000X0*%
%TD*%
%TA.AperFunction,SMDPad,CuDef*%
%ADD20RoundRect,0.062500X-0.062500X0.375000X-0.062500X-0.375000X0.062500X-0.375000X0.062500X0.375000X0*%
%TD*%
%TA.AperFunction,SMDPad,CuDef*%
%ADD21RoundRect,0.062500X-0.375000X0.062500X-0.375000X-0.062500X0.375000X-0.062500X0.375000X0.062500X0*%
%TD*%
%TA.AperFunction,HeatsinkPad*%
%ADD22C,0.500000*%
%TD*%
%TA.AperFunction,HeatsinkPad*%
%ADD23R,2.500000X2.500000*%
%TD*%
%TA.AperFunction,SMDPad,CuDef*%
%ADD24RoundRect,0.250000X-0.400000X-0.625000X0.400000X-0.625000X0.400000X0.625000X-0.400000X0.625000X0*%
%TD*%
%TA.AperFunction,SMDPad,CuDef*%
%ADD25RoundRect,0.250000X0.412500X0.650000X-0.412500X0.650000X-0.412500X-0.650000X0.412500X-0.650000X0*%
%TD*%
%TA.AperFunction,SMDPad,CuDef*%
%ADD26RoundRect,0.250000X0.625000X-0.400000X0.625000X0.400000X-0.625000X0.400000X-0.625000X-0.400000X0*%
%TD*%
%TA.AperFunction,SMDPad,CuDef*%
%ADD27RoundRect,0.250000X-0.412500X-0.650000X0.412500X-0.650000X0.412500X0.650000X-0.412500X0.650000X0*%
%TD*%
%TA.AperFunction,SMDPad,CuDef*%
%ADD28RoundRect,0.250000X0.362500X0.700000X-0.362500X0.700000X-0.362500X-0.700000X0.362500X-0.700000X0*%
%TD*%
%TA.AperFunction,ViaPad*%
%ADD29C,0.600000*%
%TD*%
%TA.AperFunction,Conductor*%
%ADD30C,0.200000*%
%TD*%
G04 APERTURE END LIST*
D10*
%TO.P,C8,1*%
%TO.N,VDDA*%
X134000000Y-99250000D03*
%TO.P,C8,2*%
%TO.N,GND*%
X134000000Y-96125000D03*
%TD*%
D11*
%TO.P,C7,1*%
%TO.N,Net-(J4-TD-)*%
X169500000Y-91250000D03*
%TO.P,C7,2*%
%TO.N,GND*%
X169500000Y-94375000D03*
%TD*%
D12*
%TO.P,R1,1*%
%TO.N,VDD*%
X139000000Y-82750000D03*
%TO.P,R1,2*%
%TO.N,/MDIO*%
X135900000Y-82750000D03*
%TD*%
D13*
%TO.P,J1,1,Pin_1_1*%
%TO.N,/MDIO*%
X133040000Y-83000000D03*
D14*
%TO.P,J1,2,Pin_2_2*%
%TO.N,/MDC*%
X130500000Y-83000000D03*
%TD*%
D15*
%TO.P,J4,1,TD+_1*%
%TO.N,Net-(J4-TD+)*%
X176700000Y-95450000D03*
D16*
%TO.P,J4,2,TD-_2*%
%TO.N,Net-(J4-TD-)*%
X174160000Y-94180000D03*
%TO.P,J4,3,RD+_3*%
%TO.N,Net-(J4-RD+)*%
X176700000Y-92910000D03*
%TO.P,J4,4,TCT_4*%
%TO.N,VDDA*%
X174160000Y-91640000D03*
%TO.P,J4,5,RCT_5*%
X176700000Y-90370000D03*
%TO.P,J4,6,RD-_6*%
%TO.N,Net-(J4-RD-)*%
X174160000Y-89100000D03*
%TO.P,J4,7,NC_7*%
%TO.N,unconnected-(J4-NC-Pad7)*%
X176700000Y-87830000D03*
%TO.P,J4,8*%
%TO.N,EGND*%
X174160000Y-86560000D03*
D17*
%TO.P,J4,9*%
%TO.N,/LED1*%
X187110000Y-97635000D03*
%TO.P,J4,10*%
%TO.N,/Y-*%
X187110000Y-95095000D03*
%TO.P,J4,11*%
%TO.N,VDDA*%
X187110000Y-86915000D03*
%TO.P,J4,12*%
%TO.N,/G-*%
X187110000Y-84375000D03*
D18*
%TO.P,J4,SH*%
%TO.N,EGND*%
X180000000Y-98750000D03*
X180000000Y-83260000D03*
%TD*%
D19*
%TO.P,R6,1*%
%TO.N,VDD*%
X147500000Y-85400000D03*
%TO.P,R6,2*%
%TO.N,Net-(U1-RXD0{slash}MODE0)*%
X147500000Y-88500000D03*
%TD*%
D20*
%TO.P,U1,1,VDD2A_1*%
%TO.N,VDDA*%
X156750000Y-88000000D03*
%TO.P,U1,2,LED2/~{INTSEL}_2*%
%TO.N,/LED2*%
X156250000Y-88000000D03*
%TO.P,U1,3,LED1/REGOFF_3*%
%TO.N,/LED1*%
X155750000Y-88000000D03*
%TO.P,U1,4,XTAL2_4*%
%TO.N,unconnected-(U1-XTAL2-Pad4)*%
X155250000Y-88000000D03*
%TO.P,U1,5,XTAL1/CLKIN_5*%
%TO.N,/Clk*%
X154750000Y-88000000D03*
%TO.P,U1,6,VDDCR_6*%
%TO.N,/VDDCR*%
X154250000Y-88000000D03*
D21*
%TO.P,U1,7,RXD1/MODE1_7*%
%TO.N,Net-(U1-RXD1{slash}MODE1)*%
X153562500Y-88687500D03*
%TO.P,U1,8,RXD0/MODE0_8*%
%TO.N,Net-(U1-RXD0{slash}MODE0)*%
X153562500Y-89187500D03*
%TO.P,U1,9,VDDIO_9*%
%TO.N,VDD*%
X153562500Y-89687500D03*
%TO.P,U1,10,RXER/PHYAD0_10*%
%TO.N,Net-(U1-RXER{slash}PHYAD0)*%
X153562500Y-90187500D03*
%TO.P,U1,11,CRS_DV/MODE2_11*%
%TO.N,Net-(U1-CRS_DV{slash}MODE2)*%
X153562500Y-90687500D03*
%TO.P,U1,12,MDIO_12*%
%TO.N,/MDIO*%
X153562500Y-91187500D03*
D20*
%TO.P,U1,13,MDC_13*%
%TO.N,/MDC*%
X154250000Y-91875000D03*
%TO.P,U1,14,~{INT}/REFCLKO_14*%
%TO.N,/nINT*%
X154750000Y-91875000D03*
%TO.P,U1,15,~{RST}_15*%
%TO.N,/nRST*%
X155250000Y-91875000D03*
%TO.P,U1,16,TXEN_16*%
%TO.N,/TXV*%
X155750000Y-91875000D03*
%TO.P,U1,17,TXD0_17*%
%TO.N,/TXD[0]*%
X156250000Y-91875000D03*
%TO.P,U1,18,TXD1_18*%
%TO.N,/TXD[1]*%
X156750000Y-91875000D03*
D21*
%TO.P,U1,19,VDD1A_19*%
%TO.N,VDDA*%
X157437500Y-91187500D03*
%TO.P,U1,20,TXN_20*%
%TO.N,Net-(J4-TD-)*%
X157437500Y-90687500D03*
%TO.P,U1,21,TXP_21*%
%TO.N,Net-(J4-TD+)*%
X157437500Y-90187500D03*
%TO.P,U1,22,RXN_22*%
%TO.N,Net-(J4-RD-)*%
X157437500Y-89687500D03*
%TO.P,U1,23,RXP_23*%
%TO.N,Net-(J4-RD+)*%
X157437500Y-89187500D03*
%TO.P,U1,24,RBIAS_24*%
%TO.N,Net-(U1-RBIAS)*%
X157437500Y-88687500D03*
D22*
%TO.P,U1,25,VSS_25*%
%TO.N,GND*%
X156500000Y-88937500D03*
X155500000Y-88937500D03*
X154500000Y-88937500D03*
X156500000Y-89937500D03*
X155500000Y-89937500D03*
D23*
X155500000Y-89937500D03*
D22*
X154500000Y-89937500D03*
X156500000Y-90937500D03*
X155500000Y-90937500D03*
X154500000Y-90937500D03*
%TD*%
D24*
%TO.P,R13,1*%
%TO.N,Net-(U1-RBIAS)*%
X160650000Y-83000000D03*
%TO.P,R13,2*%
%TO.N,GND*%
X163750000Y-83000000D03*
%TD*%
%TO.P,R5,2*%
%TO.N,Net-(U1-CRS_DV{slash}MODE2)*%
X143750000Y-93940000D03*
%TO.P,R5,1*%
%TO.N,/RXV*%
X140650000Y-93940000D03*
%TD*%
D25*
%TO.P,C10,1*%
%TO.N,VDDA*%
X165000000Y-96500000D03*
%TO.P,C10,2*%
%TO.N,GND*%
X161875000Y-96500000D03*
%TD*%
D24*
%TO.P,R2,1*%
%TO.N,/RXD[0]*%
X140650000Y-88562500D03*
%TO.P,R2,2*%
%TO.N,Net-(U1-RXD0{slash}MODE0)*%
X143750000Y-88562500D03*
%TD*%
%TO.P,R10,1*%
%TO.N,VDD*%
X145650000Y-99000000D03*
%TO.P,R10,2*%
%TO.N,/nINT*%
X148750000Y-99000000D03*
%TD*%
D19*
%TO.P,R15,1*%
%TO.N,VDDA*%
X160500000Y-85400000D03*
%TO.P,R15,2*%
%TO.N,Net-(J4-RD+)*%
X160500000Y-88500000D03*
%TD*%
D10*
%TO.P,C4,1*%
%TO.N,Net-(J4-RD-)*%
X169500000Y-88500000D03*
%TO.P,C4,2*%
%TO.N,GND*%
X169500000Y-85375000D03*
%TD*%
D26*
%TO.P,R17,1*%
%TO.N,/LED2*%
X157000000Y-85850000D03*
%TO.P,R17,2*%
%TO.N,/G-*%
X157000000Y-82750000D03*
%TD*%
D19*
%TO.P,R8,1*%
%TO.N,VDD*%
X150250000Y-85400000D03*
%TO.P,R8,2*%
%TO.N,Net-(U1-RXD1{slash}MODE1)*%
X150250000Y-88500000D03*
%TD*%
%TO.P,R7,1*%
%TO.N,Net-(U1-CRS_DV{slash}MODE2)*%
X150250000Y-91400000D03*
%TO.P,R7,2*%
%TO.N,GND*%
X150250000Y-94500000D03*
%TD*%
D27*
%TO.P,C3,1*%
%TO.N,/VDDCR*%
X146625000Y-82750000D03*
%TO.P,C3,2*%
%TO.N,GND*%
X149750000Y-82750000D03*
%TD*%
D26*
%TO.P,R12,1*%
%TO.N,VDDA*%
X160500000Y-94350000D03*
%TO.P,R12,2*%
%TO.N,Net-(J4-TD+)*%
X160500000Y-91250000D03*
%TD*%
D11*
%TO.P,C9,1*%
%TO.N,Net-(J4-TD+)*%
X166500000Y-91250000D03*
%TO.P,C9,2*%
%TO.N,GND*%
X166500000Y-94375000D03*
%TD*%
D27*
%TO.P,C11,1*%
%TO.N,VDDA*%
X167275000Y-96500000D03*
%TO.P,C11,2*%
%TO.N,GND*%
X170400000Y-96500000D03*
%TD*%
D25*
%TO.P,C2,1*%
%TO.N,/VDDCR*%
X144250000Y-82750000D03*
%TO.P,C2,2*%
%TO.N,GND*%
X141125000Y-82750000D03*
%TD*%
D13*
%TO.P,J3,1,Pin_1_1*%
%TO.N,/nINT*%
X142750000Y-98750000D03*
%TD*%
D12*
%TO.P,R11,1*%
%TO.N,VDD*%
X159500000Y-99000000D03*
%TO.P,R11,2*%
%TO.N,/nRST*%
X156400000Y-99000000D03*
%TD*%
D19*
%TO.P,R9,1*%
%TO.N,Net-(U1-RXER{slash}PHYAD0)*%
X147500000Y-91400000D03*
%TO.P,R9,2*%
%TO.N,GND*%
X147500000Y-94500000D03*
%TD*%
D10*
%TO.P,C6,1*%
%TO.N,VDDA*%
X136750000Y-99250000D03*
%TO.P,C6,2*%
%TO.N,GND*%
X136750000Y-96125000D03*
%TD*%
D26*
%TO.P,R14,1*%
%TO.N,VDDA*%
X163500000Y-94350000D03*
%TO.P,R14,2*%
%TO.N,Net-(J4-TD-)*%
X163500000Y-91250000D03*
%TD*%
D24*
%TO.P,R18,1*%
%TO.N,GND*%
X166250000Y-83000000D03*
%TO.P,R18,2*%
%TO.N,/Y-*%
X169350000Y-83000000D03*
%TD*%
D10*
%TO.P,C5,1*%
%TO.N,Net-(J4-RD+)*%
X166500000Y-88500000D03*
%TO.P,C5,2*%
%TO.N,GND*%
X166500000Y-85375000D03*
%TD*%
%TO.P,C13,1*%
%TO.N,VDD*%
X128250000Y-99250000D03*
%TO.P,C13,2*%
%TO.N,GND*%
X128250000Y-96125000D03*
%TD*%
D24*
%TO.P,R4,1*%
%TO.N,/RXERR*%
X140650000Y-91250000D03*
%TO.P,R4,2*%
%TO.N,Net-(U1-RXER{slash}PHYAD0)*%
X143750000Y-91250000D03*
%TD*%
D13*
%TO.P,J2,1,Pin_1_1*%
%TO.N,/Clk*%
X122295000Y-84795000D03*
D14*
%TO.P,J2,2,Pin_2_2*%
%TO.N,/RXD[1]*%
X124835000Y-84795000D03*
%TO.P,J2,3,Pin_3_3*%
%TO.N,/RXD[0]*%
X122295000Y-87335000D03*
%TO.P,J2,4,Pin_4_4*%
%TO.N,/RXERR*%
X124835000Y-87335000D03*
%TO.P,J2,5,Pin_5_5*%
%TO.N,/RXV*%
X122295000Y-89875000D03*
%TO.P,J2,6,Pin_6_6*%
%TO.N,/TXV*%
X124835000Y-89875000D03*
%TO.P,J2,7,Pin_7_7*%
%TO.N,/TXD[1]*%
X122295000Y-92415000D03*
%TO.P,J2,8,Pin_8_8*%
%TO.N,/TXD[0]*%
X124835000Y-92415000D03*
%TO.P,J2,9,Pin_9_9*%
%TO.N,GND*%
X122295000Y-94955000D03*
%TO.P,J2,10,Pin_10_10*%
X124835000Y-94955000D03*
%TO.P,J2,11,Pin_11_11*%
%TO.N,VDD*%
X122295000Y-97495000D03*
%TO.P,J2,12,Pin_12_12*%
X124835000Y-97495000D03*
%TD*%
D10*
%TO.P,C14,1*%
%TO.N,VDD*%
X131100000Y-99250000D03*
%TO.P,C14,2*%
%TO.N,GND*%
X131100000Y-96125000D03*
%TD*%
D25*
%TO.P,C1,1*%
%TO.N,/nRST*%
X154250000Y-99000000D03*
%TO.P,C1,2*%
%TO.N,GND*%
X151125000Y-99000000D03*
%TD*%
D19*
%TO.P,R16,1*%
%TO.N,VDDA*%
X163500000Y-85400000D03*
%TO.P,R16,2*%
%TO.N,Net-(J4-RD-)*%
X163500000Y-88500000D03*
%TD*%
D28*
%TO.P,FB1,2*%
%TO.N,VDD*%
X161675000Y-99000000D03*
%TO.P,FB1,1*%
%TO.N,VDDA*%
X165000000Y-99000000D03*
%TD*%
D24*
%TO.P,R3,1*%
%TO.N,/RXD[1]*%
X140650000Y-85812500D03*
%TO.P,R3,2*%
%TO.N,Net-(U1-RXD1{slash}MODE1)*%
X143750000Y-85812500D03*
%TD*%
D27*
%TO.P,C12,1*%
%TO.N,VDDA*%
X167250000Y-99000000D03*
%TO.P,C12,2*%
%TO.N,GND*%
X170375000Y-99000000D03*
%TD*%
D29*
%TO.N,GND*%
X158500000Y-95000000D03*
%TO.N,VDDA*%
X162000000Y-86400000D03*
X157900000Y-87500000D03*
X138750000Y-99250000D03*
X162000000Y-94600000D03*
%TO.N,GND*%
X162250000Y-83000000D03*
X145500000Y-94500000D03*
X142750000Y-82000000D03*
X135750000Y-94500000D03*
X151750000Y-82750000D03*
%TO.N,VDD*%
X146750000Y-97500000D03*
X145250000Y-90000000D03*
X137500000Y-82750000D03*
X145250000Y-86000000D03*
X159500000Y-97250000D03*
%TO.N,/MDIO*%
X152518015Y-92018015D03*
%TO.N,EGND*%
X180000000Y-89250000D03*
X180000000Y-91500000D03*
%TO.N,/LED1*%
X155500000Y-84250000D03*
X171000000Y-83750000D03*
%TO.N,/VDDCR*%
X151750000Y-86750000D03*
X148250000Y-82750000D03*
%TO.N,Net-(U1-RXD1{slash}MODE1)*%
X152500000Y-87500000D03*
X151548717Y-89087500D03*
%TO.N,/MDC*%
X152750000Y-93250000D03*
%TO.N,/nINT*%
X147250000Y-99500000D03*
X153250000Y-94000000D03*
X149000000Y-97150000D03*
%TO.N,/nRST*%
X153750000Y-94750000D03*
X154000000Y-97500000D03*
%TD*%
%TO.N,VDDA*%
D30*
X165000000Y-99500000D02*
X167125000Y-99500000D01*
X162000000Y-86400000D02*
X162000000Y-85400000D01*
X162000000Y-85400000D02*
X163500000Y-85400000D01*
X162000000Y-94600000D02*
X163500000Y-94600000D01*
X134000000Y-99250000D02*
X136750000Y-99250000D01*
X158000000Y-87500000D02*
X157900000Y-87500000D01*
X157500000Y-88000000D02*
X158000000Y-87500000D01*
X164100000Y-94350000D02*
X165000000Y-95250000D01*
X165000000Y-96500000D02*
X165000000Y-99000000D01*
X157437500Y-91187500D02*
X158121814Y-91187500D01*
X165000000Y-96500000D02*
X167275000Y-96500000D01*
X158467157Y-91532843D02*
X158467157Y-92967157D01*
X160100000Y-94600000D02*
X158467157Y-92967157D01*
X136750000Y-99250000D02*
X138750000Y-99250000D01*
X160500000Y-94600000D02*
X162000000Y-94600000D01*
X158121814Y-91187500D02*
X158467157Y-91532843D01*
X160500000Y-85400000D02*
X162000000Y-85400000D01*
X165000000Y-95250000D02*
X165000000Y-96500000D01*
X156750000Y-88000000D02*
X157500000Y-88000000D01*
%TO.N,GND*%
X131100000Y-96125000D02*
X126005000Y-96125000D01*
X170375000Y-96925000D02*
X170375000Y-99000000D01*
X164000000Y-100400000D02*
X151500000Y-100400000D01*
X150250000Y-94500000D02*
X147500000Y-94500000D01*
X163500000Y-97500000D02*
X163500000Y-99900000D01*
X166500000Y-85375000D02*
X169500000Y-85375000D01*
X168975000Y-100400000D02*
X164000000Y-100400000D01*
X141125000Y-82750000D02*
X142000000Y-82750000D01*
X166500000Y-94625000D02*
X169500000Y-94625000D01*
X149750000Y-82750000D02*
X151750000Y-82750000D01*
X151125000Y-99000000D02*
X151125000Y-100025000D01*
X166500000Y-83500000D02*
X166500000Y-85375000D01*
X162500000Y-96500000D02*
X163500000Y-97500000D01*
X124835000Y-94955000D02*
X122295000Y-94955000D01*
X121000000Y-100400000D02*
X120600000Y-100000000D01*
X122295000Y-94955000D02*
X120600000Y-96650000D01*
X163500000Y-99900000D02*
X164000000Y-100400000D01*
X135750000Y-94500000D02*
X135625000Y-94500000D01*
X169500000Y-95600000D02*
X170400000Y-96500000D01*
X170375000Y-99000000D02*
X168975000Y-100400000D01*
X126005000Y-96125000D02*
X124835000Y-94955000D01*
X151125000Y-100025000D02*
X151500000Y-100400000D01*
X142000000Y-82750000D02*
X142750000Y-82000000D01*
X162250000Y-83000000D02*
X163750000Y-83000000D01*
X169500000Y-94375000D02*
X169500000Y-95600000D01*
X163750000Y-83000000D02*
X166250000Y-83000000D01*
X147500000Y-94500000D02*
X145500000Y-94500000D01*
X131100000Y-96125000D02*
X136750000Y-96125000D01*
X120600000Y-96650000D02*
X120600000Y-100000000D01*
X135625000Y-94500000D02*
X134000000Y-96125000D01*
X161875000Y-96500000D02*
X162500000Y-96500000D01*
X151500000Y-100400000D02*
X121000000Y-100400000D01*
%TO.N,VDD*%
X124835000Y-97495000D02*
X126590000Y-99250000D01*
X137500000Y-82750000D02*
X139000000Y-82750000D01*
X145375000Y-97625000D02*
X146625000Y-97625000D01*
X159500000Y-99250000D02*
X161675000Y-99250000D01*
X153562500Y-89687500D02*
X145562500Y-89687500D01*
X145375000Y-97625000D02*
X145650000Y-97900000D01*
X159500000Y-97250000D02*
X159500000Y-99000000D01*
X146625000Y-97625000D02*
X146750000Y-97500000D01*
X144837500Y-97087500D02*
X145375000Y-97625000D01*
X131100000Y-99250000D02*
X133262500Y-97087500D01*
X145250000Y-86000000D02*
X145500000Y-86000000D01*
X147500000Y-85650000D02*
X150250000Y-85650000D01*
X145500000Y-86000000D02*
X145850000Y-85650000D01*
X145650000Y-97900000D02*
X145650000Y-99000000D01*
X145562500Y-89687500D02*
X145250000Y-90000000D01*
X133262500Y-97087500D02*
X144837500Y-97087500D01*
X126590000Y-99250000D02*
X131100000Y-99250000D01*
X145850000Y-85650000D02*
X147500000Y-85650000D01*
X122295000Y-97495000D02*
X124835000Y-97495000D01*
%TO.N,/MDIO*%
X153065686Y-91187500D02*
X153562500Y-91187500D01*
X152518015Y-91735171D02*
X153065686Y-91187500D01*
X152518015Y-92018015D02*
X152518015Y-91735171D01*
X135900000Y-82750000D02*
X133290000Y-82750000D01*
%TO.N,EGND*%
X180000000Y-89250000D02*
X180000000Y-91500000D01*
%TO.N,/LED1*%
X155500000Y-84250000D02*
X155750000Y-84500000D01*
X180600000Y-91125000D02*
X180600000Y-88600000D01*
X180600000Y-88600000D02*
X175750000Y-83750000D01*
X155750000Y-84500000D02*
X155750000Y-88000000D01*
X175750000Y-83750000D02*
X171000000Y-83750000D01*
X187110000Y-97635000D02*
X180600000Y-91125000D01*
%TO.N,/Y-*%
X185750000Y-92815686D02*
X185750000Y-93715000D01*
X169350000Y-83000000D02*
X175934314Y-83000000D01*
X175934314Y-83000000D02*
X185750000Y-92815686D01*
X185750000Y-93715000D02*
X186950000Y-94915000D01*
%TO.N,/G-*%
X187110000Y-84375000D02*
X184220000Y-87265000D01*
X157925000Y-81825000D02*
X175325000Y-81825000D01*
X175325000Y-81825000D02*
X180765000Y-87265000D01*
X157000000Y-82750000D02*
X157925000Y-81825000D01*
X184220000Y-87265000D02*
X180765000Y-87265000D01*
%TO.N,Net-(U1-RXD0{slash}MODE0)*%
X150709744Y-87400000D02*
X152497244Y-89187500D01*
X152497244Y-89187500D02*
X153562500Y-89187500D01*
X147750000Y-87400000D02*
X150709744Y-87400000D01*
X147500000Y-87650000D02*
X147750000Y-87400000D01*
X147500000Y-88750000D02*
X147500000Y-87650000D01*
X144912500Y-87400000D02*
X147750000Y-87400000D01*
X143750000Y-88562500D02*
X144912500Y-87400000D01*
%TO.N,/LED2*%
X156250000Y-88000000D02*
X156250000Y-86600000D01*
X156250000Y-86600000D02*
X157000000Y-85850000D01*
%TO.N,/Clk*%
X128250000Y-83500000D02*
X123590000Y-83500000D01*
X154750000Y-87184315D02*
X151815685Y-84250000D01*
X129000000Y-84250000D02*
X128250000Y-83500000D01*
X154750000Y-88000000D02*
X154750000Y-87184315D01*
X123590000Y-83500000D02*
X122295000Y-84795000D01*
X151815685Y-84250000D02*
X129000000Y-84250000D01*
%TO.N,/VDDCR*%
X146625000Y-82750000D02*
X148250000Y-82750000D01*
X153750000Y-86750000D02*
X151750000Y-86750000D01*
X154250000Y-88000000D02*
X154250000Y-87250000D01*
X144250000Y-82750000D02*
X146625000Y-82750000D01*
X154250000Y-87250000D02*
X153750000Y-86750000D01*
%TO.N,Net-(U1-RXD1{slash}MODE1)*%
X145250000Y-87000000D02*
X151000000Y-87000000D01*
X152500000Y-87500000D02*
X151750000Y-87500000D01*
X151750000Y-87500000D02*
X151625000Y-87625000D01*
X150250000Y-88750000D02*
X151211217Y-88750000D01*
X151625000Y-87625000D02*
X152687500Y-88687500D01*
X152687500Y-88687500D02*
X153562500Y-88687500D01*
X151000000Y-87000000D02*
X151625000Y-87625000D01*
X145250000Y-87000000D02*
X144062500Y-85812500D01*
X151211217Y-88750000D02*
X151548717Y-89087500D01*
%TO.N,Net-(U1-RXER{slash}PHYAD0)*%
X143750000Y-91250000D02*
X145000000Y-91250000D01*
X145000000Y-91250000D02*
X146062500Y-90187500D01*
X146062500Y-90187500D02*
X148250000Y-90187500D01*
X147500000Y-90937500D02*
X148250000Y-90187500D01*
X148250000Y-90187500D02*
X153562500Y-90187500D01*
%TO.N,Net-(U1-CRS_DV{slash}MODE2)*%
X150937500Y-92750000D02*
X153000000Y-90687500D01*
X143750000Y-93940000D02*
X144560000Y-93940000D01*
X150250000Y-91400000D02*
X150250000Y-92750000D01*
X150250000Y-92750000D02*
X150937500Y-92750000D01*
X144560000Y-93940000D02*
X145750000Y-92750000D01*
X145750000Y-92750000D02*
X150250000Y-92750000D01*
X153000000Y-90687500D02*
X153562500Y-90687500D01*
%TO.N,/MDC*%
X154250000Y-92500000D02*
X153500000Y-93250000D01*
X153500000Y-93250000D02*
X152750000Y-93250000D01*
X154250000Y-91875000D02*
X154250000Y-92500000D01*
%TO.N,/nINT*%
X148750000Y-97400000D02*
X149000000Y-97150000D01*
X153551472Y-94000000D02*
X154750000Y-92801471D01*
X153250000Y-94000000D02*
X153551472Y-94000000D01*
X148750000Y-99000000D02*
X148750000Y-97400000D01*
X148250000Y-99500000D02*
X147250000Y-99500000D01*
X154750000Y-91875000D02*
X154750000Y-92801471D01*
X154750000Y-91875000D02*
X154750000Y-92750000D01*
%TO.N,/nRST*%
X154250000Y-97750000D02*
X154000000Y-97500000D01*
X154250000Y-99250000D02*
X156400000Y-99250000D01*
X155250000Y-93684314D02*
X154184314Y-94750000D01*
X155250000Y-91875000D02*
X155250000Y-93684314D01*
X154184314Y-94750000D02*
X153750000Y-94750000D01*
X154250000Y-99000000D02*
X154250000Y-97750000D01*
%TO.N,/TXV*%
X134125000Y-89875000D02*
X139700000Y-95450000D01*
X124835000Y-89875000D02*
X134125000Y-89875000D01*
X139700000Y-95450000D02*
X154050000Y-95450000D01*
X154050000Y-95450000D02*
X155750000Y-93750000D01*
X155750000Y-93750000D02*
X155750000Y-91875000D01*
%TO.N,/TXD[0]*%
X154215685Y-95850000D02*
X156250000Y-93815685D01*
X154215685Y-95850000D02*
X139534314Y-95850000D01*
X156250000Y-91875000D02*
X156250000Y-93815685D01*
X139534314Y-95850000D02*
X134184314Y-90500000D01*
X134184314Y-90500000D02*
X126750000Y-90500000D01*
X126750000Y-90500000D02*
X124835000Y-92415000D01*
%TO.N,/TXD[1]*%
X123630000Y-93750000D02*
X122295000Y-92415000D01*
X134018628Y-90900000D02*
X128350000Y-90900000D01*
X125500000Y-93750000D02*
X123630000Y-93750000D01*
X134018628Y-90900000D02*
X139368628Y-96250000D01*
X128350000Y-90900000D02*
X125500000Y-93750000D01*
X156750000Y-93881370D02*
X154381370Y-96250000D01*
X156750000Y-91875000D02*
X156750000Y-93881370D01*
X139368628Y-96250000D02*
X154381370Y-96250000D01*
%TO.N,Net-(U1-RBIAS)*%
X158500000Y-88500000D02*
X158500000Y-85000000D01*
X160500000Y-83000000D02*
X158500000Y-85000000D01*
X157437500Y-88687500D02*
X158312500Y-88687500D01*
X158312500Y-88687500D02*
X158500000Y-88500000D01*
%TO.N,/RXV*%
X136000000Y-89725000D02*
X135000000Y-88725000D01*
X123445000Y-88725000D02*
X135000000Y-88725000D01*
X122295000Y-89875000D02*
X123445000Y-88725000D01*
X136000000Y-89750000D02*
X140190000Y-93940000D01*
X136000000Y-89750000D02*
X136000000Y-89725000D01*
%TO.N,/RXD[0]*%
X123445000Y-86185000D02*
X138435000Y-86185000D01*
X138435000Y-86185000D02*
X140500000Y-88250000D01*
X122295000Y-87335000D02*
X123445000Y-86185000D01*
%TO.N,/RXERR*%
X136085000Y-87335000D02*
X124835000Y-87335000D01*
X140000000Y-91250000D02*
X136085000Y-87335000D01*
X140650000Y-91250000D02*
X140000000Y-91250000D01*
%TO.N,/RXD[1]*%
X140650000Y-85500000D02*
X125540000Y-85500000D01*
X125540000Y-85500000D02*
X124835000Y-84795000D01*
%TO.N,Net-(J4-RD-)*%
X173812500Y-89687500D02*
X169500000Y-89687500D01*
X163500000Y-89687500D02*
X169500000Y-89687500D01*
X163500000Y-88500000D02*
X163500000Y-89687500D01*
X169500000Y-89687500D02*
X169500000Y-88500000D01*
X157437500Y-89687500D02*
X163500000Y-89687500D01*
%TO.N,Net-(J4-RD+)*%
X176700000Y-92910000D02*
X175500000Y-91710000D01*
X171000000Y-87000000D02*
X171900000Y-87900000D01*
X160500000Y-87000000D02*
X166500000Y-87000000D01*
X166500000Y-88500000D02*
X166500000Y-87000000D01*
X159000000Y-88687500D02*
X159000000Y-87500000D01*
X159500000Y-87000000D02*
X160500000Y-87000000D01*
X160500000Y-88500000D02*
X160500000Y-87000000D01*
X166500000Y-87000000D02*
X171000000Y-87000000D01*
X159000000Y-87500000D02*
X159500000Y-87000000D01*
X158500000Y-89187500D02*
X159000000Y-88687500D01*
X174677057Y-87900000D02*
X171900000Y-87900000D01*
X175500000Y-88722943D02*
X174677057Y-87900000D01*
X157437500Y-89187500D02*
X158500000Y-89187500D01*
X175500000Y-91710000D02*
X175500000Y-88722943D01*
%TO.N,Net-(J4-TD-)*%
X169500000Y-93000000D02*
X172980000Y-93000000D01*
X172980000Y-93000000D02*
X173000000Y-93000000D01*
X158187500Y-90687500D02*
X159000000Y-91500000D01*
X169500000Y-91500000D02*
X169500000Y-93000000D01*
X163500000Y-93000000D02*
X169500000Y-93000000D01*
X159500000Y-93000000D02*
X163500000Y-93000000D01*
X157437500Y-90687500D02*
X158187500Y-90687500D01*
X174160000Y-94180000D02*
X172980000Y-93000000D01*
X163500000Y-91500000D02*
X163500000Y-93000000D01*
X159000000Y-91500000D02*
X159000000Y-92500000D01*
X173000000Y-93000000D02*
X174000000Y-94000000D01*
X159000000Y-92500000D02*
X159500000Y-93000000D01*
%TO.N,Net-(J4-TD+)*%
X160500000Y-90687500D02*
X161000000Y-90187500D01*
X166500000Y-91500000D02*
X165187500Y-90187500D01*
X176540000Y-94540000D02*
X176540000Y-95270000D01*
X157437500Y-90187500D02*
X162000000Y-90187500D01*
X173802943Y-92980000D02*
X174980000Y-92980000D01*
X174980000Y-92980000D02*
X176540000Y-94540000D01*
X165000000Y-90187500D02*
X162000000Y-90187500D01*
X165187500Y-90187500D02*
X165000000Y-90187500D01*
X171030443Y-90187500D02*
X171421471Y-90578529D01*
X160500000Y-91500000D02*
X160500000Y-90687500D01*
X165000000Y-90187500D02*
X171030443Y-90187500D01*
X171421471Y-90578529D02*
X171421471Y-90598528D01*
X161000000Y-90187500D02*
X162000000Y-90187500D01*
X171421471Y-90598528D02*
X173802943Y-92980000D01*
%TD*%
%TA.AperFunction,Conductor*%
%TO.N,GND*%
G36*
X135296311Y-81157920D02*
G01*
X135303140Y-81159925D01*
X135361919Y-81197698D01*
X135390946Y-81261252D01*
X135381005Y-81330411D01*
X135337026Y-81382056D01*
X135332138Y-81385317D01*
X135302325Y-81399871D01*
X135180676Y-81440182D01*
X135180667Y-81440185D01*
X135180665Y-81440186D01*
X135180663Y-81440187D01*
X135081115Y-81501588D01*
X135031340Y-81532290D01*
X134907290Y-81656340D01*
X134890998Y-81682754D01*
X134827391Y-81785878D01*
X134815186Y-81805665D01*
X134815177Y-81805691D01*
X134802169Y-81844948D01*
X134802169Y-81844949D01*
X134762415Y-81964917D01*
X134760455Y-81967747D01*
X134755079Y-82020368D01*
X134746533Y-82054607D01*
X134740628Y-82069080D01*
X134697075Y-82123716D01*
X134693224Y-82126420D01*
X134692848Y-82126685D01*
X134641814Y-82147537D01*
X134639974Y-82147841D01*
X134619761Y-82149500D01*
X134524807Y-82149500D01*
X134489866Y-82144475D01*
X134474867Y-82140070D01*
X134416103Y-82102307D01*
X134412612Y-82098279D01*
X134386738Y-82049884D01*
X134379672Y-82024137D01*
X134376882Y-82021143D01*
X134371568Y-82008941D01*
X134333797Y-81907671D01*
X134333793Y-81907664D01*
X134263468Y-81813722D01*
X134247548Y-81792456D01*
X134247542Y-81792450D01*
X134132332Y-81706204D01*
X134132330Y-81706203D01*
X134132328Y-81706202D01*
X134082844Y-81687746D01*
X134047497Y-81661284D01*
X133945583Y-81650328D01*
X133940742Y-81649500D01*
X133937881Y-81649500D01*
X133937873Y-81649500D01*
X133937864Y-81649500D01*
X132142129Y-81649500D01*
X132142123Y-81649500D01*
X132140192Y-81649659D01*
X132138545Y-81649885D01*
X132082516Y-81655908D01*
X131997152Y-81687747D01*
X131947666Y-81706204D01*
X131832456Y-81792450D01*
X131832450Y-81792456D01*
X131746208Y-81907661D01*
X131746200Y-81907673D01*
X131703419Y-82022377D01*
X131686503Y-82053355D01*
X131678186Y-82064465D01*
X131622252Y-82106336D01*
X131552568Y-82111321D01*
X131548085Y-82110346D01*
X131486760Y-82076864D01*
X131379788Y-81969892D01*
X131379786Y-81969890D01*
X131207820Y-81844951D01*
X131104781Y-81792450D01*
X131035911Y-81757359D01*
X131030571Y-81753479D01*
X131006254Y-81743406D01*
X130999734Y-81742374D01*
X130938726Y-81722551D01*
X130825074Y-81685623D01*
X130820552Y-81683770D01*
X130811362Y-81681600D01*
X130806599Y-81681226D01*
X130649485Y-81656342D01*
X130646745Y-81655908D01*
X130606287Y-81649500D01*
X130606286Y-81649500D01*
X130393714Y-81649500D01*
X130393713Y-81649500D01*
X130350515Y-81656342D01*
X130350514Y-81656342D01*
X130183760Y-81682752D01*
X130183759Y-81682752D01*
X129981580Y-81748445D01*
X129792182Y-81844949D01*
X129792179Y-81844950D01*
X129792179Y-81844951D01*
X129716891Y-81899650D01*
X129620210Y-81969892D01*
X129469892Y-82120210D01*
X129344949Y-82292182D01*
X129248417Y-82481637D01*
X129247945Y-82482580D01*
X129246864Y-82486443D01*
X129237099Y-82516499D01*
X129237098Y-82516502D01*
X129182753Y-82683755D01*
X129182753Y-82683758D01*
X129152304Y-82875998D01*
X129152305Y-82875999D01*
X129150243Y-82889024D01*
X129149500Y-82893713D01*
X129149500Y-83106287D01*
X129154579Y-83138352D01*
X129154579Y-83138353D01*
X129170563Y-83239273D01*
X129171067Y-83274567D01*
X129169617Y-83285785D01*
X129141501Y-83349748D01*
X129083267Y-83388356D01*
X129013405Y-83389352D01*
X129013384Y-83389346D01*
X129010399Y-83388515D01*
X128955974Y-83356739D01*
X128741928Y-83142693D01*
X128741919Y-83142683D01*
X128681308Y-83082072D01*
X128618717Y-83019481D01*
X128618716Y-83019480D01*
X128618715Y-83019479D01*
X128618712Y-83019477D01*
X128552797Y-82981421D01*
X128539430Y-82969798D01*
X128516842Y-82960663D01*
X128481786Y-82940423D01*
X128443603Y-82930192D01*
X128329057Y-82899499D01*
X128329054Y-82899499D01*
X128161443Y-82899499D01*
X128161380Y-82899500D01*
X123678621Y-82899500D01*
X123678558Y-82899499D01*
X123676654Y-82899499D01*
X123669058Y-82899499D01*
X123510943Y-82899499D01*
X123434578Y-82919960D01*
X123434579Y-82919961D01*
X123358217Y-82940422D01*
X123358215Y-82940422D01*
X123358214Y-82940423D01*
X123358212Y-82940423D01*
X123358143Y-82940453D01*
X123357334Y-82940930D01*
X123221298Y-83019470D01*
X123221293Y-83019472D01*
X123221290Y-83019475D01*
X123221287Y-83019477D01*
X123221277Y-83019484D01*
X122845189Y-83395573D01*
X122816938Y-83416722D01*
X122793850Y-83429330D01*
X122734420Y-83444500D01*
X121397123Y-83444500D01*
X121395192Y-83444659D01*
X121393545Y-83444885D01*
X121337516Y-83450908D01*
X121218863Y-83495163D01*
X121202666Y-83501204D01*
X121202665Y-83501205D01*
X121087456Y-83587450D01*
X121087453Y-83587453D01*
X121087451Y-83587456D01*
X121001204Y-83702666D01*
X120950908Y-83837517D01*
X120944501Y-83897116D01*
X120944500Y-83897139D01*
X120944500Y-85692876D01*
X120944659Y-85694806D01*
X120944885Y-85696454D01*
X120950907Y-85752482D01*
X120973169Y-85812168D01*
X121001202Y-85887328D01*
X121001206Y-85887335D01*
X121012429Y-85902327D01*
X121087450Y-86002542D01*
X121087452Y-86002544D01*
X121087455Y-86002547D01*
X121202664Y-86088793D01*
X121202671Y-86088797D01*
X121317376Y-86131579D01*
X121348350Y-86148491D01*
X121359461Y-86156808D01*
X121401334Y-86212740D01*
X121406321Y-86282432D01*
X121406318Y-86282445D01*
X121405342Y-86286930D01*
X121371860Y-86348244D01*
X121264886Y-86455218D01*
X121139949Y-86627182D01*
X121043445Y-86816580D01*
X120977753Y-87018759D01*
X120968548Y-87076882D01*
X120948593Y-87202872D01*
X120944500Y-87228713D01*
X120944500Y-87441287D01*
X120947051Y-87457393D01*
X120951747Y-87487040D01*
X120951747Y-87487042D01*
X120972514Y-87618163D01*
X120977752Y-87651235D01*
X120977753Y-87651240D01*
X120977754Y-87651243D01*
X120982550Y-87666004D01*
X121021117Y-87784703D01*
X121043443Y-87853414D01*
X121120947Y-88005523D01*
X121139951Y-88042820D01*
X121264890Y-88214786D01*
X121415213Y-88365109D01*
X121587182Y-88490050D01*
X121587190Y-88490054D01*
X121587693Y-88490363D01*
X121589174Y-88491496D01*
X121591122Y-88492912D01*
X121591086Y-88492960D01*
X121608034Y-88505934D01*
X121618315Y-88515643D01*
X121653541Y-88575983D01*
X121650552Y-88645789D01*
X121614383Y-88699507D01*
X121607227Y-88705708D01*
X121590814Y-88717723D01*
X121587190Y-88719943D01*
X121415210Y-88844892D01*
X121264892Y-88995210D01*
X121139949Y-89167182D01*
X121043445Y-89356580D01*
X120977752Y-89558759D01*
X120944500Y-89768707D01*
X120944500Y-89981291D01*
X120972226Y-90156344D01*
X120977753Y-90191241D01*
X121014931Y-90305665D01*
X121043443Y-90393414D01*
X121135486Y-90574056D01*
X121139951Y-90582820D01*
X121264890Y-90754786D01*
X121415213Y-90905109D01*
X121587182Y-91030050D01*
X121587190Y-91030054D01*
X121587693Y-91030363D01*
X121589174Y-91031496D01*
X121591122Y-91032912D01*
X121591086Y-91032960D01*
X121608034Y-91045934D01*
X121618315Y-91055643D01*
X121653541Y-91115983D01*
X121650552Y-91185789D01*
X121614383Y-91239507D01*
X121607227Y-91245708D01*
X121590814Y-91257723D01*
X121587190Y-91259943D01*
X121415210Y-91384892D01*
X121264892Y-91535210D01*
X121139949Y-91707182D01*
X121043417Y-91896637D01*
X121042945Y-91897581D01*
X121041864Y-91901442D01*
X121034206Y-91925014D01*
X121034205Y-91925018D01*
X120977754Y-92098755D01*
X120977754Y-92098757D01*
X120977753Y-92098760D01*
X120950714Y-92269477D01*
X120950713Y-92269484D01*
X120944500Y-92308709D01*
X120944500Y-92521286D01*
X120947482Y-92540114D01*
X120947482Y-92540115D01*
X120977221Y-92727886D01*
X120977222Y-92727886D01*
X120977754Y-92731244D01*
X121028719Y-92888099D01*
X121043441Y-92933407D01*
X121043443Y-92933413D01*
X121043444Y-92933414D01*
X121139951Y-93122820D01*
X121264890Y-93294786D01*
X121264892Y-93294788D01*
X121415216Y-93445112D01*
X121587900Y-93570573D01*
X121589387Y-93571520D01*
X121590225Y-93572079D01*
X121590142Y-93572202D01*
X121591311Y-93573051D01*
X121591195Y-93573209D01*
X121608741Y-93586361D01*
X121618865Y-93595921D01*
X121654091Y-93656259D01*
X121651105Y-93726065D01*
X121614938Y-93779785D01*
X121607614Y-93786132D01*
X121589059Y-93799432D01*
X121587440Y-93800379D01*
X121533282Y-93839726D01*
X121533281Y-93839727D01*
X122038850Y-94345296D01*
X122072335Y-94406619D01*
X122067351Y-94476311D01*
X122025479Y-94532244D01*
X122013173Y-94540362D01*
X121987996Y-94554898D01*
X121987990Y-94554903D01*
X121894903Y-94647990D01*
X121894898Y-94647996D01*
X121880362Y-94673173D01*
X121829793Y-94721387D01*
X121761185Y-94734607D01*
X121696322Y-94708637D01*
X121685296Y-94698850D01*
X121179728Y-94193282D01*
X121179727Y-94193282D01*
X121140380Y-94247438D01*
X121043903Y-94436784D01*
X120978242Y-94638865D01*
X120976798Y-94647990D01*
X120945000Y-94848753D01*
X120945000Y-95061246D01*
X120970860Y-95224517D01*
X120976715Y-95261485D01*
X120976716Y-95261493D01*
X120978242Y-95271133D01*
X121037996Y-95455034D01*
X121043904Y-95473217D01*
X121113991Y-95610769D01*
X121140374Y-95662548D01*
X121140375Y-95662550D01*
X121178679Y-95715273D01*
X121179728Y-95716716D01*
X121685297Y-95211147D01*
X121746619Y-95177663D01*
X121816311Y-95182647D01*
X121872244Y-95224519D01*
X121880363Y-95236828D01*
X121894896Y-95262000D01*
X121894899Y-95262004D01*
X121894901Y-95262007D01*
X121987993Y-95355099D01*
X122013169Y-95369634D01*
X122061384Y-95420202D01*
X122074606Y-95488809D01*
X122048638Y-95553673D01*
X122038849Y-95564702D01*
X121533282Y-96070268D01*
X121533282Y-96070269D01*
X121533282Y-96070270D01*
X121541373Y-96086149D01*
X121580612Y-96106142D01*
X121609450Y-96126469D01*
X121618868Y-96135363D01*
X121654092Y-96195700D01*
X121651104Y-96265505D01*
X121614932Y-96319229D01*
X121607929Y-96325297D01*
X121590944Y-96336776D01*
X121591331Y-96337407D01*
X121587172Y-96339955D01*
X121415216Y-96464886D01*
X121264892Y-96615210D01*
X121210414Y-96690194D01*
X121151837Y-96770820D01*
X121139949Y-96787182D01*
X121043417Y-96976637D01*
X121042945Y-96977580D01*
X121041864Y-96981444D01*
X121027876Y-97024497D01*
X121027875Y-97024499D01*
X120977753Y-97178758D01*
X120944500Y-97388707D01*
X120944500Y-97388712D01*
X120944500Y-97388713D01*
X120944500Y-97601287D01*
X120946821Y-97615939D01*
X120948918Y-97629179D01*
X120948918Y-97629180D01*
X120959030Y-97693022D01*
X120973166Y-97782280D01*
X120976226Y-97801597D01*
X120976601Y-97806363D01*
X120978770Y-97815554D01*
X120980623Y-97820075D01*
X121042426Y-98010284D01*
X121043441Y-98013407D01*
X121043443Y-98013411D01*
X121043444Y-98013414D01*
X121139951Y-98202820D01*
X121264890Y-98374786D01*
X121264892Y-98374788D01*
X121415216Y-98525112D01*
X121587183Y-98650052D01*
X121587471Y-98650197D01*
X121776588Y-98746557D01*
X121978757Y-98812246D01*
X122188713Y-98845500D01*
X122188714Y-98845500D01*
X122401286Y-98845500D01*
X122401287Y-98845500D01*
X122611243Y-98812246D01*
X122813412Y-98746557D01*
X123002816Y-98650051D01*
X123026739Y-98632670D01*
X123032880Y-98628209D01*
X123068620Y-98602242D01*
X123174786Y-98525109D01*
X123174788Y-98525106D01*
X123174792Y-98525104D01*
X123174797Y-98525098D01*
X123174849Y-98525061D01*
X123175592Y-98524303D01*
X123324290Y-98375605D01*
X123325062Y-98374848D01*
X123325100Y-98374795D01*
X123325104Y-98374792D01*
X123325106Y-98374788D01*
X123325109Y-98374786D01*
X123450048Y-98202820D01*
X123455787Y-98194920D01*
X123455788Y-98194919D01*
X123458064Y-98191786D01*
X123468230Y-98179531D01*
X123475647Y-98171677D01*
X123535987Y-98136456D01*
X123605793Y-98139448D01*
X123659506Y-98175615D01*
X123665711Y-98182776D01*
X123677720Y-98199180D01*
X123679944Y-98202809D01*
X123679948Y-98202815D01*
X123679951Y-98202820D01*
X123804890Y-98374786D01*
X123804892Y-98374788D01*
X123955216Y-98525112D01*
X124127183Y-98650052D01*
X124127471Y-98650197D01*
X124316588Y-98746557D01*
X124518757Y-98812246D01*
X124728713Y-98845500D01*
X124728714Y-98845500D01*
X124941286Y-98845500D01*
X124941287Y-98845500D01*
X125151243Y-98812246D01*
X125176568Y-98804016D01*
X125211346Y-98797997D01*
X125228406Y-98797510D01*
X125293686Y-98813923D01*
X125305232Y-98820552D01*
X125331171Y-98840406D01*
X126221284Y-99730520D01*
X126358215Y-99809577D01*
X126510943Y-99850501D01*
X126510946Y-99850501D01*
X126676654Y-99850501D01*
X126678558Y-99850501D01*
X126678621Y-99850500D01*
X126764295Y-99850500D01*
X126799231Y-99855523D01*
X126814229Y-99859927D01*
X126872999Y-99897693D01*
X126877878Y-99903323D01*
X126878662Y-99904228D01*
X126879947Y-99905710D01*
X126903946Y-99947914D01*
X126914461Y-99979645D01*
X126915186Y-99981833D01*
X126915187Y-99981836D01*
X126938555Y-100019722D01*
X127007288Y-100131156D01*
X127131344Y-100255212D01*
X127280666Y-100347314D01*
X127447203Y-100402499D01*
X127549991Y-100413000D01*
X128950008Y-100412999D01*
X129052797Y-100402499D01*
X129219334Y-100347314D01*
X129368656Y-100255212D01*
X129492712Y-100131156D01*
X129560104Y-100021893D01*
X129582708Y-99994809D01*
X129593037Y-99985518D01*
X129656039Y-99955323D01*
X129725367Y-99963982D01*
X129728610Y-99965391D01*
X129772934Y-99997949D01*
X129773975Y-99999150D01*
X129774002Y-99999181D01*
X129785789Y-100015239D01*
X129788558Y-100019727D01*
X129788568Y-100019742D01*
X129849576Y-100118655D01*
X129855467Y-100128205D01*
X129857288Y-100131156D01*
X129981344Y-100255212D01*
X130130666Y-100347314D01*
X130297203Y-100402499D01*
X130399991Y-100413000D01*
X131800008Y-100412999D01*
X131902797Y-100402499D01*
X132069334Y-100347314D01*
X132218656Y-100255212D01*
X132342712Y-100131156D01*
X132434814Y-99981834D01*
X132434814Y-99981832D01*
X132435117Y-99981342D01*
X132447586Y-99964500D01*
X132457081Y-99953715D01*
X132516154Y-99916404D01*
X132586022Y-99916955D01*
X132643859Y-99954445D01*
X132652679Y-99964624D01*
X132664504Y-99980728D01*
X132665184Y-99981830D01*
X132665186Y-99981834D01*
X132688568Y-100019742D01*
X132755467Y-100128205D01*
X132757288Y-100131156D01*
X132881344Y-100255212D01*
X133030666Y-100347314D01*
X133197203Y-100402499D01*
X133299991Y-100413000D01*
X134700008Y-100412999D01*
X134802797Y-100402499D01*
X134969334Y-100347314D01*
X135118656Y-100255212D01*
X135242712Y-100131156D01*
X135260102Y-100102960D01*
X135282713Y-100075866D01*
X135293035Y-100066582D01*
X135356039Y-100036386D01*
X135425364Y-100045044D01*
X135428605Y-100046452D01*
X135472892Y-100078964D01*
X135473959Y-100080195D01*
X135485799Y-100096318D01*
X135491822Y-100106083D01*
X135500048Y-100119419D01*
X135505467Y-100128205D01*
X135507288Y-100131156D01*
X135631344Y-100255212D01*
X135780666Y-100347314D01*
X135947203Y-100402499D01*
X136049991Y-100413000D01*
X137450008Y-100412999D01*
X137552797Y-100402499D01*
X137719334Y-100347314D01*
X137868656Y-100255212D01*
X137992712Y-100131156D01*
X138084814Y-99981834D01*
X138085925Y-99978480D01*
X138101681Y-99946898D01*
X138103456Y-99944335D01*
X138109580Y-99935488D01*
X138163925Y-99891576D01*
X138233378Y-99884014D01*
X138241521Y-99885471D01*
X138288560Y-99904429D01*
X138370819Y-99959393D01*
X138370820Y-99959393D01*
X138370821Y-99959394D01*
X138370823Y-99959395D01*
X138370827Y-99959397D01*
X138485089Y-100006725D01*
X138516503Y-100019737D01*
X138637440Y-100043793D01*
X138663512Y-100048979D01*
X138666247Y-100049703D01*
X138671155Y-100050500D01*
X138828844Y-100050500D01*
X138832964Y-100050500D01*
X138840814Y-100048118D01*
X138983497Y-100019737D01*
X139114703Y-99965390D01*
X139129172Y-99959397D01*
X139129172Y-99959396D01*
X139129179Y-99959394D01*
X139260289Y-99871789D01*
X139371789Y-99760289D01*
X139459394Y-99629179D01*
X139519737Y-99483497D01*
X139550500Y-99328842D01*
X139550500Y-99171158D01*
X139550500Y-99171155D01*
X139550500Y-99170973D01*
X139550065Y-99168972D01*
X139520397Y-99019824D01*
X139519994Y-99017467D01*
X139519738Y-99016508D01*
X139519737Y-99016506D01*
X139519737Y-99016503D01*
X139519735Y-99016498D01*
X139459397Y-98870827D01*
X139459390Y-98870814D01*
X139371789Y-98739711D01*
X139371786Y-98739707D01*
X139371781Y-98739701D01*
X139260297Y-98628217D01*
X139260290Y-98628211D01*
X139260287Y-98628209D01*
X139129191Y-98540613D01*
X139129186Y-98540610D01*
X139129185Y-98540609D01*
X139129172Y-98540602D01*
X139129165Y-98540598D01*
X138983502Y-98480264D01*
X138983471Y-98480257D01*
X138828847Y-98449500D01*
X138828845Y-98449500D01*
X138828842Y-98449500D01*
X138671158Y-98449500D01*
X138671155Y-98449500D01*
X138671153Y-98449500D01*
X138516527Y-98480257D01*
X138516496Y-98480264D01*
X138370833Y-98540598D01*
X138370824Y-98540603D01*
X138370812Y-98540610D01*
X138292953Y-98592634D01*
X138261119Y-98607865D01*
X138247873Y-98612013D01*
X138178015Y-98613262D01*
X138118571Y-98576544D01*
X138118568Y-98576541D01*
X138113042Y-98570389D01*
X138087582Y-98526521D01*
X138087113Y-98525106D01*
X138084814Y-98518166D01*
X137992712Y-98368844D01*
X137868656Y-98244788D01*
X137719334Y-98152686D01*
X137561265Y-98100307D01*
X137558445Y-98099141D01*
X137552792Y-98097499D01*
X137450019Y-98087000D01*
X137450010Y-98087000D01*
X136049998Y-98087000D01*
X136049981Y-98087001D01*
X136035959Y-98088433D01*
X135947198Y-98097500D01*
X135947193Y-98097501D01*
X135947032Y-98097556D01*
X135780667Y-98152685D01*
X135780665Y-98152686D01*
X135780663Y-98152687D01*
X135699391Y-98202816D01*
X135631340Y-98244790D01*
X135507289Y-98368841D01*
X135489897Y-98397039D01*
X135467283Y-98424134D01*
X135456966Y-98433414D01*
X135393960Y-98463612D01*
X135324629Y-98454952D01*
X135321390Y-98453544D01*
X135277073Y-98420997D01*
X135276005Y-98419764D01*
X135264199Y-98403681D01*
X135242712Y-98368844D01*
X135118656Y-98244788D01*
X134969334Y-98152686D01*
X134811265Y-98100307D01*
X134808439Y-98099139D01*
X134802796Y-98097499D01*
X134700025Y-98087000D01*
X134700016Y-98087000D01*
X133429425Y-98087000D01*
X133394490Y-98081977D01*
X133383636Y-98078790D01*
X133324858Y-98041016D01*
X133295833Y-97977460D01*
X133305776Y-97908303D01*
X133308966Y-97901320D01*
X133334072Y-97865161D01*
X133462311Y-97736922D01*
X133490568Y-97715771D01*
X133513657Y-97703165D01*
X133573078Y-97688000D01*
X141261270Y-97688000D01*
X141296205Y-97693023D01*
X141310226Y-97697140D01*
X141369004Y-97734915D01*
X141397695Y-97796287D01*
X141399718Y-97808774D01*
X141400605Y-97841846D01*
X141399500Y-97852134D01*
X141399500Y-99647876D01*
X141399659Y-99649806D01*
X141399885Y-99651454D01*
X141405907Y-99707482D01*
X141432133Y-99777795D01*
X141456202Y-99842328D01*
X141456206Y-99842335D01*
X141482373Y-99877289D01*
X141542450Y-99957542D01*
X141542456Y-99957548D01*
X141574241Y-99981342D01*
X141657664Y-100043793D01*
X141657671Y-100043797D01*
X141707155Y-100062253D01*
X141742513Y-100088721D01*
X141799444Y-100094835D01*
X141799443Y-100094839D01*
X141799458Y-100094836D01*
X141852127Y-100100500D01*
X143647872Y-100100499D01*
X143707483Y-100094091D01*
X143842331Y-100043796D01*
X143957546Y-99957546D01*
X144043796Y-99842331D01*
X144094091Y-99707483D01*
X144100500Y-99647873D01*
X144100499Y-97852128D01*
X144100043Y-97847890D01*
X144099516Y-97842982D01*
X144100774Y-97807714D01*
X144103371Y-97793325D01*
X144134645Y-97730851D01*
X144192597Y-97695764D01*
X144199031Y-97693999D01*
X144204800Y-97692417D01*
X144237601Y-97688000D01*
X144519573Y-97688000D01*
X144554505Y-97693021D01*
X144579749Y-97700434D01*
X144632495Y-97731730D01*
X144632805Y-97732040D01*
X144653957Y-97760296D01*
X144661449Y-97774017D01*
X144665195Y-97791234D01*
X144668209Y-97795224D01*
X144669357Y-97810362D01*
X144676301Y-97842274D01*
X144675900Y-97847890D01*
X144672967Y-97857958D01*
X144673494Y-97864894D01*
X144662405Y-97894226D01*
X144661302Y-97898015D01*
X144660767Y-97899004D01*
X144660349Y-97899747D01*
X144660361Y-97899754D01*
X144653348Y-97912730D01*
X144611448Y-97980663D01*
X144565187Y-98055663D01*
X144565185Y-98055668D01*
X144551323Y-98097501D01*
X144547893Y-98107849D01*
X144547892Y-98107853D01*
X144520299Y-98191123D01*
X144511852Y-98204067D01*
X144510365Y-98218630D01*
X144509542Y-98224881D01*
X144509359Y-98228476D01*
X144499500Y-98324973D01*
X144499500Y-98324983D01*
X144499500Y-99675001D01*
X144499501Y-99675018D01*
X144510000Y-99777796D01*
X144510001Y-99777799D01*
X144518252Y-99802699D01*
X144565182Y-99944322D01*
X144565186Y-99944335D01*
X144575808Y-99961556D01*
X144581705Y-99971116D01*
X144657288Y-100093656D01*
X144781344Y-100217712D01*
X144930666Y-100309814D01*
X145097203Y-100364999D01*
X145199991Y-100375500D01*
X146100008Y-100375499D01*
X146100058Y-100375499D01*
X146100225Y-100375489D01*
X146101331Y-100375363D01*
X146146459Y-100370753D01*
X146156303Y-100369748D01*
X146156303Y-100369747D01*
X146202797Y-100364999D01*
X146369334Y-100309814D01*
X146518656Y-100217712D01*
X146580139Y-100156227D01*
X146608390Y-100135079D01*
X146622110Y-100127587D01*
X146690378Y-100112738D01*
X146697706Y-100113262D01*
X146757752Y-100133844D01*
X146792424Y-100157011D01*
X146870814Y-100209390D01*
X146870827Y-100209397D01*
X146951258Y-100242712D01*
X147016503Y-100269737D01*
X147016505Y-100269737D01*
X147016510Y-100269739D01*
X147131995Y-100292710D01*
X147163513Y-100298979D01*
X147166247Y-100299703D01*
X147171155Y-100300500D01*
X147328844Y-100300500D01*
X147332964Y-100300500D01*
X147340814Y-100298118D01*
X147483497Y-100269737D01*
X147596166Y-100223067D01*
X147622633Y-100212105D01*
X147625396Y-100211141D01*
X147626875Y-100210458D01*
X147631490Y-100208436D01*
X147640790Y-100204584D01*
X147649674Y-100195699D01*
X147675922Y-100178161D01*
X147707751Y-100162933D01*
X147722677Y-100158259D01*
X147792518Y-100157011D01*
X147795825Y-100157917D01*
X147799601Y-100158953D01*
X147854489Y-100190857D01*
X147881344Y-100217712D01*
X148030666Y-100309814D01*
X148197203Y-100364999D01*
X148299991Y-100375500D01*
X149200008Y-100375499D01*
X149200058Y-100375499D01*
X149200225Y-100375489D01*
X149201331Y-100375363D01*
X149246459Y-100370753D01*
X149256303Y-100369748D01*
X149256303Y-100369747D01*
X149302797Y-100364999D01*
X149469334Y-100309814D01*
X149618656Y-100217712D01*
X149742712Y-100093656D01*
X149808936Y-99986286D01*
X149831548Y-99959193D01*
X149841870Y-99949908D01*
X149904879Y-99919714D01*
X149974189Y-99928369D01*
X149977424Y-99929774D01*
X150021760Y-99962330D01*
X150022827Y-99963562D01*
X150034632Y-99979645D01*
X150120181Y-100118341D01*
X150120184Y-100118345D01*
X150244154Y-100242315D01*
X150393375Y-100334356D01*
X150393380Y-100334358D01*
X150559799Y-100389504D01*
X150559800Y-100389504D01*
X150559802Y-100389505D01*
X150559809Y-100389506D01*
X150662519Y-100399999D01*
X150874999Y-100399999D01*
X151375000Y-100399999D01*
X151587460Y-100399999D01*
X151587472Y-100399999D01*
X151587486Y-100399998D01*
X151690197Y-100389505D01*
X151856619Y-100334358D01*
X151856624Y-100334356D01*
X152005845Y-100242315D01*
X152129815Y-100118345D01*
X152221856Y-99969124D01*
X152221858Y-99969119D01*
X152277005Y-99802697D01*
X152277006Y-99802690D01*
X152287499Y-99699986D01*
X152287500Y-99699973D01*
X152287500Y-99250000D01*
X151375000Y-99250000D01*
X151375000Y-100399999D01*
X150874999Y-100399999D01*
X150875000Y-100399998D01*
X150875000Y-98750000D01*
X151375000Y-98750000D01*
X152287499Y-98750000D01*
X152287499Y-98300028D01*
X152287498Y-98300013D01*
X152287497Y-98300007D01*
X152278374Y-98210704D01*
X152277005Y-98197302D01*
X152221858Y-98030880D01*
X152221856Y-98030875D01*
X152129815Y-97881654D01*
X152005845Y-97757684D01*
X151856624Y-97665643D01*
X151856619Y-97665641D01*
X151855234Y-97665182D01*
X151690199Y-97610494D01*
X151690194Y-97610493D01*
X151587491Y-97600000D01*
X151587486Y-97600000D01*
X151375000Y-97600000D01*
X151375000Y-98750000D01*
X150875000Y-98750000D01*
X150875000Y-97600000D01*
X150662537Y-97600000D01*
X150662529Y-97600000D01*
X150662519Y-97600000D01*
X150662506Y-97600001D01*
X150559804Y-97610493D01*
X150559802Y-97610494D01*
X150393387Y-97665638D01*
X150393379Y-97665641D01*
X150393377Y-97665642D01*
X150393375Y-97665643D01*
X150325873Y-97707279D01*
X150244152Y-97757685D01*
X150120184Y-97881653D01*
X150120181Y-97881657D01*
X150038729Y-98013711D01*
X150016116Y-98040806D01*
X150005800Y-98050085D01*
X149942793Y-98080283D01*
X149873487Y-98071633D01*
X149870249Y-98070227D01*
X149825937Y-98037704D01*
X149824866Y-98036467D01*
X149813035Y-98020358D01*
X149742712Y-97906344D01*
X149656233Y-97819865D01*
X149635081Y-97791609D01*
X149627589Y-97777888D01*
X149612738Y-97709616D01*
X149612877Y-97707684D01*
X149613262Y-97702289D01*
X149633844Y-97642246D01*
X149636752Y-97637894D01*
X149709394Y-97529179D01*
X149769737Y-97383497D01*
X149800500Y-97228842D01*
X149800500Y-97071158D01*
X149800500Y-97071155D01*
X149800500Y-97070971D01*
X149800069Y-97068988D01*
X149789564Y-97016176D01*
X149787675Y-96980933D01*
X149788912Y-96967110D01*
X149814493Y-96902091D01*
X149871161Y-96861227D01*
X149881558Y-96857559D01*
X149922801Y-96850500D01*
X153221411Y-96850500D01*
X153256345Y-96855523D01*
X153269413Y-96859360D01*
X153328191Y-96897134D01*
X153357217Y-96960689D01*
X153350264Y-97022720D01*
X153347309Y-97030429D01*
X153334627Y-97054936D01*
X153290605Y-97120819D01*
X153290596Y-97120838D01*
X153230264Y-97266496D01*
X153230257Y-97266527D01*
X153199500Y-97421150D01*
X153199500Y-97578850D01*
X153230256Y-97733475D01*
X153230261Y-97733492D01*
X153230265Y-97733503D01*
X153241648Y-97760985D01*
X153250375Y-97795176D01*
X153252746Y-97817222D01*
X153245259Y-97874818D01*
X153243605Y-97879138D01*
X153233342Y-97899897D01*
X153152689Y-98030656D01*
X153152685Y-98030666D01*
X153144403Y-98055662D01*
X153144402Y-98055664D01*
X153107798Y-98166123D01*
X153099352Y-98179066D01*
X153097865Y-98193630D01*
X153097042Y-98199881D01*
X153096859Y-98203476D01*
X153087000Y-98299973D01*
X153087000Y-98299981D01*
X153087000Y-98299983D01*
X153087000Y-99700001D01*
X153087001Y-99700018D01*
X153097500Y-99802796D01*
X153097501Y-99802799D01*
X153110602Y-99842335D01*
X153152682Y-99969322D01*
X153152686Y-99969335D01*
X153153784Y-99971115D01*
X153160397Y-99981836D01*
X153244788Y-100118656D01*
X153368844Y-100242712D01*
X153518166Y-100334814D01*
X153684703Y-100389999D01*
X153787491Y-100400500D01*
X154712508Y-100400499D01*
X154712558Y-100400499D01*
X154712725Y-100400489D01*
X154713831Y-100400363D01*
X154758959Y-100395753D01*
X154768803Y-100394748D01*
X154768803Y-100394747D01*
X154815297Y-100389999D01*
X154981834Y-100334814D01*
X155131156Y-100242712D01*
X155243467Y-100130400D01*
X155271714Y-100109255D01*
X155285438Y-100101761D01*
X155353696Y-100086910D01*
X155355506Y-100087039D01*
X155413703Y-100106405D01*
X155420221Y-100110594D01*
X155440856Y-100127224D01*
X155531344Y-100217712D01*
X155680666Y-100309814D01*
X155847203Y-100364999D01*
X155949991Y-100375500D01*
X156850008Y-100375499D01*
X156850058Y-100375499D01*
X156850225Y-100375489D01*
X156851331Y-100375363D01*
X156896459Y-100370753D01*
X156906303Y-100369748D01*
X156906303Y-100369747D01*
X156952797Y-100364999D01*
X157119334Y-100309814D01*
X157268656Y-100217712D01*
X157392712Y-100093656D01*
X157484814Y-99944334D01*
X157539999Y-99777797D01*
X157550500Y-99675009D01*
X157550499Y-98324992D01*
X157550497Y-98324973D01*
X158349500Y-98324973D01*
X158349500Y-98324983D01*
X158349500Y-99675001D01*
X158349501Y-99675018D01*
X158360000Y-99777796D01*
X158360001Y-99777799D01*
X158368252Y-99802699D01*
X158415182Y-99944322D01*
X158415186Y-99944335D01*
X158425808Y-99961556D01*
X158431705Y-99971116D01*
X158507288Y-100093656D01*
X158631344Y-100217712D01*
X158780666Y-100309814D01*
X158947203Y-100364999D01*
X159049991Y-100375500D01*
X159950008Y-100375499D01*
X159950058Y-100375499D01*
X159950225Y-100375489D01*
X159951331Y-100375363D01*
X159996459Y-100370753D01*
X160006303Y-100369748D01*
X160006303Y-100369747D01*
X160052797Y-100364999D01*
X160219334Y-100309814D01*
X160368656Y-100217712D01*
X160481057Y-100105310D01*
X160509299Y-100084168D01*
X160521486Y-100077514D01*
X160589756Y-100062664D01*
X160655213Y-100087076D01*
X160656162Y-100087786D01*
X160662742Y-100092712D01*
X160662831Y-100092778D01*
X160694064Y-100126951D01*
X160699076Y-100135077D01*
X160718066Y-100165866D01*
X160719787Y-100168655D01*
X160719788Y-100168656D01*
X160843844Y-100292712D01*
X160993166Y-100384814D01*
X161159703Y-100439999D01*
X161262491Y-100450500D01*
X162087508Y-100450499D01*
X162087558Y-100450499D01*
X162087725Y-100450489D01*
X162088831Y-100450363D01*
X162133959Y-100445753D01*
X162143803Y-100444748D01*
X162143803Y-100444747D01*
X162190297Y-100439999D01*
X162356834Y-100384814D01*
X162506156Y-100292712D01*
X162630212Y-100168656D01*
X162722314Y-100019334D01*
X162777499Y-99852797D01*
X162788000Y-99750009D01*
X162787999Y-98249992D01*
X162787467Y-98244788D01*
X162785159Y-98222195D01*
X162777500Y-98147211D01*
X162777499Y-98147209D01*
X162777499Y-98147203D01*
X162777498Y-98147200D01*
X162757550Y-98087001D01*
X162722314Y-97980666D01*
X162721608Y-97979522D01*
X162721602Y-97979513D01*
X162721592Y-97979495D01*
X162699511Y-97943695D01*
X162685449Y-97911335D01*
X162681322Y-97896250D01*
X162682613Y-97826399D01*
X162683159Y-97824660D01*
X162715419Y-97772513D01*
X162720999Y-97767136D01*
X162741941Y-97750890D01*
X162755846Y-97742314D01*
X162879815Y-97618345D01*
X162971856Y-97469124D01*
X162971858Y-97469119D01*
X163027005Y-97302697D01*
X163027006Y-97302690D01*
X163037499Y-97199986D01*
X163037500Y-97199973D01*
X163037500Y-96750000D01*
X160712501Y-96750000D01*
X160712501Y-97199995D01*
X160722993Y-97302694D01*
X160722993Y-97302695D01*
X160722994Y-97302697D01*
X160731659Y-97328846D01*
X160778138Y-97469111D01*
X160778142Y-97469121D01*
X160778147Y-97469131D01*
X160833233Y-97558439D01*
X160836840Y-97571622D01*
X160847298Y-97590809D01*
X160851424Y-97605888D01*
X160851094Y-97623712D01*
X160851674Y-97625831D01*
X160851016Y-97627926D01*
X160850132Y-97675743D01*
X160847693Y-97683515D01*
X160817063Y-97734068D01*
X160719789Y-97831341D01*
X160696232Y-97869532D01*
X160673621Y-97896624D01*
X160663303Y-97905905D01*
X160600296Y-97936103D01*
X160546209Y-97929347D01*
X160538741Y-97929474D01*
X160536595Y-97928146D01*
X160530966Y-97927443D01*
X160522230Y-97923647D01*
X160483970Y-97897602D01*
X160368656Y-97782288D01*
X160368652Y-97782285D01*
X160296335Y-97737679D01*
X160269240Y-97715066D01*
X160258788Y-97703446D01*
X160228592Y-97640452D01*
X160227524Y-97633891D01*
X160235350Y-97566513D01*
X160269737Y-97483497D01*
X160300500Y-97328842D01*
X160300500Y-97171158D01*
X160300500Y-97171155D01*
X160300500Y-97170971D01*
X160300064Y-97168966D01*
X160290486Y-97120814D01*
X160280177Y-97068988D01*
X160269737Y-97016503D01*
X160265323Y-97005846D01*
X160262359Y-96998690D01*
X160220323Y-96897206D01*
X160209397Y-96870827D01*
X160209390Y-96870814D01*
X160121789Y-96739711D01*
X160121786Y-96739707D01*
X160121781Y-96739701D01*
X160010297Y-96628217D01*
X160010291Y-96628212D01*
X160010290Y-96628211D01*
X159879191Y-96540613D01*
X159879190Y-96540612D01*
X159879185Y-96540609D01*
X159879172Y-96540602D01*
X159879165Y-96540598D01*
X159733502Y-96480264D01*
X159733471Y-96480257D01*
X159578847Y-96449500D01*
X159578845Y-96449500D01*
X159578842Y-96449500D01*
X159421158Y-96449500D01*
X159421155Y-96449500D01*
X159421153Y-96449500D01*
X159266527Y-96480257D01*
X159266496Y-96480264D01*
X159120833Y-96540598D01*
X159120824Y-96540603D01*
X159120807Y-96540613D01*
X158989708Y-96628211D01*
X158989707Y-96628212D01*
X158989701Y-96628217D01*
X158878217Y-96739701D01*
X158878212Y-96739707D01*
X158878211Y-96739708D01*
X158790613Y-96870807D01*
X158790603Y-96870824D01*
X158790598Y-96870833D01*
X158730264Y-97016496D01*
X158730257Y-97016527D01*
X158699500Y-97171150D01*
X158699500Y-97171153D01*
X158699500Y-97328846D01*
X158699500Y-97328848D01*
X158699499Y-97328848D01*
X158730257Y-97483471D01*
X158730264Y-97483502D01*
X158761478Y-97558860D01*
X158770206Y-97593055D01*
X158771877Y-97608595D01*
X158759473Y-97677355D01*
X158759471Y-97677359D01*
X158756497Y-97683300D01*
X158710712Y-97733331D01*
X158631354Y-97782280D01*
X158631343Y-97782287D01*
X158507288Y-97906343D01*
X158496615Y-97923647D01*
X158415187Y-98055663D01*
X158415187Y-98055664D01*
X158415178Y-98055685D01*
X158401323Y-98097500D01*
X158401323Y-98097501D01*
X158400780Y-98099141D01*
X158370299Y-98191123D01*
X158361852Y-98204067D01*
X158360365Y-98218630D01*
X158359542Y-98224881D01*
X158359359Y-98228476D01*
X158349500Y-98324973D01*
X157550497Y-98324973D01*
X157547947Y-98300013D01*
X157547946Y-98300007D01*
X157540000Y-98222211D01*
X157539999Y-98222209D01*
X157539999Y-98222203D01*
X157539998Y-98222200D01*
X157484814Y-98055666D01*
X157392712Y-97906344D01*
X157268656Y-97782288D01*
X157147705Y-97707685D01*
X157147705Y-97707684D01*
X157119338Y-97690187D01*
X157119313Y-97690178D01*
X157077653Y-97676374D01*
X157077652Y-97676374D01*
X156961265Y-97637807D01*
X156958445Y-97636641D01*
X156952792Y-97634999D01*
X156850019Y-97624500D01*
X156850010Y-97624500D01*
X155949998Y-97624500D01*
X155949980Y-97624501D01*
X155949972Y-97624501D01*
X155949953Y-97624503D01*
X155847197Y-97635000D01*
X155847193Y-97635001D01*
X155847032Y-97635056D01*
X155680667Y-97690185D01*
X155680665Y-97690186D01*
X155680663Y-97690187D01*
X155610451Y-97733494D01*
X155531338Y-97782291D01*
X155444035Y-97869595D01*
X155415777Y-97890748D01*
X155402059Y-97898238D01*
X155333801Y-97913089D01*
X155331995Y-97912960D01*
X155273794Y-97893592D01*
X155267279Y-97889405D01*
X155246643Y-97872775D01*
X155131155Y-97757287D01*
X155022364Y-97690185D01*
X155022363Y-97690184D01*
X154981833Y-97665185D01*
X154981823Y-97665182D01*
X154938077Y-97650686D01*
X154938076Y-97650686D01*
X154916393Y-97643500D01*
X154884818Y-97627747D01*
X154882051Y-97625831D01*
X154867761Y-97615937D01*
X154827836Y-97570229D01*
X154824598Y-97563866D01*
X154815341Y-97539730D01*
X154811344Y-97524814D01*
X154809506Y-97516928D01*
X154808164Y-97510180D01*
X154808165Y-97510180D01*
X154802880Y-97483608D01*
X154800500Y-97459428D01*
X154800500Y-97420973D01*
X154800065Y-97418972D01*
X154794046Y-97388713D01*
X154794046Y-97388712D01*
X154777239Y-97304220D01*
X154769737Y-97266503D01*
X154754138Y-97228844D01*
X154754137Y-97228842D01*
X154709402Y-97120840D01*
X154709397Y-97120827D01*
X154709390Y-97120814D01*
X154621789Y-96989711D01*
X154621786Y-96989707D01*
X154620807Y-96988324D01*
X154620888Y-96988266D01*
X154612354Y-96975002D01*
X154603499Y-96958786D01*
X154588649Y-96890515D01*
X154613064Y-96825055D01*
X154618167Y-96818238D01*
X154655429Y-96785169D01*
X154680282Y-96770821D01*
X154750086Y-96730520D01*
X154861890Y-96618716D01*
X154861890Y-96618715D01*
X154879326Y-96601279D01*
X154879330Y-96601272D01*
X157230520Y-94250086D01*
X157309577Y-94113154D01*
X157350501Y-93960427D01*
X157350501Y-93802312D01*
X157350501Y-93794717D01*
X157350501Y-93793033D01*
X157350500Y-93792959D01*
X157350500Y-92459219D01*
X157352882Y-92435030D01*
X157358067Y-92408966D01*
X157359908Y-92401074D01*
X157361003Y-92396984D01*
X157361009Y-92396972D01*
X157375500Y-92286901D01*
X157375499Y-91954824D01*
X157377063Y-91949495D01*
X157375968Y-91944050D01*
X157380522Y-91919890D01*
X157381547Y-91916401D01*
X157384925Y-91904894D01*
X157394565Y-91889889D01*
X157395183Y-91887786D01*
X157396837Y-91886352D01*
X157422670Y-91846143D01*
X157424039Y-91844956D01*
X157478920Y-91817475D01*
X157483259Y-91816531D01*
X157486482Y-91815831D01*
X157512831Y-91812999D01*
X157724827Y-91812999D01*
X157759763Y-91818022D01*
X157774761Y-91822426D01*
X157786904Y-91830227D01*
X157800943Y-91833512D01*
X157815675Y-91848712D01*
X157833512Y-91860171D01*
X157834699Y-91861540D01*
X157841744Y-91875606D01*
X157849571Y-91883682D01*
X157852112Y-91896308D01*
X157862175Y-91916401D01*
X157863820Y-91923959D01*
X157866657Y-91950330D01*
X157866657Y-92878747D01*
X157866656Y-92878821D01*
X157866656Y-93004117D01*
X157860757Y-93024203D01*
X157907582Y-93198949D01*
X157915737Y-93213073D01*
X157915741Y-93213080D01*
X157925808Y-93230515D01*
X157925809Y-93230519D01*
X157925811Y-93230519D01*
X157986633Y-93335868D01*
X157986634Y-93335869D01*
X157986639Y-93335875D01*
X157986645Y-93335882D01*
X158107471Y-93456708D01*
X158107515Y-93456750D01*
X159075573Y-94424809D01*
X159096723Y-94453061D01*
X159109331Y-94476150D01*
X159124500Y-94535579D01*
X159124500Y-94800007D01*
X159124502Y-94800031D01*
X159127545Y-94829815D01*
X159135000Y-94902796D01*
X159135001Y-94902799D01*
X159187506Y-95061246D01*
X159190186Y-95069334D01*
X159221551Y-95120185D01*
X159277657Y-95211149D01*
X159282288Y-95218656D01*
X159406344Y-95342712D01*
X159555666Y-95434814D01*
X159722203Y-95489999D01*
X159824991Y-95500500D01*
X160598660Y-95500499D01*
X160633588Y-95505519D01*
X160646907Y-95509430D01*
X160705684Y-95547201D01*
X160734712Y-95610756D01*
X160734715Y-95610773D01*
X160735688Y-95617545D01*
X160730656Y-95674179D01*
X160722993Y-95697304D01*
X160712500Y-95800007D01*
X160712500Y-95800010D01*
X160712500Y-95800013D01*
X160712500Y-96250000D01*
X163037499Y-96250000D01*
X163037499Y-95800028D01*
X163037498Y-95800013D01*
X163027005Y-95697301D01*
X163021412Y-95680421D01*
X163015193Y-95645685D01*
X163014716Y-95631811D01*
X163032085Y-95564137D01*
X163083285Y-95516594D01*
X163089410Y-95513538D01*
X163144763Y-95500499D01*
X163723132Y-95500499D01*
X163758064Y-95505520D01*
X163771383Y-95509431D01*
X163830161Y-95547205D01*
X163859187Y-95610760D01*
X163859188Y-95610769D01*
X163860161Y-95617539D01*
X163855128Y-95674183D01*
X163847500Y-95697202D01*
X163847499Y-95697204D01*
X163847499Y-95697205D01*
X163837000Y-95799973D01*
X163837000Y-95799981D01*
X163837000Y-95799983D01*
X163837000Y-97200001D01*
X163837001Y-97200018D01*
X163847500Y-97302796D01*
X163847501Y-97302799D01*
X163876472Y-97390226D01*
X163902616Y-97469124D01*
X163902686Y-97469333D01*
X163902689Y-97469340D01*
X163994549Y-97618270D01*
X163994786Y-97618654D01*
X163994791Y-97618660D01*
X164025986Y-97649854D01*
X164047140Y-97678113D01*
X164054631Y-97691833D01*
X164069482Y-97760089D01*
X164069081Y-97765704D01*
X164053424Y-97817748D01*
X164053016Y-97818472D01*
X164041819Y-97835053D01*
X164040841Y-97836274D01*
X164037757Y-97842743D01*
X164031969Y-97852128D01*
X164031968Y-97852129D01*
X163952688Y-97980661D01*
X163952678Y-97980685D01*
X163936117Y-98030667D01*
X163936116Y-98030670D01*
X163907798Y-98116124D01*
X163899352Y-98129067D01*
X163897865Y-98143630D01*
X163897042Y-98149881D01*
X163896859Y-98153476D01*
X163887000Y-98249973D01*
X163887000Y-98249983D01*
X163887000Y-99750001D01*
X163887001Y-99750018D01*
X163892393Y-99802799D01*
X163897500Y-99852796D01*
X163897503Y-99852804D01*
X163897570Y-99853007D01*
X163952681Y-100019322D01*
X163952688Y-100019338D01*
X163952925Y-100019722D01*
X163952930Y-100019740D01*
X163952935Y-100019738D01*
X164044788Y-100168656D01*
X164168844Y-100292712D01*
X164318166Y-100384814D01*
X164484703Y-100439999D01*
X164587491Y-100450500D01*
X165412508Y-100450499D01*
X165412558Y-100450499D01*
X165412725Y-100450489D01*
X165413831Y-100450363D01*
X165458959Y-100445753D01*
X165468803Y-100444748D01*
X165468803Y-100444747D01*
X165515297Y-100439999D01*
X165681834Y-100384814D01*
X165831156Y-100292712D01*
X165955212Y-100168656D01*
X165955215Y-100168650D01*
X165959693Y-100162989D01*
X165960645Y-100163742D01*
X165974168Y-100147485D01*
X165988885Y-100134248D01*
X166044330Y-100105528D01*
X166049947Y-100104251D01*
X166052896Y-100103582D01*
X166080369Y-100100500D01*
X166157439Y-100100500D01*
X166192374Y-100105523D01*
X166217617Y-100112935D01*
X166270363Y-100144231D01*
X166368844Y-100242712D01*
X166518166Y-100334814D01*
X166684703Y-100389999D01*
X166787491Y-100400500D01*
X167712508Y-100400499D01*
X167712558Y-100400499D01*
X167712725Y-100400489D01*
X167713831Y-100400363D01*
X167758959Y-100395753D01*
X167768803Y-100394748D01*
X167768803Y-100394747D01*
X167815297Y-100389999D01*
X167981834Y-100334814D01*
X168131156Y-100242712D01*
X168255212Y-100118656D01*
X168347314Y-99969334D01*
X168402499Y-99802797D01*
X168413000Y-99700009D01*
X168413000Y-99699995D01*
X169212501Y-99699995D01*
X169222993Y-99802694D01*
X169222993Y-99802695D01*
X169222994Y-99802697D01*
X169238835Y-99850501D01*
X169276299Y-99963562D01*
X169278141Y-99969119D01*
X169278143Y-99969124D01*
X169370184Y-100118345D01*
X169494154Y-100242315D01*
X169643375Y-100334356D01*
X169643380Y-100334358D01*
X169809799Y-100389504D01*
X169809800Y-100389504D01*
X169809802Y-100389505D01*
X169809809Y-100389506D01*
X169912519Y-100399999D01*
X170124999Y-100399999D01*
X170125000Y-100399998D01*
X170125000Y-99250000D01*
X169212501Y-99250000D01*
X169212501Y-99699995D01*
X168413000Y-99699995D01*
X168412999Y-98870827D01*
X168412999Y-98300007D01*
X169212500Y-98300007D01*
X169212500Y-98300010D01*
X169212500Y-98300013D01*
X169212500Y-98750000D01*
X170125000Y-98750000D01*
X170125000Y-97564191D01*
X170130023Y-97529257D01*
X170137736Y-97502988D01*
X170143068Y-97492795D01*
X170142937Y-97492749D01*
X170150000Y-97472726D01*
X170150000Y-96750000D01*
X169237501Y-96750000D01*
X169237501Y-97199995D01*
X169247993Y-97302694D01*
X169247993Y-97302695D01*
X169247994Y-97302697D01*
X169256659Y-97328846D01*
X169299929Y-97459428D01*
X169303141Y-97469119D01*
X169303143Y-97469124D01*
X169393700Y-97615939D01*
X169395185Y-97618346D01*
X169414049Y-97637210D01*
X169435201Y-97665466D01*
X169442693Y-97679187D01*
X169457545Y-97747447D01*
X169457416Y-97749253D01*
X169438050Y-97807452D01*
X169433868Y-97813960D01*
X169417231Y-97834606D01*
X169370183Y-97881654D01*
X169349192Y-97915686D01*
X169278270Y-98030670D01*
X169278141Y-98030879D01*
X169278138Y-98030888D01*
X169222994Y-98197299D01*
X169222993Y-98197304D01*
X169212500Y-98300007D01*
X168412999Y-98300007D01*
X168412999Y-98299998D01*
X168412998Y-98299981D01*
X168402499Y-98197203D01*
X168402498Y-98197200D01*
X168385931Y-98147204D01*
X168347314Y-98030666D01*
X168255212Y-97881344D01*
X168236656Y-97862788D01*
X168215504Y-97834532D01*
X168208012Y-97820811D01*
X168193160Y-97752551D01*
X168193279Y-97750887D01*
X168193289Y-97750742D01*
X168212655Y-97692547D01*
X168216848Y-97686023D01*
X168233472Y-97665395D01*
X168249050Y-97649818D01*
X168280212Y-97618656D01*
X168372314Y-97469334D01*
X168427499Y-97302797D01*
X168438000Y-97200009D01*
X168437999Y-95799992D01*
X168427499Y-95697203D01*
X168414135Y-95656876D01*
X168407914Y-95622136D01*
X168407476Y-95609400D01*
X168424845Y-95541725D01*
X168476045Y-95494182D01*
X168540247Y-95481455D01*
X168549790Y-95482138D01*
X168579937Y-95488113D01*
X168697302Y-95527005D01*
X168697309Y-95527006D01*
X168800019Y-95537499D01*
X169111400Y-95537499D01*
X169146329Y-95542520D01*
X169159647Y-95546431D01*
X169218425Y-95584203D01*
X169247451Y-95647758D01*
X169247453Y-95647768D01*
X169248624Y-95655916D01*
X169246580Y-95701992D01*
X169243450Y-95715273D01*
X169245045Y-95720886D01*
X169244408Y-95732396D01*
X169237500Y-95800005D01*
X169237500Y-95800010D01*
X169237500Y-95800013D01*
X169237500Y-96250000D01*
X170258170Y-96250000D01*
X170293106Y-96255023D01*
X170308104Y-96259427D01*
X170366855Y-96297172D01*
X170368042Y-96298541D01*
X170395518Y-96353402D01*
X170397163Y-96360960D01*
X170400000Y-96387331D01*
X170400000Y-96500000D01*
X170508170Y-96500000D01*
X170543106Y-96505023D01*
X170558104Y-96509427D01*
X170616855Y-96547172D01*
X170618042Y-96548541D01*
X170645518Y-96603402D01*
X170647163Y-96610960D01*
X170650000Y-96637331D01*
X170650000Y-97935808D01*
X170644976Y-97970747D01*
X170637263Y-97997012D01*
X170631933Y-98007201D01*
X170632064Y-98007248D01*
X170625000Y-98027271D01*
X170625000Y-100037893D01*
X170605315Y-100104932D01*
X170594714Y-100119094D01*
X170594435Y-100119415D01*
X170594430Y-100119423D01*
X170534664Y-100250289D01*
X170514976Y-100317337D01*
X170507441Y-100369747D01*
X170497341Y-100439999D01*
X170494500Y-100459756D01*
X170494500Y-100723100D01*
X170474815Y-100790139D01*
X170422011Y-100835894D01*
X170370500Y-100847100D01*
X120294730Y-100847100D01*
X120259789Y-100842075D01*
X120244790Y-100837670D01*
X120186044Y-100799927D01*
X120184857Y-100798558D01*
X120157377Y-100743683D01*
X120155732Y-100736121D01*
X120152900Y-100709768D01*
X120152900Y-81294729D01*
X120157923Y-81259793D01*
X120158865Y-81256587D01*
X120162327Y-81244794D01*
X120200072Y-81186044D01*
X120201441Y-81184857D01*
X120256320Y-81157377D01*
X120263879Y-81155733D01*
X120290232Y-81152900D01*
X135261383Y-81152900D01*
X135296311Y-81157920D01*
G37*
%TD.AperFunction*%
%TA.AperFunction,Conductor*%
G36*
X133735633Y-91505521D02*
G01*
X133760877Y-91512934D01*
X133813623Y-91544230D01*
X137015656Y-94746264D01*
X137036806Y-94774517D01*
X137044299Y-94788239D01*
X137059153Y-94856507D01*
X137059024Y-94858312D01*
X137039655Y-94916511D01*
X137035472Y-94923020D01*
X137018838Y-94943661D01*
X137000000Y-94962498D01*
X137000000Y-94962500D01*
X137000000Y-95875000D01*
X138075200Y-95875000D01*
X138110132Y-95880021D01*
X138135376Y-95887434D01*
X138188122Y-95918730D01*
X138532103Y-96262711D01*
X138553252Y-96290961D01*
X138558673Y-96300888D01*
X138573527Y-96369161D01*
X138549113Y-96434626D01*
X138493181Y-96476499D01*
X138493177Y-96476501D01*
X138485989Y-96479182D01*
X138442655Y-96487000D01*
X138291830Y-96487000D01*
X138256889Y-96481975D01*
X138241890Y-96477570D01*
X138183144Y-96439827D01*
X138181957Y-96438458D01*
X138154478Y-96383585D01*
X138153336Y-96378336D01*
X138150000Y-96375000D01*
X138149999Y-96375000D01*
X131350000Y-96375000D01*
X131350000Y-97287499D01*
X131799960Y-97287499D01*
X131799972Y-97287499D01*
X131799986Y-97287498D01*
X131888638Y-97278441D01*
X131910480Y-97278145D01*
X131929823Y-97279591D01*
X131995206Y-97304220D01*
X132036896Y-97360289D01*
X132041655Y-97429996D01*
X132041653Y-97430006D01*
X132041205Y-97432033D01*
X132007808Y-97492954D01*
X131462689Y-98038073D01*
X131434438Y-98059222D01*
X131411350Y-98071830D01*
X131351920Y-98087000D01*
X130399998Y-98087000D01*
X130399980Y-98087001D01*
X130399972Y-98087001D01*
X130399953Y-98087003D01*
X130297197Y-98097500D01*
X130297193Y-98097501D01*
X130297032Y-98097556D01*
X130130667Y-98152685D01*
X130130665Y-98152686D01*
X130130663Y-98152687D01*
X130049391Y-98202816D01*
X129981340Y-98244790D01*
X129857291Y-98368839D01*
X129857289Y-98368841D01*
X129857289Y-98368842D01*
X129825121Y-98420996D01*
X129789899Y-98478100D01*
X129767286Y-98505194D01*
X129756967Y-98514476D01*
X129693961Y-98544675D01*
X129624630Y-98536015D01*
X129624627Y-98536014D01*
X129621391Y-98534608D01*
X129577082Y-98502070D01*
X129576013Y-98500836D01*
X129564200Y-98484745D01*
X129548281Y-98458936D01*
X129492712Y-98368844D01*
X129368656Y-98244788D01*
X129219334Y-98152686D01*
X129061265Y-98100307D01*
X129058445Y-98099141D01*
X129052792Y-98097499D01*
X128950019Y-98087000D01*
X128950010Y-98087000D01*
X127549998Y-98087000D01*
X127549981Y-98087001D01*
X127535959Y-98088433D01*
X127447198Y-98097500D01*
X127447193Y-98097501D01*
X127447032Y-98097556D01*
X127280667Y-98152685D01*
X127280665Y-98152686D01*
X127280663Y-98152687D01*
X127208331Y-98197302D01*
X127131343Y-98244788D01*
X127007290Y-98368840D01*
X127007281Y-98368854D01*
X126927601Y-98498033D01*
X126904988Y-98525127D01*
X126894672Y-98534406D01*
X126831665Y-98564604D01*
X126762337Y-98555945D01*
X126758786Y-98554402D01*
X126753610Y-98552153D01*
X126715340Y-98526104D01*
X126181364Y-97992129D01*
X126160212Y-97963873D01*
X126152031Y-97948890D01*
X126137018Y-97883279D01*
X126137684Y-97869975D01*
X126143597Y-97837856D01*
X126152246Y-97811243D01*
X126185500Y-97601287D01*
X126185500Y-97388713D01*
X126184674Y-97383501D01*
X126175359Y-97324683D01*
X126152246Y-97178757D01*
X126086557Y-96976588D01*
X125990197Y-96787471D01*
X125990052Y-96787183D01*
X125865112Y-96615217D01*
X125865111Y-96615216D01*
X125865109Y-96615213D01*
X125837391Y-96587495D01*
X126850001Y-96587495D01*
X126860493Y-96690194D01*
X126860493Y-96690195D01*
X126860494Y-96690197D01*
X126880311Y-96750000D01*
X126915277Y-96855523D01*
X126915641Y-96856619D01*
X126915643Y-96856624D01*
X127007684Y-97005845D01*
X127131654Y-97129815D01*
X127280875Y-97221856D01*
X127280880Y-97221858D01*
X127447299Y-97277004D01*
X127447300Y-97277004D01*
X127447302Y-97277005D01*
X127447309Y-97277006D01*
X127550019Y-97287499D01*
X127999999Y-97287499D01*
X128500000Y-97287499D01*
X128949960Y-97287499D01*
X128949972Y-97287499D01*
X128949986Y-97287498D01*
X129052697Y-97277005D01*
X129219119Y-97221858D01*
X129219124Y-97221856D01*
X129368345Y-97129815D01*
X129492315Y-97005845D01*
X129560103Y-96895943D01*
X129582706Y-96868859D01*
X129593036Y-96859568D01*
X129656037Y-96829373D01*
X129725368Y-96838032D01*
X129728610Y-96839440D01*
X129772927Y-96871988D01*
X129773994Y-96873220D01*
X129785799Y-96889303D01*
X129857681Y-97005841D01*
X129857683Y-97005844D01*
X129857684Y-97005845D01*
X129981654Y-97129815D01*
X130130875Y-97221856D01*
X130130880Y-97221858D01*
X130297299Y-97277004D01*
X130297300Y-97277004D01*
X130297302Y-97277005D01*
X130297309Y-97277006D01*
X130400019Y-97287499D01*
X130849999Y-97287499D01*
X130850000Y-97287498D01*
X130850000Y-96375000D01*
X128500000Y-96375000D01*
X128500000Y-97287499D01*
X127999999Y-97287499D01*
X128000000Y-97287498D01*
X128000000Y-96375000D01*
X126850001Y-96375000D01*
X126850001Y-96587495D01*
X125837391Y-96587495D01*
X125714790Y-96464894D01*
X125714785Y-96464890D01*
X125714779Y-96464886D01*
X125658596Y-96424066D01*
X125658596Y-96424064D01*
X125658483Y-96423982D01*
X125658444Y-96423956D01*
X125542816Y-96339948D01*
X125538664Y-96337404D01*
X125539200Y-96336529D01*
X125505028Y-96308700D01*
X125505018Y-96308711D01*
X125504947Y-96308634D01*
X125503870Y-96307757D01*
X125499400Y-96302174D01*
X125500992Y-96300898D01*
X125473705Y-96245692D01*
X125481523Y-96176262D01*
X125514635Y-96130584D01*
X125519380Y-96126472D01*
X125522109Y-96124107D01*
X125538537Y-96112082D01*
X125542535Y-96109632D01*
X125542555Y-96109622D01*
X125564119Y-96093953D01*
X125590858Y-96084412D01*
X125596717Y-96070269D01*
X125091149Y-95564702D01*
X125057664Y-95503379D01*
X125062648Y-95433688D01*
X125104519Y-95377754D01*
X125116822Y-95369639D01*
X125142007Y-95355099D01*
X125235099Y-95262007D01*
X125249634Y-95236830D01*
X125300199Y-95188616D01*
X125368805Y-95175391D01*
X125433671Y-95201358D01*
X125444702Y-95211149D01*
X125950269Y-95716717D01*
X125950269Y-95716716D01*
X125950270Y-95716717D01*
X125950270Y-95716716D01*
X125960954Y-95712291D01*
X125963934Y-95705832D01*
X125966775Y-95695194D01*
X125970068Y-95689466D01*
X125989622Y-95662554D01*
X125989646Y-95662507D01*
X126850000Y-95662507D01*
X126850000Y-95662513D01*
X126850000Y-95875000D01*
X128000000Y-95875000D01*
X128500000Y-95875000D01*
X130850000Y-95875000D01*
X131350000Y-95875000D01*
X133750000Y-95875000D01*
X134250000Y-95875000D01*
X136500000Y-95875000D01*
X136500000Y-94962500D01*
X136050037Y-94962500D01*
X136050028Y-94962500D01*
X136050012Y-94962501D01*
X136050002Y-94962501D01*
X136050002Y-94962502D01*
X135947304Y-94972993D01*
X135947302Y-94972994D01*
X135780887Y-95028138D01*
X135780879Y-95028141D01*
X135780877Y-95028142D01*
X135780875Y-95028143D01*
X135689657Y-95084407D01*
X135631652Y-95120185D01*
X135507682Y-95244155D01*
X135507680Y-95244158D01*
X135489896Y-95272991D01*
X135467283Y-95300086D01*
X135456967Y-95309365D01*
X135393960Y-95339563D01*
X135324654Y-95330913D01*
X135321416Y-95329507D01*
X135277081Y-95296958D01*
X135276012Y-95295724D01*
X135264196Y-95279629D01*
X135253324Y-95262003D01*
X135242315Y-95244154D01*
X135118345Y-95120184D01*
X134969124Y-95028143D01*
X134969119Y-95028141D01*
X134969110Y-95028138D01*
X134802699Y-94972994D01*
X134802694Y-94972993D01*
X134699991Y-94962500D01*
X134699986Y-94962500D01*
X134250000Y-94962500D01*
X134250000Y-95875000D01*
X133750000Y-95875000D01*
X133750000Y-94962500D01*
X133300037Y-94962500D01*
X133300028Y-94962500D01*
X133300012Y-94962501D01*
X133300002Y-94962501D01*
X133300002Y-94962502D01*
X133197304Y-94972993D01*
X133197302Y-94972994D01*
X133030887Y-95028138D01*
X133030879Y-95028141D01*
X133030877Y-95028142D01*
X133030875Y-95028143D01*
X132939657Y-95084407D01*
X132881652Y-95120185D01*
X132757683Y-95244154D01*
X132685519Y-95361150D01*
X132681908Y-95366670D01*
X132651099Y-95411138D01*
X132596739Y-95455034D01*
X132527277Y-95462572D01*
X132464767Y-95431359D01*
X132464755Y-95431348D01*
X132461525Y-95428346D01*
X132433150Y-95389034D01*
X132427536Y-95376743D01*
X132422392Y-95372928D01*
X132415795Y-95363283D01*
X132342315Y-95244154D01*
X132218345Y-95120184D01*
X132069124Y-95028143D01*
X132069119Y-95028141D01*
X132069110Y-95028138D01*
X131902699Y-94972994D01*
X131902694Y-94972993D01*
X131799991Y-94962500D01*
X131799986Y-94962500D01*
X131350000Y-94962500D01*
X131350000Y-95875000D01*
X130850000Y-95875000D01*
X130850000Y-94962500D01*
X130400037Y-94962500D01*
X130400028Y-94962500D01*
X130400012Y-94962501D01*
X130400002Y-94962501D01*
X130400002Y-94962502D01*
X130297304Y-94972993D01*
X130297302Y-94972994D01*
X130130887Y-95028138D01*
X130130879Y-95028141D01*
X130130877Y-95028142D01*
X130130875Y-95028143D01*
X130077210Y-95061244D01*
X129981655Y-95120183D01*
X129857685Y-95244152D01*
X129857676Y-95244166D01*
X129789895Y-95354054D01*
X129767282Y-95381148D01*
X129756966Y-95390427D01*
X129693959Y-95420625D01*
X129624628Y-95411964D01*
X129624614Y-95411958D01*
X129621379Y-95410552D01*
X129577126Y-95378069D01*
X129576055Y-95376834D01*
X129564205Y-95360703D01*
X129492319Y-95244159D01*
X129492316Y-95244155D01*
X129368345Y-95120184D01*
X129219124Y-95028143D01*
X129219119Y-95028141D01*
X129219110Y-95028138D01*
X129052699Y-94972994D01*
X129052694Y-94972993D01*
X128949991Y-94962500D01*
X128949986Y-94962500D01*
X128500000Y-94962500D01*
X128500000Y-95875000D01*
X128000000Y-95875000D01*
X128000000Y-94962500D01*
X127550037Y-94962500D01*
X127550028Y-94962500D01*
X127550012Y-94962501D01*
X127550002Y-94962501D01*
X127550002Y-94962502D01*
X127447304Y-94972993D01*
X127447302Y-94972994D01*
X127280887Y-95028138D01*
X127280879Y-95028141D01*
X127280877Y-95028142D01*
X127280875Y-95028143D01*
X127189657Y-95084407D01*
X127131652Y-95120185D01*
X127007685Y-95244152D01*
X126996672Y-95262007D01*
X126917462Y-95390427D01*
X126915641Y-95393379D01*
X126915638Y-95393388D01*
X126860494Y-95559799D01*
X126860493Y-95559804D01*
X126850000Y-95662507D01*
X125989646Y-95662507D01*
X126019932Y-95603069D01*
X126086095Y-95473217D01*
X126151757Y-95271130D01*
X126151757Y-95271127D01*
X126156029Y-95244159D01*
X126171260Y-95147993D01*
X126185000Y-95061246D01*
X126185000Y-94848753D01*
X126168767Y-94746264D01*
X126153284Y-94648511D01*
X126153283Y-94648505D01*
X126153283Y-94648506D01*
X126151756Y-94638865D01*
X126124473Y-94554898D01*
X126086095Y-94436782D01*
X125993925Y-94255891D01*
X125984718Y-94231992D01*
X125979590Y-94213034D01*
X125981083Y-94143184D01*
X125983567Y-94135351D01*
X126014086Y-94085146D01*
X128549812Y-91549423D01*
X128578062Y-91528275D01*
X128601154Y-91515667D01*
X128660579Y-91500500D01*
X133700701Y-91500500D01*
X133735633Y-91505521D01*
G37*
%TD.AperFunction*%
%TA.AperFunction,Conductor*%
G36*
X122893671Y-95201358D02*
G01*
X122904702Y-95211149D01*
X123410269Y-95716717D01*
X123410269Y-95716716D01*
X123410270Y-95716717D01*
X123410270Y-95716716D01*
X123423738Y-95711137D01*
X123429955Y-95689967D01*
X123433941Y-95684135D01*
X123449622Y-95662554D01*
X123449626Y-95662544D01*
X123450605Y-95660949D01*
X123466172Y-95640609D01*
X123475648Y-95630575D01*
X123535984Y-95595355D01*
X123605790Y-95598345D01*
X123659507Y-95634514D01*
X123665577Y-95641519D01*
X123677207Y-95658770D01*
X123677826Y-95658391D01*
X123680373Y-95662548D01*
X123719727Y-95716715D01*
X123719728Y-95716716D01*
X124225297Y-95211145D01*
X124286618Y-95177662D01*
X124356309Y-95182646D01*
X124412243Y-95224517D01*
X124420362Y-95236826D01*
X124434898Y-95262003D01*
X124434900Y-95262005D01*
X124434901Y-95262007D01*
X124527993Y-95355099D01*
X124553169Y-95369634D01*
X124601384Y-95420202D01*
X124614606Y-95488809D01*
X124588638Y-95553673D01*
X124578849Y-95564702D01*
X124073282Y-96070268D01*
X124073281Y-96070269D01*
X124081373Y-96086149D01*
X124120612Y-96106142D01*
X124149450Y-96126469D01*
X124158868Y-96135363D01*
X124194092Y-96195700D01*
X124191104Y-96265505D01*
X124154932Y-96319229D01*
X124147929Y-96325297D01*
X124130944Y-96336776D01*
X124131331Y-96337407D01*
X124127172Y-96339955D01*
X123955216Y-96464886D01*
X123804892Y-96615210D01*
X123763243Y-96672536D01*
X123679949Y-96787182D01*
X123679948Y-96787183D01*
X123679945Y-96787188D01*
X123679634Y-96787696D01*
X123678499Y-96789177D01*
X123677085Y-96791125D01*
X123677036Y-96791089D01*
X123664060Y-96808041D01*
X123654353Y-96818319D01*
X123594011Y-96853542D01*
X123524205Y-96850550D01*
X123470488Y-96814378D01*
X123464285Y-96807219D01*
X123452274Y-96790811D01*
X123450053Y-96787187D01*
X123450051Y-96787184D01*
X123450050Y-96787182D01*
X123325109Y-96615213D01*
X123174786Y-96464890D01*
X123002817Y-96339949D01*
X123002812Y-96339946D01*
X123001584Y-96339194D01*
X122981242Y-96323624D01*
X122971127Y-96314071D01*
X122935906Y-96253734D01*
X122938896Y-96183929D01*
X122975066Y-96130210D01*
X122982122Y-96124096D01*
X122998537Y-96112083D01*
X123002542Y-96109628D01*
X123002555Y-96109622D01*
X123024119Y-96093953D01*
X123050858Y-96084412D01*
X123056717Y-96070269D01*
X122551149Y-95564702D01*
X122517664Y-95503379D01*
X122522648Y-95433688D01*
X122564519Y-95377754D01*
X122576822Y-95369639D01*
X122602007Y-95355099D01*
X122695099Y-95262007D01*
X122709634Y-95236830D01*
X122760199Y-95188616D01*
X122828805Y-95175391D01*
X122893671Y-95201358D01*
G37*
%TD.AperFunction*%
%TA.AperFunction,Conductor*%
G36*
X151967089Y-92636502D02*
G01*
X152032579Y-92660851D01*
X152053505Y-92680662D01*
X152055516Y-92683068D01*
X152083410Y-92747126D01*
X152083419Y-92747200D01*
X152083644Y-92748998D01*
X152075995Y-92809791D01*
X152073164Y-92816987D01*
X152060877Y-92840479D01*
X152040614Y-92870805D01*
X152040602Y-92870826D01*
X152040597Y-92870837D01*
X151980264Y-93016496D01*
X151980257Y-93016527D01*
X151949500Y-93171150D01*
X151949500Y-93171153D01*
X151949500Y-93328846D01*
X151949500Y-93328848D01*
X151949499Y-93328848D01*
X151980257Y-93483471D01*
X151980264Y-93483502D01*
X152040598Y-93629165D01*
X152040603Y-93629174D01*
X152040613Y-93629191D01*
X152128211Y-93760290D01*
X152128212Y-93760291D01*
X152128217Y-93760297D01*
X152239707Y-93871787D01*
X152239710Y-93871789D01*
X152370815Y-93959390D01*
X152370821Y-93959394D01*
X152370822Y-93959394D01*
X152370868Y-93959425D01*
X152370867Y-93959425D01*
X152372110Y-93960253D01*
X152381162Y-93966894D01*
X152399000Y-93981267D01*
X152438850Y-94038651D01*
X152442640Y-94050032D01*
X152443961Y-94054000D01*
X152447993Y-94072934D01*
X152448311Y-94072871D01*
X152480257Y-94233471D01*
X152480264Y-94233502D01*
X152540598Y-94379165D01*
X152540601Y-94379170D01*
X152540602Y-94379172D01*
X152540609Y-94379185D01*
X152540612Y-94379190D01*
X152540613Y-94379191D01*
X152628211Y-94510290D01*
X152628212Y-94510291D01*
X152628217Y-94510297D01*
X152738245Y-94620325D01*
X152745711Y-94628488D01*
X152759306Y-94644755D01*
X152787192Y-94708818D01*
X152776016Y-94777788D01*
X152729334Y-94829764D01*
X152727348Y-94830991D01*
X152662173Y-94849500D01*
X151766830Y-94849500D01*
X151731889Y-94844475D01*
X151716890Y-94840070D01*
X151658153Y-94802338D01*
X151656964Y-94800967D01*
X151642185Y-94771458D01*
X151640355Y-94772458D01*
X151631810Y-94756810D01*
X151625000Y-94750000D01*
X146125001Y-94750000D01*
X146125000Y-94750000D01*
X146114815Y-94760185D01*
X146106868Y-94773579D01*
X146105737Y-94772908D01*
X146077797Y-94816384D01*
X146077789Y-94816390D01*
X146076420Y-94817576D01*
X146021598Y-94845018D01*
X146014040Y-94846663D01*
X145987669Y-94849500D01*
X145031688Y-94849500D01*
X144996755Y-94844478D01*
X144996745Y-94844475D01*
X144982630Y-94840330D01*
X144923852Y-94802557D01*
X144895214Y-94741510D01*
X144893185Y-94729198D01*
X144892180Y-94696451D01*
X144895065Y-94668207D01*
X144900249Y-94617455D01*
X144900474Y-94615629D01*
X144900499Y-94615204D01*
X144900499Y-94615015D01*
X144900500Y-94615009D01*
X144900499Y-94517924D01*
X144905522Y-94482991D01*
X144912932Y-94457754D01*
X144944226Y-94405009D01*
X144970064Y-94379172D01*
X145040520Y-94308716D01*
X145040520Y-94308715D01*
X145057956Y-94291279D01*
X145057960Y-94291272D01*
X145949811Y-93399423D01*
X145978061Y-93378275D01*
X146001153Y-93365667D01*
X146060578Y-93350500D01*
X146246647Y-93350500D01*
X146281574Y-93355521D01*
X146292427Y-93358707D01*
X146351208Y-93396477D01*
X146380237Y-93460031D01*
X146370298Y-93529190D01*
X146370297Y-93529191D01*
X146367113Y-93536164D01*
X146341997Y-93572340D01*
X146282686Y-93631650D01*
X146236663Y-93706264D01*
X146191316Y-93779785D01*
X146190641Y-93780879D01*
X146190638Y-93780888D01*
X146135494Y-93947299D01*
X146135493Y-93947304D01*
X146125000Y-94050007D01*
X146125000Y-94050010D01*
X146125000Y-94050013D01*
X146125000Y-94250000D01*
X151624999Y-94250000D01*
X151624999Y-94050028D01*
X151624998Y-94050013D01*
X151614505Y-93947302D01*
X151559358Y-93780880D01*
X151559356Y-93780875D01*
X151467315Y-93631654D01*
X151343344Y-93507683D01*
X151343340Y-93507680D01*
X151343333Y-93507675D01*
X151343322Y-93507668D01*
X151285276Y-93471865D01*
X151258181Y-93449253D01*
X151248898Y-93438932D01*
X151218702Y-93375928D01*
X151227361Y-93306599D01*
X151228399Y-93304213D01*
X151262277Y-93258769D01*
X151264829Y-93256622D01*
X151282658Y-93244119D01*
X151306216Y-93230520D01*
X151418020Y-93118716D01*
X151418020Y-93118715D01*
X151435460Y-93101275D01*
X151435461Y-93101272D01*
X151856747Y-92679985D01*
X151885001Y-92658836D01*
X151898721Y-92651345D01*
X151966861Y-92636486D01*
X151967089Y-92636502D01*
G37*
%TD.AperFunction*%
%TA.AperFunction,Conductor*%
G36*
X168011759Y-94081921D02*
G01*
X168069951Y-94101287D01*
X168076462Y-94105471D01*
X168097108Y-94122108D01*
X168100000Y-94125000D01*
X169358170Y-94125000D01*
X169363617Y-94126599D01*
X169369188Y-94125490D01*
X169393106Y-94130023D01*
X169408104Y-94134427D01*
X169423112Y-94144069D01*
X169425209Y-94144685D01*
X169426638Y-94146334D01*
X169466855Y-94172172D01*
X169468042Y-94173541D01*
X169495518Y-94228402D01*
X169497163Y-94235960D01*
X169500000Y-94262331D01*
X169500000Y-94483170D01*
X169494975Y-94518114D01*
X169490570Y-94533112D01*
X169482704Y-94545354D01*
X169479366Y-94559498D01*
X169464223Y-94574117D01*
X169452827Y-94591855D01*
X169451458Y-94593042D01*
X169437253Y-94600155D01*
X169429100Y-94608028D01*
X169416539Y-94610530D01*
X169396597Y-94620518D01*
X169389039Y-94622163D01*
X169362668Y-94625000D01*
X168100000Y-94625000D01*
X168099999Y-94625000D01*
X168099784Y-94625089D01*
X168072032Y-94645863D01*
X168058311Y-94653355D01*
X167990051Y-94668207D01*
X167989377Y-94668158D01*
X167988244Y-94668077D01*
X167930034Y-94648704D01*
X167923526Y-94644521D01*
X167902891Y-94627891D01*
X167900000Y-94625000D01*
X166641830Y-94625000D01*
X166636382Y-94623400D01*
X166630812Y-94624510D01*
X166606889Y-94619975D01*
X166591890Y-94615570D01*
X166576885Y-94605930D01*
X166574791Y-94605315D01*
X166573362Y-94603666D01*
X166533144Y-94577827D01*
X166531957Y-94576458D01*
X166504477Y-94521583D01*
X166502832Y-94514021D01*
X166500000Y-94487668D01*
X166500000Y-94266829D01*
X166505023Y-94231893D01*
X166509427Y-94216895D01*
X166517293Y-94204650D01*
X166520633Y-94190501D01*
X166535777Y-94175879D01*
X166547172Y-94158144D01*
X166548541Y-94156957D01*
X166562742Y-94149845D01*
X166570898Y-94141972D01*
X166583467Y-94139467D01*
X166603420Y-94129477D01*
X166610979Y-94127833D01*
X166637332Y-94125000D01*
X167899998Y-94125000D01*
X167900210Y-94124911D01*
X167927957Y-94104140D01*
X167941689Y-94096642D01*
X168009948Y-94081791D01*
X168011759Y-94081921D01*
G37*
%TD.AperFunction*%
%TA.AperFunction,Conductor*%
G36*
X154819792Y-88943020D02*
G01*
X154845033Y-88950432D01*
X154897781Y-88981727D01*
X154999998Y-89083943D01*
X154999999Y-89083944D01*
X155097023Y-88986920D01*
X155125273Y-88965773D01*
X155148363Y-88953166D01*
X155207788Y-88937999D01*
X155311429Y-88937999D01*
X155378468Y-88957684D01*
X155414529Y-88993106D01*
X155415221Y-88994142D01*
X155415224Y-88994145D01*
X155443355Y-89022276D01*
X155480109Y-89037500D01*
X155519889Y-89037500D01*
X155519891Y-89037500D01*
X155556645Y-89022276D01*
X155584776Y-88994145D01*
X155584779Y-88994137D01*
X155585465Y-88993112D01*
X155587559Y-88991361D01*
X155593412Y-88985509D01*
X155593935Y-88986032D01*
X155639076Y-88948305D01*
X155688566Y-88937999D01*
X155784862Y-88937999D01*
X155819792Y-88943020D01*
X155845033Y-88950432D01*
X155897781Y-88981727D01*
X155999998Y-89083943D01*
X155999999Y-89083944D01*
X156097021Y-88986921D01*
X156097944Y-88986418D01*
X156098464Y-88985503D01*
X156125273Y-88965773D01*
X156148363Y-88953166D01*
X156207788Y-88937999D01*
X156311429Y-88937999D01*
X156378468Y-88957684D01*
X156414529Y-88993106D01*
X156415221Y-88994142D01*
X156415224Y-88994145D01*
X156443355Y-89022276D01*
X156443360Y-89022278D01*
X156444385Y-89022963D01*
X156446131Y-89025052D01*
X156451991Y-89030912D01*
X156451466Y-89031436D01*
X156489193Y-89076573D01*
X156499500Y-89126069D01*
X156499500Y-89222361D01*
X156495999Y-89246707D01*
X156496219Y-89250695D01*
X156495156Y-89252567D01*
X156494476Y-89257300D01*
X156487063Y-89282543D01*
X156455769Y-89335285D01*
X156353554Y-89437500D01*
X156450573Y-89534519D01*
X156471723Y-89562771D01*
X156484331Y-89585860D01*
X156499500Y-89645289D01*
X156499500Y-89748930D01*
X156479815Y-89815969D01*
X156444391Y-89852032D01*
X156443354Y-89852724D01*
X156415224Y-89880854D01*
X156400000Y-89917607D01*
X156400000Y-89957392D01*
X156409900Y-89981291D01*
X156415224Y-89994145D01*
X156443355Y-90022276D01*
X156443360Y-90022278D01*
X156444385Y-90022963D01*
X156446131Y-90025052D01*
X156451991Y-90030912D01*
X156451466Y-90031436D01*
X156489193Y-90076573D01*
X156499500Y-90126069D01*
X156499500Y-90222361D01*
X156494476Y-90257300D01*
X156487063Y-90282543D01*
X156455769Y-90335285D01*
X156353554Y-90437500D01*
X156450573Y-90534519D01*
X156451077Y-90535442D01*
X156451993Y-90535962D01*
X156471723Y-90562771D01*
X156484331Y-90585860D01*
X156499500Y-90645289D01*
X156499500Y-90748930D01*
X156479815Y-90815969D01*
X156444391Y-90852032D01*
X156443354Y-90852724D01*
X156415224Y-90880854D01*
X156414532Y-90881891D01*
X156412438Y-90883640D01*
X156406588Y-90889491D01*
X156406064Y-90888967D01*
X156360919Y-90926696D01*
X156311430Y-90937000D01*
X156215139Y-90937000D01*
X156190798Y-90933499D01*
X156186806Y-90933720D01*
X156184931Y-90932656D01*
X156180201Y-90931976D01*
X156154957Y-90924563D01*
X156102214Y-90893268D01*
X156000000Y-90791054D01*
X155902980Y-90888074D01*
X155874728Y-90909223D01*
X155851639Y-90921831D01*
X155792210Y-90937000D01*
X155688570Y-90937000D01*
X155621531Y-90917315D01*
X155585468Y-90881891D01*
X155584775Y-90880854D01*
X155556645Y-90852724D01*
X155519892Y-90837500D01*
X155519891Y-90837500D01*
X155480109Y-90837500D01*
X155480107Y-90837500D01*
X155443354Y-90852724D01*
X155415224Y-90880854D01*
X155414532Y-90881891D01*
X155412438Y-90883640D01*
X155406588Y-90889491D01*
X155406064Y-90888967D01*
X155360919Y-90926696D01*
X155311430Y-90937000D01*
X155215139Y-90937000D01*
X155180201Y-90931976D01*
X155154957Y-90924563D01*
X155102214Y-90893268D01*
X155000000Y-90791054D01*
X154902980Y-90888074D01*
X154902054Y-90888579D01*
X154901535Y-90889495D01*
X154874728Y-90909223D01*
X154851639Y-90921831D01*
X154792210Y-90937000D01*
X154688570Y-90937000D01*
X154621531Y-90917315D01*
X154585468Y-90881891D01*
X154584775Y-90880854D01*
X154556642Y-90852721D01*
X154555606Y-90852029D01*
X154553856Y-90849935D01*
X154548009Y-90844088D01*
X154548532Y-90843564D01*
X154510802Y-90798416D01*
X154500499Y-90748932D01*
X154500499Y-90652633D01*
X154503999Y-90628284D01*
X154503780Y-90624299D01*
X154504841Y-90622428D01*
X154505520Y-90617706D01*
X154512933Y-90592460D01*
X154544225Y-90539718D01*
X154646444Y-90437500D01*
X155353554Y-90437500D01*
X155500000Y-90583946D01*
X155646446Y-90437500D01*
X155500000Y-90291054D01*
X155353554Y-90437500D01*
X154646444Y-90437500D01*
X154646445Y-90437499D01*
X154549422Y-90340476D01*
X154549421Y-90340474D01*
X154528273Y-90312223D01*
X154515666Y-90289134D01*
X154500499Y-90229709D01*
X154500499Y-90126070D01*
X154520184Y-90059031D01*
X154555612Y-90022965D01*
X154556637Y-90022279D01*
X154556645Y-90022276D01*
X154584776Y-89994145D01*
X154600000Y-89957391D01*
X154600000Y-89937500D01*
X154853554Y-89937500D01*
X155000000Y-90083946D01*
X155146446Y-89937500D01*
X155126553Y-89917607D01*
X155400000Y-89917607D01*
X155400000Y-89957392D01*
X155409900Y-89981291D01*
X155415224Y-89994145D01*
X155443355Y-90022276D01*
X155480109Y-90037500D01*
X155519889Y-90037500D01*
X155519891Y-90037500D01*
X155556645Y-90022276D01*
X155584776Y-89994145D01*
X155600000Y-89957391D01*
X155600000Y-89937500D01*
X155853554Y-89937500D01*
X156000000Y-90083946D01*
X156146446Y-89937500D01*
X156000000Y-89791054D01*
X155853554Y-89937500D01*
X155600000Y-89937500D01*
X155600000Y-89917609D01*
X155584776Y-89880855D01*
X155556645Y-89852724D01*
X155534531Y-89843564D01*
X155519892Y-89837500D01*
X155519891Y-89837500D01*
X155480109Y-89837500D01*
X155480107Y-89837500D01*
X155443354Y-89852724D01*
X155415224Y-89880854D01*
X155400000Y-89917607D01*
X155126553Y-89917607D01*
X155000000Y-89791054D01*
X154853554Y-89937500D01*
X154600000Y-89937500D01*
X154600000Y-89917609D01*
X154584776Y-89880855D01*
X154556645Y-89852724D01*
X154556642Y-89852721D01*
X154555606Y-89852029D01*
X154553856Y-89849935D01*
X154548009Y-89844088D01*
X154548532Y-89843564D01*
X154510802Y-89798416D01*
X154500499Y-89748932D01*
X154500499Y-89652633D01*
X154505520Y-89617706D01*
X154512933Y-89592460D01*
X154544225Y-89539718D01*
X154646444Y-89437500D01*
X155353554Y-89437500D01*
X155500000Y-89583946D01*
X155646446Y-89437500D01*
X155500000Y-89291054D01*
X155353554Y-89437500D01*
X154646444Y-89437500D01*
X154646445Y-89437499D01*
X154549422Y-89340476D01*
X154549421Y-89340474D01*
X154528273Y-89312223D01*
X154515666Y-89289134D01*
X154500499Y-89229709D01*
X154500499Y-89126070D01*
X154520184Y-89059031D01*
X154555612Y-89022965D01*
X154556637Y-89022279D01*
X154556645Y-89022276D01*
X154584776Y-88994145D01*
X154584779Y-88994137D01*
X154585465Y-88993112D01*
X154587559Y-88991361D01*
X154593412Y-88985509D01*
X154593935Y-88986032D01*
X154639076Y-88948305D01*
X154688566Y-88937999D01*
X154784862Y-88937999D01*
X154819792Y-88943020D01*
G37*
%TD.AperFunction*%
%TA.AperFunction,Conductor*%
G36*
X157465599Y-81157921D02*
G01*
X157476452Y-81161107D01*
X157535233Y-81198877D01*
X157564262Y-81262431D01*
X157554323Y-81331590D01*
X157554322Y-81331592D01*
X157551137Y-81338567D01*
X157526021Y-81374742D01*
X157350189Y-81550573D01*
X157321938Y-81571722D01*
X157298850Y-81584330D01*
X157239420Y-81599500D01*
X156324998Y-81599500D01*
X156324980Y-81599501D01*
X156324972Y-81599501D01*
X156324953Y-81599503D01*
X156222197Y-81610000D01*
X156222193Y-81610001D01*
X156222032Y-81610056D01*
X156055667Y-81665185D01*
X156055665Y-81665186D01*
X156055663Y-81665187D01*
X155989167Y-81706202D01*
X155906340Y-81757290D01*
X155782290Y-81881340D01*
X155690185Y-82030666D01*
X155687722Y-82038103D01*
X155687397Y-82039083D01*
X155683785Y-82049983D01*
X155645299Y-82166123D01*
X155636852Y-82179067D01*
X155635365Y-82193630D01*
X155634542Y-82199881D01*
X155634359Y-82203476D01*
X155624500Y-82299973D01*
X155624500Y-82299983D01*
X155624500Y-83200001D01*
X155624500Y-83200009D01*
X155624503Y-83200046D01*
X155633341Y-83286555D01*
X155633638Y-83308403D01*
X155631937Y-83331153D01*
X155607309Y-83396538D01*
X155551239Y-83438228D01*
X155541931Y-83441666D01*
X155541511Y-83441821D01*
X155498553Y-83449500D01*
X155421153Y-83449500D01*
X155266527Y-83480257D01*
X155266496Y-83480264D01*
X155120833Y-83540598D01*
X155120824Y-83540603D01*
X155120807Y-83540613D01*
X154989708Y-83628211D01*
X154989707Y-83628212D01*
X154989701Y-83628217D01*
X154878217Y-83739701D01*
X154878212Y-83739707D01*
X154878211Y-83739708D01*
X154790613Y-83870807D01*
X154790603Y-83870824D01*
X154790598Y-83870833D01*
X154730264Y-84016496D01*
X154730257Y-84016527D01*
X154699500Y-84171150D01*
X154699500Y-84171153D01*
X154699500Y-84328846D01*
X154699500Y-84328848D01*
X154699499Y-84328848D01*
X154730257Y-84483471D01*
X154730263Y-84483497D01*
X154730263Y-84483500D01*
X154790596Y-84629158D01*
X154790604Y-84629176D01*
X154790613Y-84629191D01*
X154878211Y-84760290D01*
X154878212Y-84760291D01*
X154878217Y-84760297D01*
X154989707Y-84871787D01*
X154989710Y-84871789D01*
X155079570Y-84931831D01*
X155105824Y-84955414D01*
X155115958Y-84967540D01*
X155119279Y-84971514D01*
X155145522Y-85025735D01*
X155146893Y-85032315D01*
X155149500Y-85057608D01*
X155149500Y-86417388D01*
X155144476Y-86452326D01*
X155141289Y-86463179D01*
X155103514Y-86521956D01*
X155039957Y-86550979D01*
X154970807Y-86541038D01*
X154963829Y-86537851D01*
X154927657Y-86512737D01*
X152307613Y-83892693D01*
X152307604Y-83892683D01*
X152249733Y-83834812D01*
X152184402Y-83769481D01*
X152184401Y-83769480D01*
X152068680Y-83702669D01*
X152047470Y-83690423D01*
X151894742Y-83649499D01*
X151894739Y-83649499D01*
X151727128Y-83649499D01*
X151727065Y-83649500D01*
X151047260Y-83649500D01*
X151012324Y-83644477D01*
X150998201Y-83640330D01*
X150939423Y-83602555D01*
X150910787Y-83541514D01*
X150908760Y-83529213D01*
X150907752Y-83496448D01*
X150907884Y-83495163D01*
X150912499Y-83449986D01*
X150912500Y-83449973D01*
X150912500Y-83000000D01*
X149891830Y-83000000D01*
X149886382Y-82998400D01*
X149880812Y-82999510D01*
X149856889Y-82994975D01*
X149841890Y-82990570D01*
X149826885Y-82980930D01*
X149824791Y-82980315D01*
X149823362Y-82978666D01*
X149783144Y-82952827D01*
X149781957Y-82951458D01*
X149754477Y-82896583D01*
X149752832Y-82889021D01*
X149750000Y-82862668D01*
X149750000Y-82641829D01*
X149755023Y-82606893D01*
X149759427Y-82591895D01*
X149767293Y-82579650D01*
X149770633Y-82565501D01*
X149785777Y-82550879D01*
X149797172Y-82533144D01*
X149798541Y-82531957D01*
X149812742Y-82524845D01*
X149820898Y-82516972D01*
X149833467Y-82514467D01*
X149853420Y-82504477D01*
X149860979Y-82502833D01*
X149887332Y-82500000D01*
X150912499Y-82500000D01*
X150912499Y-82050032D01*
X150912499Y-82050028D01*
X150912498Y-82050013D01*
X150902005Y-81947302D01*
X150846858Y-81780880D01*
X150846856Y-81780875D01*
X150754815Y-81631654D01*
X150630845Y-81507684D01*
X150481624Y-81415643D01*
X150481619Y-81415641D01*
X150481609Y-81415637D01*
X150481596Y-81415633D01*
X150435062Y-81400214D01*
X150403469Y-81384450D01*
X150401135Y-81382834D01*
X150397619Y-81380399D01*
X150353713Y-81326047D01*
X150346161Y-81256587D01*
X150377361Y-81194071D01*
X150435343Y-81158895D01*
X150441014Y-81157335D01*
X150473884Y-81152900D01*
X157430672Y-81152900D01*
X157465599Y-81157921D01*
G37*
%TD.AperFunction*%
%TA.AperFunction,Conductor*%
G36*
X168011759Y-85081921D02*
G01*
X168069951Y-85101287D01*
X168076462Y-85105471D01*
X168097108Y-85122108D01*
X168100000Y-85125000D01*
X169358170Y-85125000D01*
X169363617Y-85126599D01*
X169369188Y-85125490D01*
X169393106Y-85130023D01*
X169408104Y-85134427D01*
X169423112Y-85144069D01*
X169425209Y-85144685D01*
X169426638Y-85146334D01*
X169466855Y-85172172D01*
X169468042Y-85173541D01*
X169495518Y-85228402D01*
X169497163Y-85235960D01*
X169500000Y-85262331D01*
X169500000Y-85483170D01*
X169494975Y-85518114D01*
X169490570Y-85533112D01*
X169482704Y-85545354D01*
X169479366Y-85559498D01*
X169464223Y-85574117D01*
X169452827Y-85591855D01*
X169451458Y-85593042D01*
X169437253Y-85600155D01*
X169429100Y-85608028D01*
X169416539Y-85610530D01*
X169396597Y-85620518D01*
X169389039Y-85622163D01*
X169362668Y-85625000D01*
X168100000Y-85625000D01*
X168099999Y-85625000D01*
X168099784Y-85625089D01*
X168072032Y-85645863D01*
X168058311Y-85653355D01*
X167990051Y-85668207D01*
X167989377Y-85668158D01*
X167988244Y-85668077D01*
X167930034Y-85648704D01*
X167923526Y-85644521D01*
X167902891Y-85627891D01*
X167900000Y-85625000D01*
X166641830Y-85625000D01*
X166636382Y-85623400D01*
X166630812Y-85624510D01*
X166606889Y-85619975D01*
X166591890Y-85615570D01*
X166576885Y-85605930D01*
X166574791Y-85605315D01*
X166573362Y-85603666D01*
X166533144Y-85577827D01*
X166531957Y-85576458D01*
X166504477Y-85521583D01*
X166502832Y-85514021D01*
X166500000Y-85487668D01*
X166500000Y-85266829D01*
X166505023Y-85231893D01*
X166509427Y-85216895D01*
X166517293Y-85204650D01*
X166520633Y-85190501D01*
X166535777Y-85175879D01*
X166547172Y-85158144D01*
X166548541Y-85156957D01*
X166562742Y-85149845D01*
X166570898Y-85141972D01*
X166583467Y-85139467D01*
X166603420Y-85129477D01*
X166610979Y-85127833D01*
X166637332Y-85125000D01*
X167899998Y-85125000D01*
X167900210Y-85124911D01*
X167927957Y-85104140D01*
X167941689Y-85096642D01*
X168009948Y-85081791D01*
X168011759Y-85081921D01*
G37*
%TD.AperFunction*%
%TA.AperFunction,Conductor*%
G36*
X162493106Y-82430523D02*
G01*
X162508104Y-82434927D01*
X162566855Y-82472672D01*
X162568042Y-82474041D01*
X162595518Y-82528902D01*
X162597163Y-82536460D01*
X162600000Y-82562831D01*
X162600000Y-82750000D01*
X164899998Y-82750000D01*
X164900210Y-82749911D01*
X164927957Y-82729140D01*
X164941689Y-82721642D01*
X165009948Y-82706791D01*
X165011759Y-82706921D01*
X165069951Y-82726287D01*
X165076462Y-82730471D01*
X165097108Y-82747108D01*
X165100000Y-82750000D01*
X167399999Y-82750000D01*
X167399999Y-82567329D01*
X167405022Y-82532393D01*
X167405023Y-82532392D01*
X167409426Y-82517394D01*
X167447171Y-82458644D01*
X167448540Y-82457457D01*
X167503419Y-82429977D01*
X167510978Y-82428333D01*
X167537331Y-82425500D01*
X168057670Y-82425500D01*
X168092606Y-82430523D01*
X168107604Y-82434927D01*
X168166355Y-82472672D01*
X168167542Y-82474041D01*
X168195018Y-82528902D01*
X168196663Y-82536460D01*
X168199500Y-82562831D01*
X168199500Y-83675001D01*
X168199501Y-83675018D01*
X168210000Y-83777796D01*
X168210001Y-83777799D01*
X168229790Y-83837517D01*
X168265117Y-83944127D01*
X168265186Y-83944333D01*
X168265189Y-83944340D01*
X168357049Y-84093270D01*
X168357286Y-84093654D01*
X168357287Y-84093655D01*
X168357288Y-84093656D01*
X168357289Y-84093657D01*
X168414120Y-84150488D01*
X168435270Y-84178742D01*
X168441921Y-84190923D01*
X168456772Y-84259197D01*
X168432354Y-84324660D01*
X168432351Y-84324665D01*
X168426649Y-84332281D01*
X168392485Y-84363501D01*
X168381661Y-84370177D01*
X168381657Y-84370180D01*
X168257685Y-84494152D01*
X168257684Y-84494154D01*
X168174413Y-84629158D01*
X168165641Y-84643379D01*
X168165638Y-84643388D01*
X168123313Y-84771115D01*
X168107558Y-84802695D01*
X168101120Y-84811994D01*
X168046775Y-84855908D01*
X167977316Y-84863469D01*
X167914796Y-84832278D01*
X167912322Y-84829981D01*
X167879013Y-84778138D01*
X167876962Y-84771950D01*
X167834358Y-84643380D01*
X167834356Y-84643375D01*
X167742315Y-84494154D01*
X167618345Y-84370184D01*
X167469124Y-84278143D01*
X167469119Y-84278141D01*
X167448118Y-84271182D01*
X167351951Y-84239315D01*
X167320374Y-84223562D01*
X167317709Y-84221717D01*
X167308962Y-84215661D01*
X167265049Y-84161319D01*
X167257485Y-84091860D01*
X167257486Y-84091857D01*
X167259163Y-84082490D01*
X167275680Y-84039251D01*
X167334356Y-83944124D01*
X167334358Y-83944119D01*
X167389505Y-83777697D01*
X167389506Y-83777690D01*
X167399999Y-83674986D01*
X167400000Y-83674973D01*
X167400000Y-83250000D01*
X165100001Y-83250000D01*
X165100000Y-83250000D01*
X165099999Y-83250000D01*
X165099784Y-83250089D01*
X165072032Y-83270863D01*
X165058311Y-83278355D01*
X164990051Y-83293207D01*
X164989377Y-83293158D01*
X164988244Y-83293077D01*
X164930034Y-83273704D01*
X164923526Y-83269521D01*
X164902891Y-83252891D01*
X164900000Y-83250000D01*
X162600001Y-83250000D01*
X162600001Y-83674995D01*
X162610493Y-83777694D01*
X162610493Y-83777695D01*
X162610494Y-83777697D01*
X162637349Y-83858740D01*
X162654739Y-83911221D01*
X162665641Y-83944119D01*
X162665643Y-83944124D01*
X162665771Y-83944331D01*
X162745324Y-84073308D01*
X162759388Y-84105678D01*
X162763051Y-84119065D01*
X162761758Y-84188922D01*
X162722902Y-84246991D01*
X162722896Y-84246996D01*
X162715591Y-84253092D01*
X162675148Y-84275593D01*
X162620657Y-84293650D01*
X162555666Y-84315186D01*
X162555663Y-84315187D01*
X162555661Y-84315187D01*
X162555661Y-84315188D01*
X162406340Y-84407290D01*
X162282290Y-84531340D01*
X162282289Y-84531342D01*
X162190187Y-84680663D01*
X162190184Y-84680671D01*
X162185610Y-84694475D01*
X162184579Y-84697586D01*
X162168824Y-84729162D01*
X162159924Y-84742016D01*
X162105581Y-84785926D01*
X162095787Y-84789998D01*
X162048183Y-84799500D01*
X161956563Y-84799500D01*
X161921622Y-84794475D01*
X161906623Y-84790070D01*
X161847858Y-84752306D01*
X161840910Y-84744289D01*
X161816903Y-84702061D01*
X161816055Y-84699500D01*
X161809814Y-84680666D01*
X161717712Y-84531344D01*
X161593656Y-84407288D01*
X161593655Y-84407287D01*
X161578664Y-84398041D01*
X161551566Y-84375426D01*
X161542282Y-84365104D01*
X161512088Y-84302096D01*
X161520746Y-84232777D01*
X161524539Y-84224049D01*
X161550588Y-84185779D01*
X161592138Y-84144230D01*
X161642712Y-84093656D01*
X161734814Y-83944334D01*
X161789999Y-83777797D01*
X161800500Y-83675009D01*
X161800499Y-82567327D01*
X161805522Y-82532392D01*
X161809926Y-82517394D01*
X161847699Y-82458618D01*
X161849079Y-82457423D01*
X161903919Y-82429977D01*
X161911478Y-82428333D01*
X161937831Y-82425500D01*
X162458170Y-82425500D01*
X162493106Y-82430523D01*
G37*
%TD.AperFunction*%
%TA.AperFunction,Conductor*%
G36*
X143558374Y-81157923D02*
G01*
X143565199Y-81159927D01*
X143623977Y-81197701D01*
X143653002Y-81261257D01*
X143643058Y-81330415D01*
X143599086Y-81382052D01*
X143594200Y-81385312D01*
X143564388Y-81399868D01*
X143553230Y-81403566D01*
X143553224Y-81403568D01*
X143518181Y-81415180D01*
X143518167Y-81415185D01*
X143518165Y-81415186D01*
X143518163Y-81415187D01*
X143477632Y-81440187D01*
X143368840Y-81507290D01*
X143244790Y-81631340D01*
X143229370Y-81656340D01*
X143160685Y-81767697D01*
X143152685Y-81780667D01*
X143152678Y-81780685D01*
X143147237Y-81797108D01*
X143145451Y-81802499D01*
X143144362Y-81805786D01*
X143107799Y-81916123D01*
X143099352Y-81929067D01*
X143097865Y-81943630D01*
X143097042Y-81949881D01*
X143096859Y-81953476D01*
X143087000Y-82049973D01*
X143087000Y-83449999D01*
X143087003Y-83450042D01*
X143091613Y-83495163D01*
X143090166Y-83530429D01*
X143087476Y-83544901D01*
X143055868Y-83607212D01*
X142998057Y-83641900D01*
X142986020Y-83645168D01*
X142953536Y-83649500D01*
X142422260Y-83649500D01*
X142387324Y-83644477D01*
X142373201Y-83640330D01*
X142314423Y-83602555D01*
X142285787Y-83541514D01*
X142283760Y-83529213D01*
X142282752Y-83496448D01*
X142282884Y-83495163D01*
X142287499Y-83449986D01*
X142287500Y-83449973D01*
X142287500Y-83000000D01*
X141266830Y-83000000D01*
X141261382Y-82998400D01*
X141255812Y-82999510D01*
X141231889Y-82994975D01*
X141216890Y-82990570D01*
X141201885Y-82980930D01*
X141199791Y-82980315D01*
X141198362Y-82978666D01*
X141158144Y-82952827D01*
X141156957Y-82951458D01*
X141129477Y-82896583D01*
X141127832Y-82889021D01*
X141125000Y-82862668D01*
X141125000Y-82641829D01*
X141130023Y-82606893D01*
X141134427Y-82591895D01*
X141142293Y-82579650D01*
X141145633Y-82565501D01*
X141160777Y-82550879D01*
X141172172Y-82533144D01*
X141173541Y-82531957D01*
X141187742Y-82524845D01*
X141195898Y-82516972D01*
X141208467Y-82514467D01*
X141228420Y-82504477D01*
X141235979Y-82502833D01*
X141262332Y-82500000D01*
X142287499Y-82500000D01*
X142287499Y-82050032D01*
X142287499Y-82050028D01*
X142287498Y-82050013D01*
X142277005Y-81947302D01*
X142221858Y-81780880D01*
X142221856Y-81780875D01*
X142129815Y-81631654D01*
X142005845Y-81507684D01*
X141856624Y-81415643D01*
X141856619Y-81415641D01*
X141856609Y-81415637D01*
X141856596Y-81415633D01*
X141810062Y-81400214D01*
X141778469Y-81384450D01*
X141776135Y-81382834D01*
X141772619Y-81380399D01*
X141728713Y-81326047D01*
X141721161Y-81256587D01*
X141752361Y-81194071D01*
X141810343Y-81158895D01*
X141816014Y-81157335D01*
X141848884Y-81152900D01*
X143523439Y-81152900D01*
X143558374Y-81157923D01*
G37*
%TD.AperFunction*%
%TD*%
%TA.AperFunction,Conductor*%
%TO.N,EGND*%
G36*
X178072891Y-86923572D02*
G01*
X178084852Y-86934087D01*
X179963181Y-88812416D01*
X179996666Y-88873739D01*
X179999500Y-88900097D01*
X179999500Y-91038330D01*
X179999499Y-91038348D01*
X179999499Y-91204054D01*
X179999498Y-91204054D01*
X180008587Y-91237973D01*
X180040423Y-91356785D01*
X180040424Y-91356786D01*
X180044711Y-91364212D01*
X180119477Y-91493712D01*
X180119481Y-91493717D01*
X180238349Y-91612585D01*
X180238355Y-91612590D01*
X183399915Y-94774150D01*
X183433400Y-94835473D01*
X183428416Y-94905165D01*
X183386544Y-94961098D01*
X183321080Y-94985515D01*
X183296049Y-94984770D01*
X183164875Y-94967501D01*
X183164870Y-94967500D01*
X183164865Y-94967500D01*
X182935135Y-94967500D01*
X182935127Y-94967500D01*
X182718335Y-94996042D01*
X182707371Y-94997486D01*
X182500405Y-95052942D01*
X182485469Y-95056944D01*
X182485459Y-95056947D01*
X182273229Y-95144856D01*
X182273218Y-95144861D01*
X182074281Y-95259718D01*
X182074265Y-95259729D01*
X181892018Y-95399572D01*
X181892011Y-95399578D01*
X181729578Y-95562011D01*
X181729572Y-95562018D01*
X181589729Y-95744265D01*
X181589718Y-95744281D01*
X181474861Y-95943218D01*
X181474856Y-95943229D01*
X181386947Y-96155459D01*
X181386944Y-96155469D01*
X181327487Y-96377368D01*
X181327485Y-96377379D01*
X181297500Y-96605127D01*
X181297500Y-96834872D01*
X181315510Y-96971663D01*
X181304745Y-97040699D01*
X181258365Y-97092955D01*
X181191096Y-97111840D01*
X181124295Y-97091359D01*
X181117087Y-97086227D01*
X181113526Y-97083494D01*
X180886482Y-96952409D01*
X180886471Y-96952404D01*
X180644255Y-96852075D01*
X180391020Y-96784222D01*
X180391009Y-96784220D01*
X180131094Y-96750000D01*
X179868905Y-96750000D01*
X179608990Y-96784220D01*
X179608979Y-96784222D01*
X179355744Y-96852075D01*
X179113528Y-96952404D01*
X179113517Y-96952409D01*
X178886471Y-97083496D01*
X178773633Y-97170079D01*
X178773633Y-97170080D01*
X179637706Y-98034152D01*
X179621058Y-98041049D01*
X179490030Y-98128599D01*
X179378599Y-98240030D01*
X179291049Y-98371058D01*
X179284153Y-98387706D01*
X178420080Y-97523633D01*
X178420079Y-97523633D01*
X178333496Y-97636471D01*
X178202409Y-97863517D01*
X178202404Y-97863528D01*
X178102075Y-98105744D01*
X178034222Y-98358979D01*
X178034220Y-98358990D01*
X178000000Y-98618905D01*
X178000000Y-98881094D01*
X178034220Y-99141009D01*
X178034222Y-99141020D01*
X178102075Y-99394255D01*
X178202404Y-99636471D01*
X178202409Y-99636482D01*
X178333488Y-99863516D01*
X178333494Y-99863524D01*
X178420080Y-99976365D01*
X179284152Y-99112292D01*
X179291049Y-99128942D01*
X179378599Y-99259970D01*
X179490030Y-99371401D01*
X179621058Y-99458951D01*
X179637705Y-99465846D01*
X178773633Y-100329917D01*
X178773633Y-100329918D01*
X178886475Y-100416505D01*
X178886483Y-100416511D01*
X179113517Y-100547590D01*
X179113528Y-100547595D01*
X179260659Y-100608539D01*
X179315062Y-100652380D01*
X179337127Y-100718674D01*
X179319848Y-100786373D01*
X179268711Y-100833984D01*
X179213206Y-100847100D01*
X171124000Y-100847100D01*
X171056961Y-100827415D01*
X171011206Y-100774611D01*
X171000000Y-100723100D01*
X171000000Y-100459755D01*
X171019685Y-100392716D01*
X171072489Y-100346961D01*
X171084975Y-100342057D01*
X171106834Y-100334814D01*
X171256156Y-100242712D01*
X171380212Y-100118656D01*
X171472314Y-99969334D01*
X171527499Y-99802797D01*
X171538000Y-99700009D01*
X171537999Y-98299992D01*
X171527499Y-98197203D01*
X171472314Y-98030666D01*
X171380212Y-97881344D01*
X171349049Y-97850181D01*
X171315564Y-97788858D01*
X171320548Y-97719166D01*
X171349049Y-97674819D01*
X171405212Y-97618656D01*
X171497314Y-97469334D01*
X171552499Y-97302797D01*
X171563000Y-97200009D01*
X171562999Y-95799992D01*
X171552499Y-95697203D01*
X171497314Y-95530666D01*
X171405212Y-95381344D01*
X171281156Y-95257288D01*
X171131834Y-95165186D01*
X171084995Y-95149665D01*
X171027550Y-95109892D01*
X171000728Y-95045375D01*
X171000000Y-95031959D01*
X171000000Y-93724500D01*
X171019685Y-93657461D01*
X171072489Y-93611706D01*
X171124000Y-93600500D01*
X172679903Y-93600500D01*
X172746942Y-93620185D01*
X172767584Y-93636819D01*
X172786561Y-93655796D01*
X172820046Y-93717119D01*
X172816811Y-93781794D01*
X172793985Y-93852045D01*
X172778394Y-93950485D01*
X172759500Y-94069778D01*
X172759500Y-94290222D01*
X172762406Y-94308567D01*
X172793985Y-94507952D01*
X172862103Y-94717603D01*
X172862104Y-94717606D01*
X172962187Y-94914025D01*
X173091752Y-95092358D01*
X173091756Y-95092363D01*
X173247636Y-95248243D01*
X173247641Y-95248247D01*
X173317287Y-95298847D01*
X173425978Y-95377815D01*
X173554375Y-95443237D01*
X173622393Y-95477895D01*
X173622396Y-95477896D01*
X173727221Y-95511955D01*
X173832049Y-95546015D01*
X174049778Y-95580500D01*
X174049779Y-95580500D01*
X174270221Y-95580500D01*
X174270222Y-95580500D01*
X174487951Y-95546015D01*
X174697606Y-95477895D01*
X174894022Y-95377815D01*
X175072365Y-95248242D01*
X175087820Y-95232786D01*
X175149139Y-95199302D01*
X175218830Y-95204285D01*
X175274765Y-95246155D01*
X175299184Y-95311619D01*
X175299500Y-95320468D01*
X175299500Y-96397870D01*
X175299501Y-96397876D01*
X175305908Y-96457483D01*
X175356202Y-96592328D01*
X175356206Y-96592335D01*
X175442452Y-96707544D01*
X175442455Y-96707547D01*
X175557664Y-96793793D01*
X175557671Y-96793797D01*
X175692517Y-96844091D01*
X175692516Y-96844091D01*
X175699444Y-96844835D01*
X175752127Y-96850500D01*
X177647872Y-96850499D01*
X177707483Y-96844091D01*
X177842331Y-96793796D01*
X177957546Y-96707546D01*
X178043796Y-96592331D01*
X178094091Y-96457483D01*
X178100500Y-96397873D01*
X178100499Y-94502128D01*
X178094091Y-94442517D01*
X178043796Y-94307669D01*
X178043795Y-94307668D01*
X178043793Y-94307664D01*
X177957547Y-94192455D01*
X177957544Y-94192452D01*
X177842335Y-94106206D01*
X177842328Y-94106202D01*
X177762419Y-94076398D01*
X177706485Y-94034527D01*
X177682068Y-93969062D01*
X177696920Y-93900789D01*
X177718069Y-93872537D01*
X177768242Y-93822365D01*
X177897815Y-93644022D01*
X177997895Y-93447606D01*
X178066015Y-93237951D01*
X178100500Y-93020222D01*
X178100500Y-92799778D01*
X178066015Y-92582049D01*
X178019708Y-92439527D01*
X177997896Y-92372396D01*
X177997895Y-92372393D01*
X177963237Y-92304375D01*
X177897815Y-92175978D01*
X177865250Y-92131156D01*
X177768247Y-91997641D01*
X177768243Y-91997636D01*
X177612363Y-91841756D01*
X177612358Y-91841752D01*
X177472745Y-91740318D01*
X177430079Y-91684989D01*
X177424100Y-91615375D01*
X177456705Y-91553580D01*
X177472745Y-91539682D01*
X177612358Y-91438247D01*
X177612356Y-91438247D01*
X177612365Y-91438242D01*
X177768242Y-91282365D01*
X177897815Y-91104022D01*
X177997895Y-90907606D01*
X178066015Y-90697951D01*
X178100500Y-90480222D01*
X178100500Y-90259778D01*
X178066015Y-90042049D01*
X177997895Y-89832394D01*
X177997895Y-89832393D01*
X177963237Y-89764375D01*
X177897815Y-89635978D01*
X177802809Y-89505212D01*
X177768247Y-89457641D01*
X177768243Y-89457636D01*
X177612363Y-89301756D01*
X177612358Y-89301752D01*
X177472745Y-89200318D01*
X177430079Y-89144989D01*
X177424100Y-89075375D01*
X177456705Y-89013580D01*
X177472745Y-88999682D01*
X177612358Y-88898247D01*
X177612356Y-88898247D01*
X177612365Y-88898242D01*
X177768242Y-88742365D01*
X177897815Y-88564022D01*
X177997895Y-88367606D01*
X178066015Y-88157951D01*
X178100500Y-87940222D01*
X178100500Y-87719778D01*
X178066015Y-87502049D01*
X178015800Y-87347501D01*
X177997896Y-87292396D01*
X177997895Y-87292393D01*
X177909651Y-87119207D01*
X177897815Y-87095978D01*
X177896852Y-87094653D01*
X177896641Y-87094062D01*
X177895269Y-87091822D01*
X177895739Y-87091533D01*
X177873373Y-87028847D01*
X177889198Y-86960793D01*
X177939304Y-86912099D01*
X178007782Y-86898223D01*
X178072891Y-86923572D01*
G37*
%TD.AperFunction*%
%TA.AperFunction,Conductor*%
G36*
X194540139Y-81172585D02*
G01*
X194585894Y-81225389D01*
X194597100Y-81276900D01*
X194597100Y-100723100D01*
X194577415Y-100790139D01*
X194524611Y-100835894D01*
X194473100Y-100847100D01*
X180786794Y-100847100D01*
X180719755Y-100827415D01*
X180674000Y-100774611D01*
X180664056Y-100705453D01*
X180693081Y-100641897D01*
X180739341Y-100608539D01*
X180886471Y-100547595D01*
X180886482Y-100547590D01*
X181113516Y-100416511D01*
X181113534Y-100416499D01*
X181226365Y-100329919D01*
X181226365Y-100329917D01*
X180362294Y-99465846D01*
X180378942Y-99458951D01*
X180509970Y-99371401D01*
X180621401Y-99259970D01*
X180708951Y-99128942D01*
X180715846Y-99112293D01*
X181579917Y-99976365D01*
X181579919Y-99976365D01*
X181666499Y-99863534D01*
X181666511Y-99863516D01*
X181797590Y-99636482D01*
X181797595Y-99636471D01*
X181897924Y-99394255D01*
X181965777Y-99141020D01*
X181965779Y-99141009D01*
X181999999Y-98881094D01*
X182000000Y-98881080D01*
X182000000Y-98618919D01*
X181999999Y-98618905D01*
X181965779Y-98358990D01*
X181964987Y-98355005D01*
X181966999Y-98354604D01*
X181968343Y-98293014D01*
X182007391Y-98235074D01*
X182071565Y-98207442D01*
X182140490Y-98218892D01*
X182148530Y-98223149D01*
X182273218Y-98295138D01*
X182273223Y-98295140D01*
X182273226Y-98295142D01*
X182407060Y-98350578D01*
X182427368Y-98358990D01*
X182485469Y-98383056D01*
X182707371Y-98442514D01*
X182935135Y-98472500D01*
X182935142Y-98472500D01*
X183164858Y-98472500D01*
X183164865Y-98472500D01*
X183392629Y-98442514D01*
X183614531Y-98383056D01*
X183826774Y-98295142D01*
X184025726Y-98180277D01*
X184207983Y-98040426D01*
X184370426Y-97877983D01*
X184510277Y-97695726D01*
X184625142Y-97496774D01*
X184713056Y-97284531D01*
X184772514Y-97062629D01*
X184802500Y-96834865D01*
X184802500Y-96605135D01*
X184785229Y-96473950D01*
X184795994Y-96404915D01*
X184842374Y-96352659D01*
X184909643Y-96333774D01*
X184976444Y-96354254D01*
X184995849Y-96370084D01*
X185657200Y-97031435D01*
X185690685Y-97092758D01*
X185687450Y-97157433D01*
X185646447Y-97283628D01*
X185609500Y-97516902D01*
X185609500Y-97753097D01*
X185646446Y-97986368D01*
X185719433Y-98210996D01*
X185807101Y-98383052D01*
X185826657Y-98421433D01*
X185965483Y-98612510D01*
X186132490Y-98779517D01*
X186323567Y-98918343D01*
X186422991Y-98969002D01*
X186534003Y-99025566D01*
X186534005Y-99025566D01*
X186534008Y-99025568D01*
X186654412Y-99064689D01*
X186758631Y-99098553D01*
X186991903Y-99135500D01*
X186991908Y-99135500D01*
X187228097Y-99135500D01*
X187461368Y-99098553D01*
X187685992Y-99025568D01*
X187896433Y-98918343D01*
X188087510Y-98779517D01*
X188254517Y-98612510D01*
X188393343Y-98421433D01*
X188500568Y-98210992D01*
X188573553Y-97986368D01*
X188590187Y-97881344D01*
X188610500Y-97753097D01*
X188610500Y-97516902D01*
X188573553Y-97283631D01*
X188511534Y-97092758D01*
X188500568Y-97059008D01*
X188500566Y-97059005D01*
X188500566Y-97059003D01*
X188395130Y-96852075D01*
X188393343Y-96848567D01*
X188254517Y-96657490D01*
X188087510Y-96490483D01*
X188052872Y-96465317D01*
X188010207Y-96409989D01*
X188004228Y-96340375D01*
X188036833Y-96278580D01*
X188052873Y-96264682D01*
X188087510Y-96239517D01*
X188254517Y-96072510D01*
X188393343Y-95881433D01*
X188500568Y-95670992D01*
X188573553Y-95446368D01*
X188580964Y-95399578D01*
X188610500Y-95213097D01*
X188610500Y-94976902D01*
X188573553Y-94743631D01*
X188500566Y-94519003D01*
X188393342Y-94308566D01*
X188392692Y-94307671D01*
X188254517Y-94117490D01*
X188087510Y-93950483D01*
X187896433Y-93811657D01*
X187837824Y-93781794D01*
X187685996Y-93704433D01*
X187461368Y-93631446D01*
X187228097Y-93594500D01*
X187228092Y-93594500D01*
X186991908Y-93594500D01*
X186991903Y-93594500D01*
X186758628Y-93631447D01*
X186647528Y-93667545D01*
X186577687Y-93669540D01*
X186521530Y-93637295D01*
X186386819Y-93502584D01*
X186353334Y-93441261D01*
X186350500Y-93414903D01*
X186350500Y-92736631D01*
X186350499Y-92736627D01*
X186323057Y-92634206D01*
X186323057Y-92634205D01*
X186309578Y-92583904D01*
X186309577Y-92583901D01*
X186266107Y-92508610D01*
X186260836Y-92499480D01*
X186230520Y-92446970D01*
X186118716Y-92335166D01*
X186118715Y-92335165D01*
X186114385Y-92330835D01*
X186114374Y-92330825D01*
X181860730Y-88077181D01*
X181827245Y-88015858D01*
X181832229Y-87946166D01*
X181874101Y-87890233D01*
X181939565Y-87865816D01*
X181948411Y-87865500D01*
X184133331Y-87865500D01*
X184133347Y-87865501D01*
X184140943Y-87865501D01*
X184299054Y-87865501D01*
X184299057Y-87865501D01*
X184451785Y-87824577D01*
X184501904Y-87795639D01*
X184588716Y-87745520D01*
X184700520Y-87633716D01*
X184700520Y-87633714D01*
X184710728Y-87623507D01*
X184710730Y-87623504D01*
X185397819Y-86936415D01*
X185459142Y-86902930D01*
X185528834Y-86907914D01*
X185584767Y-86949786D01*
X185609184Y-87015250D01*
X185609500Y-87024096D01*
X185609500Y-87033097D01*
X185646446Y-87266368D01*
X185719433Y-87490996D01*
X185792152Y-87633713D01*
X185826657Y-87701433D01*
X185965483Y-87892510D01*
X186132490Y-88059517D01*
X186323567Y-88198343D01*
X186422991Y-88249002D01*
X186534003Y-88305566D01*
X186534005Y-88305566D01*
X186534008Y-88305568D01*
X186654412Y-88344689D01*
X186758631Y-88378553D01*
X186991903Y-88415500D01*
X186991908Y-88415500D01*
X187228097Y-88415500D01*
X187461368Y-88378553D01*
X187495059Y-88367606D01*
X187685992Y-88305568D01*
X187896433Y-88198343D01*
X188087510Y-88059517D01*
X188254517Y-87892510D01*
X188393343Y-87701433D01*
X188500568Y-87490992D01*
X188573553Y-87266368D01*
X188596861Y-87119207D01*
X188610500Y-87033097D01*
X188610500Y-86796902D01*
X188573553Y-86563631D01*
X188500566Y-86339003D01*
X188393342Y-86128566D01*
X188377553Y-86106834D01*
X188254517Y-85937490D01*
X188087510Y-85770483D01*
X188052872Y-85745317D01*
X188010207Y-85689989D01*
X188004228Y-85620375D01*
X188036833Y-85558580D01*
X188052873Y-85544682D01*
X188064758Y-85536047D01*
X188087510Y-85519517D01*
X188254517Y-85352510D01*
X188393343Y-85161433D01*
X188500568Y-84950992D01*
X188573553Y-84726368D01*
X188601408Y-84550500D01*
X188610500Y-84493097D01*
X188610500Y-84256902D01*
X188573553Y-84023631D01*
X188500566Y-83799003D01*
X188419010Y-83638942D01*
X188393343Y-83588567D01*
X188254517Y-83397490D01*
X188087510Y-83230483D01*
X187896433Y-83091657D01*
X187685996Y-82984433D01*
X187461368Y-82911446D01*
X187228097Y-82874500D01*
X187228092Y-82874500D01*
X186991908Y-82874500D01*
X186991903Y-82874500D01*
X186758631Y-82911446D01*
X186534003Y-82984433D01*
X186323566Y-83091657D01*
X186272280Y-83128919D01*
X186132490Y-83230483D01*
X186132488Y-83230485D01*
X186132487Y-83230485D01*
X185965485Y-83397487D01*
X185965485Y-83397488D01*
X185965483Y-83397490D01*
X185935263Y-83439084D01*
X185826657Y-83588566D01*
X185719433Y-83799003D01*
X185646446Y-84023631D01*
X185609500Y-84256902D01*
X185609500Y-84493097D01*
X185646447Y-84726369D01*
X185646447Y-84726372D01*
X185687450Y-84852564D01*
X185689445Y-84922405D01*
X185657200Y-84978563D01*
X184995849Y-85639914D01*
X184934526Y-85673399D01*
X184864834Y-85668415D01*
X184808901Y-85626543D01*
X184784484Y-85561079D01*
X184785229Y-85536047D01*
X184787406Y-85519517D01*
X184802500Y-85404865D01*
X184802500Y-85175135D01*
X184772514Y-84947371D01*
X184713056Y-84725469D01*
X184625142Y-84513226D01*
X184625140Y-84513223D01*
X184625138Y-84513218D01*
X184510281Y-84314281D01*
X184510277Y-84314274D01*
X184370426Y-84132017D01*
X184370421Y-84132011D01*
X184207988Y-83969578D01*
X184207981Y-83969572D01*
X184025734Y-83829729D01*
X184025732Y-83829727D01*
X184025726Y-83829723D01*
X184025721Y-83829720D01*
X184025718Y-83829718D01*
X183826781Y-83714861D01*
X183826770Y-83714856D01*
X183614540Y-83626947D01*
X183614533Y-83626945D01*
X183614531Y-83626944D01*
X183392629Y-83567486D01*
X183354564Y-83562474D01*
X183164872Y-83537500D01*
X183164865Y-83537500D01*
X182935135Y-83537500D01*
X182935127Y-83537500D01*
X182718335Y-83566042D01*
X182707371Y-83567486D01*
X182628699Y-83588566D01*
X182485469Y-83626944D01*
X182485459Y-83626947D01*
X182273229Y-83714856D01*
X182273218Y-83714861D01*
X182148530Y-83786850D01*
X182080629Y-83803323D01*
X182014603Y-83780470D01*
X181971412Y-83725549D01*
X181964771Y-83655995D01*
X181965001Y-83654997D01*
X181964987Y-83654995D01*
X181965779Y-83651009D01*
X181999999Y-83391094D01*
X182000000Y-83391080D01*
X182000000Y-83128919D01*
X181999999Y-83128905D01*
X181965779Y-82868990D01*
X181965777Y-82868979D01*
X181897924Y-82615744D01*
X181797595Y-82373528D01*
X181797590Y-82373517D01*
X181666511Y-82146483D01*
X181666505Y-82146475D01*
X181579918Y-82033633D01*
X181579917Y-82033633D01*
X180715846Y-82897704D01*
X180708951Y-82881058D01*
X180621401Y-82750030D01*
X180509970Y-82638599D01*
X180378942Y-82551049D01*
X180362292Y-82544152D01*
X181226365Y-81680080D01*
X181113524Y-81593494D01*
X181113516Y-81593488D01*
X180886482Y-81462409D01*
X180886466Y-81462401D01*
X180715199Y-81391461D01*
X180660795Y-81347620D01*
X180638730Y-81281326D01*
X180656009Y-81213627D01*
X180707146Y-81166016D01*
X180762651Y-81152900D01*
X194473100Y-81152900D01*
X194540139Y-81172585D01*
G37*
%TD.AperFunction*%
%TA.AperFunction,Conductor*%
G36*
X175516942Y-84370185D02*
G01*
X175537584Y-84386819D01*
X177595912Y-86445147D01*
X177629397Y-86506470D01*
X177624413Y-86576162D01*
X177582541Y-86632095D01*
X177517077Y-86656512D01*
X177448804Y-86641660D01*
X177435349Y-86633148D01*
X177434027Y-86632187D01*
X177237606Y-86532104D01*
X177237603Y-86532103D01*
X177027952Y-86463985D01*
X176879187Y-86440423D01*
X176810222Y-86429500D01*
X176589778Y-86429500D01*
X176520813Y-86440423D01*
X176372047Y-86463985D01*
X176162396Y-86532103D01*
X176162393Y-86532104D01*
X175965974Y-86632187D01*
X175787641Y-86761752D01*
X175787635Y-86761757D01*
X175769779Y-86779613D01*
X175708455Y-86813097D01*
X175638764Y-86808111D01*
X175582831Y-86766238D01*
X175558416Y-86700773D01*
X175559628Y-86672521D01*
X175560000Y-86670173D01*
X175560000Y-86449818D01*
X175525526Y-86232164D01*
X175457432Y-86022589D01*
X175357388Y-85826243D01*
X175311065Y-85762485D01*
X174598055Y-86475496D01*
X174574674Y-86388236D01*
X174516089Y-86286764D01*
X174433236Y-86203911D01*
X174331764Y-86145326D01*
X174244500Y-86121944D01*
X174957513Y-85408932D01*
X174893756Y-85362611D01*
X174697410Y-85262567D01*
X174487835Y-85194473D01*
X174270181Y-85160000D01*
X174049819Y-85160000D01*
X173832164Y-85194473D01*
X173622589Y-85262567D01*
X173426233Y-85362616D01*
X173362485Y-85408931D01*
X173362485Y-85408932D01*
X174075497Y-86121944D01*
X173988236Y-86145326D01*
X173886764Y-86203911D01*
X173803911Y-86286764D01*
X173745326Y-86388236D01*
X173721944Y-86475497D01*
X173008932Y-85762485D01*
X173008931Y-85762485D01*
X172962616Y-85826233D01*
X172862567Y-86022589D01*
X172794473Y-86232164D01*
X172760000Y-86449818D01*
X172760000Y-86670181D01*
X172794473Y-86887835D01*
X172862567Y-87097410D01*
X172873673Y-87119207D01*
X172886568Y-87187876D01*
X172860291Y-87252616D01*
X172803184Y-87292872D01*
X172763187Y-87299500D01*
X172200097Y-87299500D01*
X172133058Y-87279815D01*
X172112416Y-87263181D01*
X171487590Y-86638355D01*
X171487588Y-86638352D01*
X171368717Y-86519481D01*
X171368716Y-86519480D01*
X171272595Y-86463985D01*
X171231785Y-86440423D01*
X171091905Y-86402941D01*
X171032246Y-86366576D01*
X171001717Y-86303729D01*
X171000000Y-86283167D01*
X171000000Y-84667947D01*
X171019685Y-84600908D01*
X171072489Y-84555153D01*
X171099809Y-84546330D01*
X171168435Y-84532678D01*
X171233497Y-84519737D01*
X171379179Y-84459394D01*
X171379185Y-84459390D01*
X171510875Y-84371398D01*
X171577553Y-84350520D01*
X171579766Y-84350500D01*
X175449903Y-84350500D01*
X175516942Y-84370185D01*
G37*
%TD.AperFunction*%
%TA.AperFunction,Conductor*%
G36*
X179304388Y-81172585D02*
G01*
X179350143Y-81225389D01*
X179360087Y-81294547D01*
X179331062Y-81358103D01*
X179284801Y-81391461D01*
X179113533Y-81462401D01*
X179113517Y-81462409D01*
X178886471Y-81593496D01*
X178773633Y-81680079D01*
X178773633Y-81680080D01*
X179637706Y-82544153D01*
X179621058Y-82551049D01*
X179490030Y-82638599D01*
X179378599Y-82750030D01*
X179291049Y-82881058D01*
X179284153Y-82897706D01*
X178420080Y-82033633D01*
X178420079Y-82033633D01*
X178333496Y-82146471D01*
X178202409Y-82373517D01*
X178202404Y-82373528D01*
X178102075Y-82615744D01*
X178034222Y-82868979D01*
X178034220Y-82868990D01*
X178000000Y-83128905D01*
X178000000Y-83351403D01*
X177980315Y-83418442D01*
X177927511Y-83464197D01*
X177858353Y-83474141D01*
X177794797Y-83445116D01*
X177788319Y-83439084D01*
X175812590Y-81463355D01*
X175812588Y-81463352D01*
X175713817Y-81364581D01*
X175680332Y-81303258D01*
X175685316Y-81233566D01*
X175727188Y-81177633D01*
X175792652Y-81153216D01*
X175801498Y-81152900D01*
X179237349Y-81152900D01*
X179304388Y-81172585D01*
G37*
%TD.AperFunction*%
%TD*%
M02*
