%TF.GenerationSoftware,KiCad,Pcbnew,10.0.5*%
%TF.CreationDate,2026-07-25T21:44:09-05:00*%
%TF.ProjectId,biscotti,62697363-6f74-4746-992e-6b696361645f,rev?*%
%TF.SameCoordinates,Original*%
%TF.FileFunction,Soldermask,Top*%
%TF.FilePolarity,Negative*%
%FSLAX46Y46*%
G04 Gerber Fmt 4.6, Leading zero omitted, Abs format (unit mm)*
G04 Created by KiCad (PCBNEW 10.0.5) date 2026-07-25 21:44:09*
%MOMM*%
%LPD*%
G01*
G04 APERTURE LIST*
G04 Aperture macros list*
%AMRoundRect*
0 Rectangle with rounded corners*
0 $1 Rounding radius*
0 $2 $3 $4 $5 $6 $7 $8 $9 X,Y pos of 4 corners*
0 Add a 4 corners polygon primitive as box body*
4,1,4,$2,$3,$4,$5,$6,$7,$8,$9,$2,$3,0*
0 Add four circle primitives for the rounded corners*
1,1,$1+$1,$2,$3*
1,1,$1+$1,$4,$5*
1,1,$1+$1,$6,$7*
1,1,$1+$1,$8,$9*
0 Add four rect primitives between the rounded corners*
20,1,$1+$1,$2,$3,$4,$5,0*
20,1,$1+$1,$4,$5,$6,$7,0*
20,1,$1+$1,$6,$7,$8,$9,0*
20,1,$1+$1,$8,$9,$2,$3,0*%
G04 Aperture macros list end*
%ADD10RoundRect,0.250000X0.650000X-0.412500X0.650000X0.412500X-0.650000X0.412500X-0.650000X-0.412500X0*%
%ADD11RoundRect,0.250000X-0.650000X0.412500X-0.650000X-0.412500X0.650000X-0.412500X0.650000X0.412500X0*%
%ADD12RoundRect,0.250000X0.400000X0.625000X-0.400000X0.625000X-0.400000X-0.625000X0.400000X-0.625000X0*%
%ADD13R,1.700000X1.700000*%
%ADD14C,1.700000*%
%ADD15C,3.250000*%
%ADD16R,1.800000X1.800000*%
%ADD17C,1.800000*%
%ADD18C,2.000000*%
%ADD19C,3.000000*%
%ADD20RoundRect,0.250000X-0.625000X0.400000X-0.625000X-0.400000X0.625000X-0.400000X0.625000X0.400000X0*%
%ADD21RoundRect,0.062500X-0.062500X0.375000X-0.062500X-0.375000X0.062500X-0.375000X0.062500X0.375000X0*%
%ADD22RoundRect,0.062500X-0.375000X0.062500X-0.375000X-0.062500X0.375000X-0.062500X0.375000X0.062500X0*%
%ADD23R,2.500000X2.500000*%
%ADD24RoundRect,0.250000X-0.400000X-0.625000X0.400000X-0.625000X0.400000X0.625000X-0.400000X0.625000X0*%
%ADD25RoundRect,0.250000X0.412500X0.650000X-0.412500X0.650000X-0.412500X-0.650000X0.412500X-0.650000X0*%
%ADD26RoundRect,0.250000X0.625000X-0.400000X0.625000X0.400000X-0.625000X0.400000X-0.625000X-0.400000X0*%
%ADD27RoundRect,0.250000X-0.412500X-0.650000X0.412500X-0.650000X0.412500X0.650000X-0.412500X0.650000X0*%
%ADD28RoundRect,0.250000X0.362500X0.700000X-0.362500X0.700000X-0.362500X-0.700000X0.362500X-0.700000X0*%
G04 APERTURE END LIST*
D10*
%TO.C,C8*%
X134000000Y-99250000D03*
X134000000Y-96125000D03*
%TD*%
D11*
%TO.C,C7*%
X169500000Y-91250000D03*
X169500000Y-94375000D03*
%TD*%
D12*
%TO.C,R1*%
X139000000Y-82750000D03*
X135900000Y-82750000D03*
%TD*%
D13*
%TO.C,J1*%
X133040000Y-83000000D03*
D14*
X130500000Y-83000000D03*
%TD*%
D15*
%TO.C,J4*%
X183050000Y-96720000D03*
X183050000Y-85290000D03*
D16*
X176700000Y-95450000D03*
D17*
X174160000Y-94180000D03*
X176700000Y-92910000D03*
X174160000Y-91640000D03*
X176700000Y-90370000D03*
X174160000Y-89100000D03*
X176700000Y-87830000D03*
X174160000Y-86560000D03*
D18*
X187110000Y-97635000D03*
X187110000Y-95095000D03*
X187110000Y-86915000D03*
X187110000Y-84375000D03*
D19*
X180000000Y-98750000D03*
X180000000Y-83260000D03*
%TD*%
D20*
%TO.C,R6*%
X147500000Y-85400000D03*
X147500000Y-88500000D03*
%TD*%
D21*
%TO.C,U1*%
X156750000Y-88000000D03*
X156250000Y-88000000D03*
X155750000Y-88000000D03*
X155250000Y-88000000D03*
X154750000Y-88000000D03*
X154250000Y-88000000D03*
D22*
X153562500Y-88687500D03*
X153562500Y-89187500D03*
X153562500Y-89687500D03*
X153562500Y-90187500D03*
X153562500Y-90687500D03*
X153562500Y-91187500D03*
D21*
X154250000Y-91875000D03*
X154750000Y-91875000D03*
X155250000Y-91875000D03*
X155750000Y-91875000D03*
X156250000Y-91875000D03*
X156750000Y-91875000D03*
D22*
X157437500Y-91187500D03*
X157437500Y-90687500D03*
X157437500Y-90187500D03*
X157437500Y-89687500D03*
X157437500Y-89187500D03*
X157437500Y-88687500D03*
D23*
X155500000Y-89937500D03*
%TD*%
D24*
%TO.C,R13*%
X160650000Y-83000000D03*
X163750000Y-83000000D03*
%TD*%
%TO.C,R5*%
X143750000Y-93940000D03*
X140650000Y-93940000D03*
%TD*%
D25*
%TO.C,C10*%
X165000000Y-96500000D03*
X161875000Y-96500000D03*
%TD*%
D24*
%TO.C,R2*%
X140650000Y-88562500D03*
X143750000Y-88562500D03*
%TD*%
%TO.C,R10*%
X145650000Y-99000000D03*
X148750000Y-99000000D03*
%TD*%
D20*
%TO.C,R15*%
X160500000Y-85400000D03*
X160500000Y-88500000D03*
%TD*%
D10*
%TO.C,C4*%
X169500000Y-88500000D03*
X169500000Y-85375000D03*
%TD*%
D26*
%TO.C,R17*%
X157000000Y-85850000D03*
X157000000Y-82750000D03*
%TD*%
D20*
%TO.C,R8*%
X150250000Y-85400000D03*
X150250000Y-88500000D03*
%TD*%
%TO.C,R7*%
X150250000Y-91400000D03*
X150250000Y-94500000D03*
%TD*%
D27*
%TO.C,C3*%
X146625000Y-82750000D03*
X149750000Y-82750000D03*
%TD*%
D26*
%TO.C,R12*%
X160500000Y-94350000D03*
X160500000Y-91250000D03*
%TD*%
D11*
%TO.C,C9*%
X166500000Y-91250000D03*
X166500000Y-94375000D03*
%TD*%
D27*
%TO.C,C11*%
X167275000Y-96500000D03*
X170400000Y-96500000D03*
%TD*%
D25*
%TO.C,C2*%
X144250000Y-82750000D03*
X141125000Y-82750000D03*
%TD*%
D13*
%TO.C,J3*%
X142750000Y-98750000D03*
%TD*%
D12*
%TO.C,R11*%
X159500000Y-99000000D03*
X156400000Y-99000000D03*
%TD*%
D20*
%TO.C,R9*%
X147500000Y-91400000D03*
X147500000Y-94500000D03*
%TD*%
D10*
%TO.C,C6*%
X136750000Y-99250000D03*
X136750000Y-96125000D03*
%TD*%
D26*
%TO.C,R14*%
X163500000Y-94350000D03*
X163500000Y-91250000D03*
%TD*%
D24*
%TO.C,R18*%
X166250000Y-83000000D03*
X169350000Y-83000000D03*
%TD*%
D10*
%TO.C,C5*%
X166500000Y-88500000D03*
X166500000Y-85375000D03*
%TD*%
%TO.C,C13*%
X128250000Y-99250000D03*
X128250000Y-96125000D03*
%TD*%
D24*
%TO.C,R4*%
X140650000Y-91250000D03*
X143750000Y-91250000D03*
%TD*%
D13*
%TO.C,J2*%
X122295000Y-84795000D03*
D14*
X124835000Y-84795000D03*
X122295000Y-87335000D03*
X124835000Y-87335000D03*
X122295000Y-89875000D03*
X124835000Y-89875000D03*
X122295000Y-92415000D03*
X124835000Y-92415000D03*
X122295000Y-94955000D03*
X124835000Y-94955000D03*
X122295000Y-97495000D03*
X124835000Y-97495000D03*
%TD*%
D10*
%TO.C,C14*%
X131100000Y-99250000D03*
X131100000Y-96125000D03*
%TD*%
D25*
%TO.C,C1*%
X154250000Y-99000000D03*
X151125000Y-99000000D03*
%TD*%
D20*
%TO.C,R16*%
X163500000Y-85400000D03*
X163500000Y-88500000D03*
%TD*%
D28*
%TO.C,FB1*%
X161675000Y-99000000D03*
X165000000Y-99000000D03*
%TD*%
D24*
%TO.C,R3*%
X140650000Y-85812500D03*
X143750000Y-85812500D03*
%TD*%
D27*
%TO.C,C12*%
X167250000Y-99000000D03*
X170375000Y-99000000D03*
%TD*%
M02*
